<?xml version="1.0" encoding="utf-8" standalone="no"?>
<!DOCTYPE svg PUBLIC "-//W3C//DTD SVG 1.1//EN"
  "http://www.w3.org/Graphics/SVG/1.1/DTD/svg11.dtd">
<svg xmlns:xlink="http://www.w3.org/1999/xlink" width="892.7125pt" height="230.222344pt" viewBox="0 0 892.7125 230.222344" xmlns="http://www.w3.org/2000/svg" version="1.1">
 <metadata>
  <rdf:RDF xmlns:dc="http://purl.org/dc/elements/1.1/" xmlns:cc="http://creativecommons.org/ns#" xmlns:rdf="http://www.w3.org/1999/02/22-rdf-syntax-ns#">
   <cc:Work>
    <dc:type rdf:resource="http://purl.org/dc/dcmitype/StillImage"/>
    <dc:date>2026-04-24T18:35:18.067010</dc:date>
    <dc:format>image/svg+xml</dc:format>
    <dc:creator>
     <cc:Agent>
      <dc:title>Matplotlib v3.10.8, https://matplotlib.org/</dc:title>
     </cc:Agent>
    </dc:creator>
   </cc:Work>
  </rdf:RDF>
 </metadata>
 <defs>
  <style type="text/css">*{stroke-linejoin: round; stroke-linecap: butt}</style>
 </defs>
 <g id="figure_1">
  <g id="patch_1">
   <path d="M 0 230.222344 
L 892.7125 230.222344 
L 892.7125 0 
L 0 0 
L 0 230.222344 
z
" style="fill: none; opacity: 0"/>
  </g>
  <g id="axes_1">
   <g id="patch_2">
    <path d="M 60.072187 194.138594 
L 398.522187 194.138594 
L 398.522187 6.838594 
L 60.072187 6.838594 
L 60.072187 194.138594 
z
" style="fill: none"/>
   </g>
   <g id="matplotlib.axis_1">
    <g id="xtick_1">
     <g id="line2d_1">
      <path d="M 60.072187 194.138594 
L 60.072187 6.838594 
" clip-path="url(#p9756372ea5)" style="fill: none; stroke: #b0b0b0; stroke-opacity: 0.25; stroke-width: 0.7; stroke-linecap: square"/>
     </g>
     <g id="line2d_2">
      <defs>
       <path id="m66ace2d930" d="M 0 0 
L 0 3.5 
" style="stroke: #000000; stroke-width: 0.8"/>
      </defs>
      <g>
       <use xlink:href="#m66ace2d930" x="60.072187" y="194.138594" style="stroke: #000000; stroke-width: 0.8"/>
      </g>
     </g>
     <g id="text_1">
      <!-- 0.00 -->
      <g transform="translate(40.033125 221.315781) scale(0.18 -0.18)">
       <defs>
        <path id="DejaVuSans-30" d="M 2034 4250 
Q 1547 4250 1301 3770 
Q 1056 3291 1056 2328 
Q 1056 1369 1301 889 
Q 1547 409 2034 409 
Q 2525 409 2770 889 
Q 3016 1369 3016 2328 
Q 3016 3291 2770 3770 
Q 2525 4250 2034 4250 
z
M 2034 4750 
Q 2819 4750 3233 4129 
Q 3647 3509 3647 2328 
Q 3647 1150 3233 529 
Q 2819 -91 2034 -91 
Q 1250 -91 836 529 
Q 422 1150 422 2328 
Q 422 3509 836 4129 
Q 1250 4750 2034 4750 
z
" transform="scale(0.015625)"/>
        <path id="DejaVuSans-2e" d="M 684 794 
L 1344 794 
L 1344 0 
L 684 0 
L 684 794 
z
" transform="scale(0.015625)"/>
       </defs>
       <use xlink:href="#DejaVuSans-30"/>
       <use xlink:href="#DejaVuSans-2e" transform="translate(63.623047 0)"/>
       <use xlink:href="#DejaVuSans-30" transform="translate(95.410156 0)"/>
       <use xlink:href="#DejaVuSans-30" transform="translate(159.033203 0)"/>
      </g>
     </g>
    </g>
    <g id="xtick_2">
     <g id="line2d_3">
      <path d="M 398.522187 194.138594 
L 398.522187 6.838594 
" clip-path="url(#p9756372ea5)" style="fill: none; stroke: #b0b0b0; stroke-opacity: 0.25; stroke-width: 0.7; stroke-linecap: square"/>
     </g>
     <g id="line2d_4">
      <g>
       <use xlink:href="#m66ace2d930" x="398.522187" y="194.138594" style="stroke: #000000; stroke-width: 0.8"/>
      </g>
     </g>
     <g id="text_2">
      <!-- 66.90 -->
      <g transform="translate(372.756875 221.315781) scale(0.18 -0.18)">
       <defs>
        <path id="DejaVuSans-36" d="M 2113 2584 
Q 1688 2584 1439 2293 
Q 1191 2003 1191 1497 
Q 1191 994 1439 701 
Q 1688 409 2113 409 
Q 2538 409 2786 701 
Q 3034 994 3034 1497 
Q 3034 2003 2786 2293 
Q 2538 2584 2113 2584 
z
M 3366 4563 
L 3366 3988 
Q 3128 4100 2886 4159 
Q 2644 4219 2406 4219 
Q 1781 4219 1451 3797 
Q 1122 3375 1075 2522 
Q 1259 2794 1537 2939 
Q 1816 3084 2150 3084 
Q 2853 3084 3261 2657 
Q 3669 2231 3669 1497 
Q 3669 778 3244 343 
Q 2819 -91 2113 -91 
Q 1303 -91 875 529 
Q 447 1150 447 2328 
Q 447 3434 972 4092 
Q 1497 4750 2381 4750 
Q 2619 4750 2861 4703 
Q 3103 4656 3366 4563 
z
" transform="scale(0.015625)"/>
        <path id="DejaVuSans-39" d="M 703 97 
L 703 672 
Q 941 559 1184 500 
Q 1428 441 1663 441 
Q 2288 441 2617 861 
Q 2947 1281 2994 2138 
Q 2813 1869 2534 1725 
Q 2256 1581 1919 1581 
Q 1219 1581 811 2004 
Q 403 2428 403 3163 
Q 403 3881 828 4315 
Q 1253 4750 1959 4750 
Q 2769 4750 3195 4129 
Q 3622 3509 3622 2328 
Q 3622 1225 3098 567 
Q 2575 -91 1691 -91 
Q 1453 -91 1209 -44 
Q 966 3 703 97 
z
M 1959 2075 
Q 2384 2075 2632 2365 
Q 2881 2656 2881 3163 
Q 2881 3666 2632 3958 
Q 2384 4250 1959 4250 
Q 1534 4250 1286 3958 
Q 1038 3666 1038 3163 
Q 1038 2656 1286 2365 
Q 1534 2075 1959 2075 
z
" transform="scale(0.015625)"/>
       </defs>
       <use xlink:href="#DejaVuSans-36"/>
       <use xlink:href="#DejaVuSans-36" transform="translate(63.623047 0)"/>
       <use xlink:href="#DejaVuSans-2e" transform="translate(127.246094 0)"/>
       <use xlink:href="#DejaVuSans-39" transform="translate(159.033203 0)"/>
       <use xlink:href="#DejaVuSans-30" transform="translate(222.65625 0)"/>
      </g>
     </g>
    </g>
    <g id="text_3">
     <!-- Arc length (mm) -->
     <g transform="translate(123.034375 224.815156) scale(0.26 -0.26)">
      <defs>
       <path id="DejaVuSans-41" d="M 2188 4044 
L 1331 1722 
L 3047 1722 
L 2188 4044 
z
M 1831 4666 
L 2547 4666 
L 4325 0 
L 3669 0 
L 3244 1197 
L 1141 1197 
L 716 0 
L 50 0 
L 1831 4666 
z
" transform="scale(0.015625)"/>
       <path id="DejaVuSans-72" d="M 2631 2963 
Q 2534 3019 2420 3045 
Q 2306 3072 2169 3072 
Q 1681 3072 1420 2755 
Q 1159 2438 1159 1844 
L 1159 0 
L 581 0 
L 581 3500 
L 1159 3500 
L 1159 2956 
Q 1341 3275 1631 3429 
Q 1922 3584 2338 3584 
Q 2397 3584 2469 3576 
Q 2541 3569 2628 3553 
L 2631 2963 
z
" transform="scale(0.015625)"/>
       <path id="DejaVuSans-63" d="M 3122 3366 
L 3122 2828 
Q 2878 2963 2633 3030 
Q 2388 3097 2138 3097 
Q 1578 3097 1268 2742 
Q 959 2388 959 1747 
Q 959 1106 1268 751 
Q 1578 397 2138 397 
Q 2388 397 2633 464 
Q 2878 531 3122 666 
L 3122 134 
Q 2881 22 2623 -34 
Q 2366 -91 2075 -91 
Q 1284 -91 818 406 
Q 353 903 353 1747 
Q 353 2603 823 3093 
Q 1294 3584 2113 3584 
Q 2378 3584 2631 3529 
Q 2884 3475 3122 3366 
z
" transform="scale(0.015625)"/>
       <path id="DejaVuSans-20" transform="scale(0.015625)"/>
       <path id="DejaVuSans-6c" d="M 603 4863 
L 1178 4863 
L 1178 0 
L 603 0 
L 603 4863 
z
" transform="scale(0.015625)"/>
       <path id="DejaVuSans-65" d="M 3597 1894 
L 3597 1613 
L 953 1613 
Q 991 1019 1311 708 
Q 1631 397 2203 397 
Q 2534 397 2845 478 
Q 3156 559 3463 722 
L 3463 178 
Q 3153 47 2828 -22 
Q 2503 -91 2169 -91 
Q 1331 -91 842 396 
Q 353 884 353 1716 
Q 353 2575 817 3079 
Q 1281 3584 2069 3584 
Q 2775 3584 3186 3129 
Q 3597 2675 3597 1894 
z
M 3022 2063 
Q 3016 2534 2758 2815 
Q 2500 3097 2075 3097 
Q 1594 3097 1305 2825 
Q 1016 2553 972 2059 
L 3022 2063 
z
" transform="scale(0.015625)"/>
       <path id="DejaVuSans-6e" d="M 3513 2113 
L 3513 0 
L 2938 0 
L 2938 2094 
Q 2938 2591 2744 2837 
Q 2550 3084 2163 3084 
Q 1697 3084 1428 2787 
Q 1159 2491 1159 1978 
L 1159 0 
L 581 0 
L 581 3500 
L 1159 3500 
L 1159 2956 
Q 1366 3272 1645 3428 
Q 1925 3584 2291 3584 
Q 2894 3584 3203 3211 
Q 3513 2838 3513 2113 
z
" transform="scale(0.015625)"/>
       <path id="DejaVuSans-67" d="M 2906 1791 
Q 2906 2416 2648 2759 
Q 2391 3103 1925 3103 
Q 1463 3103 1205 2759 
Q 947 2416 947 1791 
Q 947 1169 1205 825 
Q 1463 481 1925 481 
Q 2391 481 2648 825 
Q 2906 1169 2906 1791 
z
M 3481 434 
Q 3481 -459 3084 -895 
Q 2688 -1331 1869 -1331 
Q 1566 -1331 1297 -1286 
Q 1028 -1241 775 -1147 
L 775 -588 
Q 1028 -725 1275 -790 
Q 1522 -856 1778 -856 
Q 2344 -856 2625 -561 
Q 2906 -266 2906 331 
L 2906 616 
Q 2728 306 2450 153 
Q 2172 0 1784 0 
Q 1141 0 747 490 
Q 353 981 353 1791 
Q 353 2603 747 3093 
Q 1141 3584 1784 3584 
Q 2172 3584 2450 3431 
Q 2728 3278 2906 2969 
L 2906 3500 
L 3481 3500 
L 3481 434 
z
" transform="scale(0.015625)"/>
       <path id="DejaVuSans-74" d="M 1172 4494 
L 1172 3500 
L 2356 3500 
L 2356 3053 
L 1172 3053 
L 1172 1153 
Q 1172 725 1289 603 
Q 1406 481 1766 481 
L 2356 481 
L 2356 0 
L 1766 0 
Q 1100 0 847 248 
Q 594 497 594 1153 
L 594 3053 
L 172 3053 
L 172 3500 
L 594 3500 
L 594 4494 
L 1172 4494 
z
" transform="scale(0.015625)"/>
       <path id="DejaVuSans-68" d="M 3513 2113 
L 3513 0 
L 2938 0 
L 2938 2094 
Q 2938 2591 2744 2837 
Q 2550 3084 2163 3084 
Q 1697 3084 1428 2787 
Q 1159 2491 1159 1978 
L 1159 0 
L 581 0 
L 581 4863 
L 1159 4863 
L 1159 2956 
Q 1366 3272 1645 3428 
Q 1925 3584 2291 3584 
Q 2894 3584 3203 3211 
Q 3513 2838 3513 2113 
z
" transform="scale(0.015625)"/>
       <path id="DejaVuSans-28" d="M 1984 4856 
Q 1566 4138 1362 3434 
Q 1159 2731 1159 2009 
Q 1159 1288 1364 580 
Q 1569 -128 1984 -844 
L 1484 -844 
Q 1016 -109 783 600 
Q 550 1309 550 2009 
Q 550 2706 781 3412 
Q 1013 4119 1484 4856 
L 1984 4856 
z
" transform="scale(0.015625)"/>
       <path id="DejaVuSans-6d" d="M 3328 2828 
Q 3544 3216 3844 3400 
Q 4144 3584 4550 3584 
Q 5097 3584 5394 3201 
Q 5691 2819 5691 2113 
L 5691 0 
L 5113 0 
L 5113 2094 
Q 5113 2597 4934 2840 
Q 4756 3084 4391 3084 
Q 3944 3084 3684 2787 
Q 3425 2491 3425 1978 
L 3425 0 
L 2847 0 
L 2847 2094 
Q 2847 2600 2669 2842 
Q 2491 3084 2119 3084 
Q 1678 3084 1418 2786 
Q 1159 2488 1159 1978 
L 1159 0 
L 581 0 
L 581 3500 
L 1159 3500 
L 1159 2956 
Q 1356 3278 1631 3431 
Q 1906 3584 2284 3584 
Q 2666 3584 2933 3390 
Q 3200 3197 3328 2828 
z
" transform="scale(0.015625)"/>
       <path id="DejaVuSans-29" d="M 513 4856 
L 1013 4856 
Q 1481 4119 1714 3412 
Q 1947 2706 1947 2009 
Q 1947 1309 1714 600 
Q 1481 -109 1013 -844 
L 513 -844 
Q 928 -128 1133 580 
Q 1338 1288 1338 2009 
Q 1338 2731 1133 3434 
Q 928 4138 513 4856 
z
" transform="scale(0.015625)"/>
      </defs>
      <use xlink:href="#DejaVuSans-41"/>
      <use xlink:href="#DejaVuSans-72" transform="translate(68.408203 0)"/>
      <use xlink:href="#DejaVuSans-63" transform="translate(107.271484 0)"/>
      <use xlink:href="#DejaVuSans-20" transform="translate(162.251953 0)"/>
      <use xlink:href="#DejaVuSans-6c" transform="translate(194.039062 0)"/>
      <use xlink:href="#DejaVuSans-65" transform="translate(221.822266 0)"/>
      <use xlink:href="#DejaVuSans-6e" transform="translate(283.345703 0)"/>
      <use xlink:href="#DejaVuSans-67" transform="translate(346.724609 0)"/>
      <use xlink:href="#DejaVuSans-74" transform="translate(410.201172 0)"/>
      <use xlink:href="#DejaVuSans-68" transform="translate(449.410156 0)"/>
      <use xlink:href="#DejaVuSans-20" transform="translate(512.789062 0)"/>
      <use xlink:href="#DejaVuSans-28" transform="translate(544.576172 0)"/>
      <use xlink:href="#DejaVuSans-6d" transform="translate(583.589844 0)"/>
      <use xlink:href="#DejaVuSans-6d" transform="translate(681.001953 0)"/>
      <use xlink:href="#DejaVuSans-29" transform="translate(778.414062 0)"/>
     </g>
    </g>
   </g>
   <g id="matplotlib.axis_2">
    <g id="ytick_1">
     <g id="line2d_5">
      <path d="M 60.072187 194.138594 
L 398.522187 194.138594 
" clip-path="url(#p9756372ea5)" style="fill: none; stroke: #b0b0b0; stroke-opacity: 0.25; stroke-width: 0.7; stroke-linecap: square"/>
     </g>
     <g id="line2d_6">
      <defs>
       <path id="m59756d3771" d="M 0 0 
L -3.5 0 
" style="stroke: #000000; stroke-width: 0.8"/>
      </defs>
      <g>
       <use xlink:href="#m59756d3771" x="60.072187" y="194.138594" style="stroke: #000000; stroke-width: 0.8"/>
      </g>
     </g>
     <g id="text_4">
      <!-- -0.68 -->
      <g transform="translate(0 200.977187) scale(0.18 -0.18)">
       <defs>
        <path id="DejaVuSans-2d" d="M 313 2009 
L 1997 2009 
L 1997 1497 
L 313 1497 
L 313 2009 
z
" transform="scale(0.015625)"/>
        <path id="DejaVuSans-38" d="M 2034 2216 
Q 1584 2216 1326 1975 
Q 1069 1734 1069 1313 
Q 1069 891 1326 650 
Q 1584 409 2034 409 
Q 2484 409 2743 651 
Q 3003 894 3003 1313 
Q 3003 1734 2745 1975 
Q 2488 2216 2034 2216 
z
M 1403 2484 
Q 997 2584 770 2862 
Q 544 3141 544 3541 
Q 544 4100 942 4425 
Q 1341 4750 2034 4750 
Q 2731 4750 3128 4425 
Q 3525 4100 3525 3541 
Q 3525 3141 3298 2862 
Q 3072 2584 2669 2484 
Q 3125 2378 3379 2068 
Q 3634 1759 3634 1313 
Q 3634 634 3220 271 
Q 2806 -91 2034 -91 
Q 1263 -91 848 271 
Q 434 634 434 1313 
Q 434 1759 690 2068 
Q 947 2378 1403 2484 
z
M 1172 3481 
Q 1172 3119 1398 2916 
Q 1625 2713 2034 2713 
Q 2441 2713 2670 2916 
Q 2900 3119 2900 3481 
Q 2900 3844 2670 4047 
Q 2441 4250 2034 4250 
Q 1625 4250 1398 4047 
Q 1172 3844 1172 3481 
z
" transform="scale(0.015625)"/>
       </defs>
       <use xlink:href="#DejaVuSans-2d"/>
       <use xlink:href="#DejaVuSans-30" transform="translate(36.083984 0)"/>
       <use xlink:href="#DejaVuSans-2e" transform="translate(99.707031 0)"/>
       <use xlink:href="#DejaVuSans-36" transform="translate(131.494141 0)"/>
       <use xlink:href="#DejaVuSans-38" transform="translate(195.117188 0)"/>
      </g>
     </g>
    </g>
    <g id="ytick_2">
     <g id="line2d_7">
      <path d="M 60.072187 6.838594 
L 398.522187 6.838594 
" clip-path="url(#p9756372ea5)" style="fill: none; stroke: #b0b0b0; stroke-opacity: 0.25; stroke-width: 0.7; stroke-linecap: square"/>
     </g>
     <g id="line2d_8">
      <g>
       <use xlink:href="#m59756d3771" x="60.072187" y="6.838594" style="stroke: #000000; stroke-width: 0.8"/>
      </g>
     </g>
     <g id="text_5">
      <!-- 1.07 -->
      <g transform="translate(6.494062 13.677188) scale(0.18 -0.18)">
       <defs>
        <path id="DejaVuSans-31" d="M 794 531 
L 1825 531 
L 1825 4091 
L 703 3866 
L 703 4441 
L 1819 4666 
L 2450 4666 
L 2450 531 
L 3481 531 
L 3481 0 
L 794 0 
L 794 531 
z
" transform="scale(0.015625)"/>
        <path id="DejaVuSans-37" d="M 525 4666 
L 3525 4666 
L 3525 4397 
L 1831 0 
L 1172 0 
L 2766 4134 
L 525 4134 
L 525 4666 
z
" transform="scale(0.015625)"/>
       </defs>
       <use xlink:href="#DejaVuSans-31"/>
       <use xlink:href="#DejaVuSans-2e" transform="translate(63.623047 0)"/>
       <use xlink:href="#DejaVuSans-30" transform="translate(95.410156 0)"/>
       <use xlink:href="#DejaVuSans-37" transform="translate(159.033203 0)"/>
      </g>
     </g>
    </g>
    <g id="text_6">
     <!-- $\theta$ (rad) -->
     <g transform="translate(34.592812 144.298594) rotate(-90) scale(0.26 -0.26)">
      <defs>
       <path id="DejaVuSans-Oblique-3b8" d="M 2913 2219 
L 925 2219 
Q 791 1284 928 888 
Q 1100 400 1566 400 
Q 2034 400 2391 891 
Q 2703 1322 2913 2219 
z
M 3009 2750 
Q 3094 3638 2984 3950 
Q 2813 4444 2353 4444 
Q 1875 4444 1525 3956 
Q 1250 3563 1034 2750 
L 3009 2750 
z
M 2444 4913 
Q 3194 4913 3494 4250 
Q 3794 3591 3566 2422 
Q 3341 1256 2781 594 
Q 2225 -72 1475 -72 
Q 722 -72 425 594 
Q 128 1256 353 2422 
Q 581 3591 1134 4250 
Q 1691 4913 2444 4913 
z
" transform="scale(0.015625)"/>
       <path id="DejaVuSans-61" d="M 2194 1759 
Q 1497 1759 1228 1600 
Q 959 1441 959 1056 
Q 959 750 1161 570 
Q 1363 391 1709 391 
Q 2188 391 2477 730 
Q 2766 1069 2766 1631 
L 2766 1759 
L 2194 1759 
z
M 3341 1997 
L 3341 0 
L 2766 0 
L 2766 531 
Q 2569 213 2275 61 
Q 1981 -91 1556 -91 
Q 1019 -91 701 211 
Q 384 513 384 1019 
Q 384 1609 779 1909 
Q 1175 2209 1959 2209 
L 2766 2209 
L 2766 2266 
Q 2766 2663 2505 2880 
Q 2244 3097 1772 3097 
Q 1472 3097 1187 3025 
Q 903 2953 641 2809 
L 641 3341 
Q 956 3463 1253 3523 
Q 1550 3584 1831 3584 
Q 2591 3584 2966 3190 
Q 3341 2797 3341 1997 
z
" transform="scale(0.015625)"/>
       <path id="DejaVuSans-64" d="M 2906 2969 
L 2906 4863 
L 3481 4863 
L 3481 0 
L 2906 0 
L 2906 525 
Q 2725 213 2448 61 
Q 2172 -91 1784 -91 
Q 1150 -91 751 415 
Q 353 922 353 1747 
Q 353 2572 751 3078 
Q 1150 3584 1784 3584 
Q 2172 3584 2448 3432 
Q 2725 3281 2906 2969 
z
M 947 1747 
Q 947 1113 1208 752 
Q 1469 391 1925 391 
Q 2381 391 2643 752 
Q 2906 1113 2906 1747 
Q 2906 2381 2643 2742 
Q 2381 3103 1925 3103 
Q 1469 3103 1208 2742 
Q 947 2381 947 1747 
z
" transform="scale(0.015625)"/>
      </defs>
      <use xlink:href="#DejaVuSans-Oblique-3b8" transform="translate(0 0.234375)"/>
      <use xlink:href="#DejaVuSans-20" transform="translate(61.181641 0.234375)"/>
      <use xlink:href="#DejaVuSans-28" transform="translate(92.96875 0.234375)"/>
      <use xlink:href="#DejaVuSans-72" transform="translate(131.982422 0.234375)"/>
      <use xlink:href="#DejaVuSans-61" transform="translate(173.095703 0.234375)"/>
      <use xlink:href="#DejaVuSans-64" transform="translate(234.375 0.234375)"/>
      <use xlink:href="#DejaVuSans-29" transform="translate(297.851562 0.234375)"/>
     </g>
    </g>
   </g>
   <g id="line2d_9">
    <path d="M 60.072187 76.388511 
L 63.634819 120.370326 
L 67.197451 60.268314 
L 70.760082 63.856615 
L 74.322714 77.119103 
L 77.885345 135.82668 
L 81.447977 184.506724 
L 85.010609 185.652459 
L 88.57324 130.908915 
L 92.135872 107.789043 
L 95.698503 102.477931 
L 99.261135 98.219701 
L 102.823766 135.82668 
L 106.386398 150.89681 
L 109.94903 168.641125 
L 113.511661 148.786069 
L 117.074293 136.250592 
L 120.636924 109.05407 
L 124.199556 114.94011 
L 127.762187 114.969465 
L 131.324819 135.82668 
L 134.887451 150.89681 
L 138.450082 153.340535 
L 142.012714 152.773339 
L 145.575345 132.983682 
L 149.137977 107.789043 
L 152.700609 107.789043 
L 156.26324 107.789043 
L 159.825872 135.82668 
L 163.388503 158.225818 
L 166.951135 159.113171 
L 170.513766 146.510305 
L 174.076398 110.345102 
L 177.63903 92.718913 
L 181.201661 77.119103 
L 184.764293 76.681508 
L 188.326924 68.769549 
L 191.889556 70.306358 
L 195.452187 107.789043 
L 199.014819 121.807862 
L 202.577451 135.82668 
L 206.140082 150.89681 
L 209.702714 150.89681 
L 213.265345 138.327806 
L 216.827977 119.296225 
L 220.390609 97.23694 
L 223.95324 68.769549 
L 227.515872 65.32168 
L 231.078503 50.808428 
L 234.641135 72.84353 
L 238.203766 92.718913 
L 241.766398 121.807862 
L 245.32903 150.89681 
L 248.891661 171.699481 
L 252.454293 176.878602 
L 256.016924 194.138594 
L 259.579556 184.735183 
L 263.142187 153.718996 
L 266.704819 148.092574 
L 270.267451 121.807862 
L 273.830082 107.632391 
L 277.392714 90.842384 
L 280.955345 79.186662 
L 284.517977 58.557781 
L 288.080609 57.963264 
L 291.64324 68.769549 
L 295.205872 68.769549 
L 298.768503 69.58137 
L 302.331135 90.030563 
L 305.893766 95.390971 
L 309.456398 107.789043 
L 313.01903 121.807862 
L 316.581661 111.992352 
L 320.144293 117.862318 
L 323.706924 121.807862 
L 327.269556 107.789043 
L 330.832187 92.718913 
L 334.394819 77.119103 
L 337.957451 67.637054 
L 341.520082 37.804071 
L 345.082714 37.804071 
L 348.645345 28.018448 
L 352.207977 37.804071 
L 355.770609 47.589694 
L 359.33324 28.018448 
L 362.895872 36.65791 
L 366.458503 18.923584 
L 370.021135 6.838594 
L 373.583766 17.644878 
L 377.146398 37.804071 
L 380.70903 47.589694 
L 384.271661 79.805966 
L 387.834293 79.805966 
L 391.396924 82.907274 
L 394.959556 92.718913 
L 398.522187 92.718913 
" clip-path="url(#p9756372ea5)" style="fill: none; stroke: #cba810; stroke-width: 2; stroke-linecap: square"/>
   </g>
   <g id="patch_3">
    <path d="M 60.072187 194.138594 
L 60.072187 6.838594 
" style="fill: none; stroke: #000000; stroke-width: 0.9; stroke-linejoin: miter; stroke-linecap: square"/>
   </g>
   <g id="patch_4">
    <path d="M 398.522187 194.138594 
L 398.522187 6.838594 
" style="fill: none; stroke: #000000; stroke-width: 0.9; stroke-linejoin: miter; stroke-linecap: square"/>
   </g>
   <g id="patch_5">
    <path d="M 60.072187 194.138594 
L 398.522187 194.138594 
" style="fill: none; stroke: #000000; stroke-width: 0.9; stroke-linejoin: miter; stroke-linecap: square"/>
   </g>
   <g id="patch_6">
    <path d="M 60.072187 6.838594 
L 398.522187 6.838594 
" style="fill: none; stroke: #000000; stroke-width: 0.9; stroke-linejoin: miter; stroke-linecap: square"/>
   </g>
  </g>
  <g id="axes_2">
   <g id="patch_7">
    <path d="M 528.497187 194.138594 
L 866.947187 194.138594 
L 866.947187 6.838594 
L 528.497187 6.838594 
L 528.497187 194.138594 
z
" style="fill: none"/>
   </g>
   <g id="matplotlib.axis_3">
    <g id="xtick_3">
     <g id="line2d_10">
      <path d="M 528.497187 194.138594 
L 528.497187 6.838594 
" clip-path="url(#p0845538592)" style="fill: none; stroke: #b0b0b0; stroke-opacity: 0.25; stroke-width: 0.7; stroke-linecap: square"/>
     </g>
     <g id="line2d_11">
      <g>
       <use xlink:href="#m66ace2d930" x="528.497187" y="194.138594" style="stroke: #000000; stroke-width: 0.8"/>
      </g>
     </g>
     <g id="text_7">
      <!-- 0.00 -->
      <g transform="translate(508.458125 221.315781) scale(0.18 -0.18)">
       <use xlink:href="#DejaVuSans-30"/>
       <use xlink:href="#DejaVuSans-2e" transform="translate(63.623047 0)"/>
       <use xlink:href="#DejaVuSans-30" transform="translate(95.410156 0)"/>
       <use xlink:href="#DejaVuSans-30" transform="translate(159.033203 0)"/>
      </g>
     </g>
    </g>
    <g id="xtick_4">
     <g id="line2d_12">
      <path d="M 866.947187 194.138594 
L 866.947187 6.838594 
" clip-path="url(#p0845538592)" style="fill: none; stroke: #b0b0b0; stroke-opacity: 0.25; stroke-width: 0.7; stroke-linecap: square"/>
     </g>
     <g id="line2d_13">
      <g>
       <use xlink:href="#m66ace2d930" x="866.947187" y="194.138594" style="stroke: #000000; stroke-width: 0.8"/>
      </g>
     </g>
     <g id="text_8">
      <!-- 64.79 -->
      <g transform="translate(841.181875 221.315781) scale(0.18 -0.18)">
       <defs>
        <path id="DejaVuSans-34" d="M 2419 4116 
L 825 1625 
L 2419 1625 
L 2419 4116 
z
M 2253 4666 
L 3047 4666 
L 3047 1625 
L 3713 1625 
L 3713 1100 
L 3047 1100 
L 3047 0 
L 2419 0 
L 2419 1100 
L 313 1100 
L 313 1709 
L 2253 4666 
z
" transform="scale(0.015625)"/>
       </defs>
       <use xlink:href="#DejaVuSans-36"/>
       <use xlink:href="#DejaVuSans-34" transform="translate(63.623047 0)"/>
       <use xlink:href="#DejaVuSans-2e" transform="translate(127.246094 0)"/>
       <use xlink:href="#DejaVuSans-37" transform="translate(159.033203 0)"/>
       <use xlink:href="#DejaVuSans-39" transform="translate(222.65625 0)"/>
      </g>
     </g>
    </g>
    <g id="text_9">
     <!-- Lag (mm) -->
     <g transform="translate(634.657969 224.815156) scale(0.26 -0.26)">
      <defs>
       <path id="DejaVuSans-4c" d="M 628 4666 
L 1259 4666 
L 1259 531 
L 3531 531 
L 3531 0 
L 628 0 
L 628 4666 
z
" transform="scale(0.015625)"/>
      </defs>
      <use xlink:href="#DejaVuSans-4c"/>
      <use xlink:href="#DejaVuSans-61" transform="translate(55.712891 0)"/>
      <use xlink:href="#DejaVuSans-67" transform="translate(116.992188 0)"/>
      <use xlink:href="#DejaVuSans-20" transform="translate(180.46875 0)"/>
      <use xlink:href="#DejaVuSans-28" transform="translate(212.255859 0)"/>
      <use xlink:href="#DejaVuSans-6d" transform="translate(251.269531 0)"/>
      <use xlink:href="#DejaVuSans-6d" transform="translate(348.681641 0)"/>
      <use xlink:href="#DejaVuSans-29" transform="translate(446.09375 0)"/>
     </g>
    </g>
   </g>
   <g id="matplotlib.axis_4">
    <g id="ytick_3">
     <g id="line2d_14">
      <path d="M 528.497187 194.138594 
L 866.947187 194.138594 
" clip-path="url(#p0845538592)" style="fill: none; stroke: #b0b0b0; stroke-opacity: 0.25; stroke-width: 0.7; stroke-linecap: square"/>
     </g>
     <g id="line2d_15">
      <g>
       <use xlink:href="#m59756d3771" x="528.497187" y="194.138594" style="stroke: #000000; stroke-width: 0.8"/>
      </g>
     </g>
     <g id="text_10">
      <!-- -1.00 -->
      <g transform="translate(468.425 200.977187) scale(0.18 -0.18)">
       <use xlink:href="#DejaVuSans-2d"/>
       <use xlink:href="#DejaVuSans-31" transform="translate(36.083984 0)"/>
       <use xlink:href="#DejaVuSans-2e" transform="translate(99.707031 0)"/>
       <use xlink:href="#DejaVuSans-30" transform="translate(131.494141 0)"/>
       <use xlink:href="#DejaVuSans-30" transform="translate(195.117188 0)"/>
      </g>
     </g>
    </g>
    <g id="ytick_4">
     <g id="line2d_16">
      <path d="M 528.497187 6.838594 
L 866.947187 6.838594 
" clip-path="url(#p0845538592)" style="fill: none; stroke: #b0b0b0; stroke-opacity: 0.25; stroke-width: 0.7; stroke-linecap: square"/>
     </g>
     <g id="line2d_17">
      <g>
       <use xlink:href="#m59756d3771" x="528.497187" y="6.838594" style="stroke: #000000; stroke-width: 0.8"/>
      </g>
     </g>
     <g id="text_11">
      <!-- 1.00 -->
      <g transform="translate(474.919062 13.677188) scale(0.18 -0.18)">
       <use xlink:href="#DejaVuSans-31"/>
       <use xlink:href="#DejaVuSans-2e" transform="translate(63.623047 0)"/>
       <use xlink:href="#DejaVuSans-30" transform="translate(95.410156 0)"/>
       <use xlink:href="#DejaVuSans-30" transform="translate(159.033203 0)"/>
      </g>
     </g>
    </g>
    <g id="text_12">
     <!-- $C(\ell)$ -->
     <g transform="translate(503.017812 125.188594) rotate(-90) scale(0.26 -0.26)">
      <defs>
       <path id="DejaVuSans-Oblique-43" d="M 4447 4306 
L 4319 3641 
Q 4019 3944 3683 4091 
Q 3347 4238 2956 4238 
Q 2422 4238 2017 3981 
Q 1613 3725 1319 3200 
Q 1131 2863 1032 2486 
Q 934 2109 934 1728 
Q 934 1091 1264 756 
Q 1594 422 2222 422 
Q 2656 422 3056 561 
Q 3456 700 3834 978 
L 3688 231 
Q 3316 72 2936 -9 
Q 2556 -91 2175 -91 
Q 1278 -91 773 396 
Q 269 884 269 1753 
Q 269 2309 461 2846 
Q 653 3384 1013 3828 
Q 1394 4300 1883 4525 
Q 2372 4750 3022 4750 
Q 3422 4750 3780 4639 
Q 4138 4528 4447 4306 
z
" transform="scale(0.015625)"/>
       <path id="DejaVuSans-Oblique-2113" d="M 950 838 
Q 1078 213 1350 213 
Q 1531 213 1766 572 
L 2181 572 
Q 1994 253 1775 88 
Q 1538 -91 1319 -91 
Q 831 -91 634 344 
L 400 0 
L -88 0 
Q 250 459 500 888 
Q 469 1131 469 1397 
Q 469 1872 566 2347 
Q 931 4131 1256 4497 
Q 1481 4750 1866 4750 
Q 2256 4750 2256 4209 
Q 2253 3966 2197 3675 
Q 1972 2484 950 838 
z
M 947 1656 
Q 1531 2744 1709 3613 
Q 1803 4072 1803 4191 
Q 1803 4406 1725 4406 
Q 1384 4134 1081 2516 
Q 997 2063 947 1656 
z
" transform="scale(0.015625)"/>
      </defs>
      <use xlink:href="#DejaVuSans-Oblique-43" transform="translate(0 0.125)"/>
      <use xlink:href="#DejaVuSans-28" transform="translate(69.824219 0.125)"/>
      <use xlink:href="#DejaVuSans-Oblique-2113" transform="translate(108.837891 0.125)"/>
      <use xlink:href="#DejaVuSans-29" transform="translate(150.146484 0.125)"/>
     </g>
    </g>
   </g>
   <g id="line2d_18">
    <path d="M 528.497187 6.838594 
L 532.175992 16.645249 
L 535.854796 33.335484 
L 539.533601 54.302069 
L 543.212405 71.20683 
L 546.891209 81.301126 
L 550.570014 85.774705 
L 554.248818 88.079639 
L 557.927622 88.798954 
L 561.606427 90.041777 
L 565.285231 92.338898 
L 568.964035 90.994697 
L 572.64284 87.954757 
L 576.321644 81.933255 
L 580.000448 76.642773 
L 583.679253 73.081234 
L 587.358057 74.718237 
L 591.036861 79.424031 
L 594.715666 87.439746 
L 598.39447 94.404118 
L 602.073274 98.12744 
L 605.752079 98.966011 
L 609.430883 98.165052 
L 613.109687 98.257749 
L 616.788492 101.114728 
L 620.467296 105.624885 
L 624.146101 110.600497 
L 627.824905 112.992848 
L 631.503709 114.034537 
L 635.182514 113.102482 
L 638.861318 111.824213 
L 642.540122 110.584908 
L 646.218927 108.747164 
L 649.897731 107.42653 
L 653.576535 107.258136 
L 657.25534 106.467322 
L 660.934144 106.098721 
L 664.612948 105.214519 
L 668.291753 105.076709 
L 671.970557 104.554955 
L 675.649361 103.327929 
L 679.328166 102.578126 
L 683.00697 100.352002 
L 686.685774 98.511019 
L 690.364579 95.578016 
L 694.043383 94.506183 
L 697.722187 93.737492 
L 701.400992 95.806157 
L 705.079796 98.042059 
L 708.758601 102.243383 
L 712.437405 106.62292 
L 716.116209 111.705195 
L 719.795014 115.891495 
L 723.473818 120.82182 
L 727.152622 125.710194 
L 730.831427 132.672094 
L 734.510231 140.678248 
L 738.189035 145.167095 
L 741.86784 147.091812 
L 745.546644 143.8418 
L 749.225448 140.13394 
L 752.904253 136.588329 
L 756.583057 136.063132 
L 760.261861 138.376555 
L 763.940666 142.036073 
L 767.61947 147.176828 
L 771.298274 150.95407 
L 774.977079 150.105455 
L 778.655883 149.663439 
L 782.334687 151.518335 
L 786.013492 156.164113 
L 789.692296 164.715849 
L 793.371101 173.191987 
L 797.049905 176.44734 
L 800.728709 176.373217 
L 804.407514 165.888197 
L 808.086318 152.672519 
L 811.765122 142.20179 
L 815.443927 141.387912 
L 819.122731 141.987971 
L 822.801535 148.573936 
L 826.48034 146.622473 
L 830.159144 133.783477 
L 833.837948 119.908797 
L 837.516753 95.623623 
L 841.195557 85.599344 
L 844.874361 82.372724 
L 848.553166 82.94323 
L 852.23197 83.479153 
L 855.910774 85.798949 
L 859.589579 76.871956 
L 863.268383 82.724987 
L 866.947187 86.337223 
" clip-path="url(#p0845538592)" style="fill: none; stroke: #cba810; stroke-width: 2; stroke-linecap: square"/>
   </g>
   <g id="line2d_19">
    <path d="M 528.497187 100.488594 
L 866.947187 100.488594 
" clip-path="url(#p0845538592)" style="fill: none; stroke-dasharray: 2.96,1.28; stroke-dashoffset: 0; stroke: #000000; stroke-opacity: 0.6; stroke-width: 0.8"/>
   </g>
   <g id="line2d_20">
    <path d="M 583.679253 194.138594 
L 583.679253 6.838594 
" clip-path="url(#p0845538592)" style="fill: none; stroke-dasharray: 1,1.65; stroke-dashoffset: 0; stroke: #666666; stroke-opacity: 0.9"/>
   </g>
   <g id="patch_8">
    <path d="M 528.497187 194.138594 
L 528.497187 6.838594 
" style="fill: none; stroke: #000000; stroke-width: 0.9; stroke-linejoin: miter; stroke-linecap: square"/>
   </g>
   <g id="patch_9">
    <path d="M 866.947187 194.138594 
L 866.947187 6.838594 
" style="fill: none; stroke: #000000; stroke-width: 0.9; stroke-linejoin: miter; stroke-linecap: square"/>
   </g>
   <g id="patch_10">
    <path d="M 528.497187 194.138594 
L 866.947187 194.138594 
" style="fill: none; stroke: #000000; stroke-width: 0.9; stroke-linejoin: miter; stroke-linecap: square"/>
   </g>
   <g id="patch_11">
    <path d="M 528.497187 6.838594 
L 866.947187 6.838594 
" style="fill: none; stroke: #000000; stroke-width: 0.9; stroke-linejoin: miter; stroke-linecap: square"/>
   </g>
   <g id="LineCollection_1">
    <path d="M 575.330289 73.081234 
L 592.028217 73.081234 
" clip-path="url(#p0845538592)" style="fill: none; stroke: #666666; stroke-width: 1.4"/>
   </g>
   <g id="line2d_21">
    <defs>
     <path id="me604347349" d="M 0 3 
L 0 -3 
" style="stroke: #666666"/>
    </defs>
    <g clip-path="url(#p0845538592)">
     <use xlink:href="#me604347349" x="575.330289" y="73.081234" style="fill: #cba810; stroke: #666666"/>
    </g>
   </g>
   <g id="line2d_22">
    <g clip-path="url(#p0845538592)">
     <use xlink:href="#me604347349" x="592.028217" y="73.081234" style="fill: #cba810; stroke: #666666"/>
    </g>
   </g>
   <g id="line2d_23">
    <defs>
     <path id="m21baa51d1c" d="M 0 3.5 
C 0.928211 3.5 1.81853 3.131218 2.474874 2.474874 
C 3.131218 1.81853 3.5 0.928211 3.5 0 
C 3.5 -0.928211 3.131218 -1.81853 2.474874 -2.474874 
C 1.81853 -3.131218 0.928211 -3.5 0 -3.5 
C -0.928211 -3.5 -1.81853 -3.131218 -2.474874 -2.474874 
C -3.131218 -1.81853 -3.5 -0.928211 -3.5 0 
C -3.5 0.928211 -3.131218 1.81853 -2.474874 2.474874 
C -1.81853 3.131218 -0.928211 3.5 0 3.5 
z
" style="stroke: #cba810"/>
    </defs>
    <g clip-path="url(#p0845538592)">
     <use xlink:href="#m21baa51d1c" x="583.679253" y="73.081234" style="fill: #cba810; stroke: #cba810"/>
    </g>
   </g>
  </g>
 </g>
 <defs>
  <clipPath id="p9756372ea5">
   <rect x="60.072187" y="6.838594" width="338.45" height="187.3"/>
  </clipPath>
  <clipPath id="p0845538592">
   <rect x="528.497187" y="6.838594" width="338.45" height="187.3"/>
  </clipPath>
 </defs>
</svg>
