<?xml version="1.0" encoding="utf-8" standalone="no"?>
<!DOCTYPE svg PUBLIC "-//W3C//DTD SVG 1.1//EN"
  "http://www.w3.org/Graphics/SVG/1.1/DTD/svg11.dtd">
<svg xmlns:xlink="http://www.w3.org/1999/xlink" width="892.7125pt" height="228.679219pt" viewBox="0 0 892.7125 228.679219" xmlns="http://www.w3.org/2000/svg" version="1.1">
 <metadata>
  <rdf:RDF xmlns:dc="http://purl.org/dc/elements/1.1/" xmlns:cc="http://creativecommons.org/ns#" xmlns:rdf="http://www.w3.org/1999/02/22-rdf-syntax-ns#">
   <cc:Work>
    <dc:type rdf:resource="http://purl.org/dc/dcmitype/StillImage"/>
    <dc:date>2026-04-26T17:27:21.240739</dc:date>
    <dc:format>image/svg+xml</dc:format>
    <dc:creator>
     <cc:Agent>
      <dc:title>Matplotlib v3.10.8, https://matplotlib.org/</dc:title>
     </cc:Agent>
    </dc:creator>
   </cc:Work>
  </rdf:RDF>
 </metadata>
 <defs>
  <style type="text/css">*{stroke-linejoin: round; stroke-linecap: butt}</style>
 </defs>
 <g id="figure_1">
  <g id="patch_1">
   <path d="M 0 228.679219 
L 892.7125 228.679219 
L 892.7125 0 
L 0 0 
L 0 228.679219 
z
" style="fill: none; opacity: 0"/>
  </g>
  <g id="axes_1">
   <g id="patch_2">
    <path d="M 60.072187 192.538594 
L 398.534687 192.538594 
L 398.534687 6.838594 
L 60.072187 6.838594 
L 60.072187 192.538594 
z
" style="fill: none"/>
   </g>
   <g id="matplotlib.axis_1">
    <g id="xtick_1">
     <g id="line2d_1">
      <path d="M 60.072187 192.538594 
L 60.072187 6.838594 
" clip-path="url(#p8588d57716)" style="fill: none; stroke: #b0b0b0; stroke-opacity: 0.25; stroke-width: 0.7; stroke-linecap: square"/>
     </g>
     <g id="line2d_2">
      <defs>
       <path id="m3bb28c92d6" d="M 0 0 
L 0 3.5 
" style="stroke: #000000; stroke-width: 0.8"/>
      </defs>
      <g>
       <use xlink:href="#m3bb28c92d6" x="60.072187" y="192.538594" style="stroke: #000000; stroke-width: 0.8"/>
      </g>
     </g>
     <g id="text_1">
      <!-- 0.00 -->
      <g transform="translate(40.033125 219.715781) scale(0.18 -0.18)">
       <defs>
        <path id="DejaVuSans-30" d="M 2034 4250 
Q 1547 4250 1301 3770 
Q 1056 3291 1056 2328 
Q 1056 1369 1301 889 
Q 1547 409 2034 409 
Q 2525 409 2770 889 
Q 3016 1369 3016 2328 
Q 3016 3291 2770 3770 
Q 2525 4250 2034 4250 
z
M 2034 4750 
Q 2819 4750 3233 4129 
Q 3647 3509 3647 2328 
Q 3647 1150 3233 529 
Q 2819 -91 2034 -91 
Q 1250 -91 836 529 
Q 422 1150 422 2328 
Q 422 3509 836 4129 
Q 1250 4750 2034 4750 
z
" transform="scale(0.015625)"/>
        <path id="DejaVuSans-2e" d="M 684 794 
L 1344 794 
L 1344 0 
L 684 0 
L 684 794 
z
" transform="scale(0.015625)"/>
       </defs>
       <use xlink:href="#DejaVuSans-30"/>
       <use xlink:href="#DejaVuSans-2e" transform="translate(63.623047 0)"/>
       <use xlink:href="#DejaVuSans-30" transform="translate(95.410156 0)"/>
       <use xlink:href="#DejaVuSans-30" transform="translate(159.033203 0)"/>
      </g>
     </g>
    </g>
    <g id="xtick_2">
     <g id="line2d_3">
      <path d="M 398.534687 192.538594 
L 398.534687 6.838594 
" clip-path="url(#p8588d57716)" style="fill: none; stroke: #b0b0b0; stroke-opacity: 0.25; stroke-width: 0.7; stroke-linecap: square"/>
     </g>
     <g id="line2d_4">
      <g>
       <use xlink:href="#m3bb28c92d6" x="398.534687" y="192.538594" style="stroke: #000000; stroke-width: 0.8"/>
      </g>
     </g>
     <g id="text_2">
      <!-- 68.31 -->
      <g transform="translate(372.769375 219.715781) scale(0.18 -0.18)">
       <defs>
        <path id="DejaVuSans-36" d="M 2113 2584 
Q 1688 2584 1439 2293 
Q 1191 2003 1191 1497 
Q 1191 994 1439 701 
Q 1688 409 2113 409 
Q 2538 409 2786 701 
Q 3034 994 3034 1497 
Q 3034 2003 2786 2293 
Q 2538 2584 2113 2584 
z
M 3366 4563 
L 3366 3988 
Q 3128 4100 2886 4159 
Q 2644 4219 2406 4219 
Q 1781 4219 1451 3797 
Q 1122 3375 1075 2522 
Q 1259 2794 1537 2939 
Q 1816 3084 2150 3084 
Q 2853 3084 3261 2657 
Q 3669 2231 3669 1497 
Q 3669 778 3244 343 
Q 2819 -91 2113 -91 
Q 1303 -91 875 529 
Q 447 1150 447 2328 
Q 447 3434 972 4092 
Q 1497 4750 2381 4750 
Q 2619 4750 2861 4703 
Q 3103 4656 3366 4563 
z
" transform="scale(0.015625)"/>
        <path id="DejaVuSans-38" d="M 2034 2216 
Q 1584 2216 1326 1975 
Q 1069 1734 1069 1313 
Q 1069 891 1326 650 
Q 1584 409 2034 409 
Q 2484 409 2743 651 
Q 3003 894 3003 1313 
Q 3003 1734 2745 1975 
Q 2488 2216 2034 2216 
z
M 1403 2484 
Q 997 2584 770 2862 
Q 544 3141 544 3541 
Q 544 4100 942 4425 
Q 1341 4750 2034 4750 
Q 2731 4750 3128 4425 
Q 3525 4100 3525 3541 
Q 3525 3141 3298 2862 
Q 3072 2584 2669 2484 
Q 3125 2378 3379 2068 
Q 3634 1759 3634 1313 
Q 3634 634 3220 271 
Q 2806 -91 2034 -91 
Q 1263 -91 848 271 
Q 434 634 434 1313 
Q 434 1759 690 2068 
Q 947 2378 1403 2484 
z
M 1172 3481 
Q 1172 3119 1398 2916 
Q 1625 2713 2034 2713 
Q 2441 2713 2670 2916 
Q 2900 3119 2900 3481 
Q 2900 3844 2670 4047 
Q 2441 4250 2034 4250 
Q 1625 4250 1398 4047 
Q 1172 3844 1172 3481 
z
" transform="scale(0.015625)"/>
        <path id="DejaVuSans-33" d="M 2597 2516 
Q 3050 2419 3304 2112 
Q 3559 1806 3559 1356 
Q 3559 666 3084 287 
Q 2609 -91 1734 -91 
Q 1441 -91 1130 -33 
Q 819 25 488 141 
L 488 750 
Q 750 597 1062 519 
Q 1375 441 1716 441 
Q 2309 441 2620 675 
Q 2931 909 2931 1356 
Q 2931 1769 2642 2001 
Q 2353 2234 1838 2234 
L 1294 2234 
L 1294 2753 
L 1863 2753 
Q 2328 2753 2575 2939 
Q 2822 3125 2822 3475 
Q 2822 3834 2567 4026 
Q 2313 4219 1838 4219 
Q 1578 4219 1281 4162 
Q 984 4106 628 3988 
L 628 4550 
Q 988 4650 1302 4700 
Q 1616 4750 1894 4750 
Q 2613 4750 3031 4423 
Q 3450 4097 3450 3541 
Q 3450 3153 3228 2886 
Q 3006 2619 2597 2516 
z
" transform="scale(0.015625)"/>
        <path id="DejaVuSans-31" d="M 794 531 
L 1825 531 
L 1825 4091 
L 703 3866 
L 703 4441 
L 1819 4666 
L 2450 4666 
L 2450 531 
L 3481 531 
L 3481 0 
L 794 0 
L 794 531 
z
" transform="scale(0.015625)"/>
       </defs>
       <use xlink:href="#DejaVuSans-36"/>
       <use xlink:href="#DejaVuSans-38" transform="translate(63.623047 0)"/>
       <use xlink:href="#DejaVuSans-2e" transform="translate(127.246094 0)"/>
       <use xlink:href="#DejaVuSans-33" transform="translate(159.033203 0)"/>
       <use xlink:href="#DejaVuSans-31" transform="translate(222.65625 0)"/>
      </g>
     </g>
    </g>
    <g id="text_3">
     <!-- Arc length $r$ [mm] -->
     <g transform="translate(113.213437 223.219219) scale(0.26 -0.26)">
      <defs>
       <path id="DejaVuSans-41" d="M 2188 4044 
L 1331 1722 
L 3047 1722 
L 2188 4044 
z
M 1831 4666 
L 2547 4666 
L 4325 0 
L 3669 0 
L 3244 1197 
L 1141 1197 
L 716 0 
L 50 0 
L 1831 4666 
z
" transform="scale(0.015625)"/>
       <path id="DejaVuSans-72" d="M 2631 2963 
Q 2534 3019 2420 3045 
Q 2306 3072 2169 3072 
Q 1681 3072 1420 2755 
Q 1159 2438 1159 1844 
L 1159 0 
L 581 0 
L 581 3500 
L 1159 3500 
L 1159 2956 
Q 1341 3275 1631 3429 
Q 1922 3584 2338 3584 
Q 2397 3584 2469 3576 
Q 2541 3569 2628 3553 
L 2631 2963 
z
" transform="scale(0.015625)"/>
       <path id="DejaVuSans-63" d="M 3122 3366 
L 3122 2828 
Q 2878 2963 2633 3030 
Q 2388 3097 2138 3097 
Q 1578 3097 1268 2742 
Q 959 2388 959 1747 
Q 959 1106 1268 751 
Q 1578 397 2138 397 
Q 2388 397 2633 464 
Q 2878 531 3122 666 
L 3122 134 
Q 2881 22 2623 -34 
Q 2366 -91 2075 -91 
Q 1284 -91 818 406 
Q 353 903 353 1747 
Q 353 2603 823 3093 
Q 1294 3584 2113 3584 
Q 2378 3584 2631 3529 
Q 2884 3475 3122 3366 
z
" transform="scale(0.015625)"/>
       <path id="DejaVuSans-20" transform="scale(0.015625)"/>
       <path id="DejaVuSans-6c" d="M 603 4863 
L 1178 4863 
L 1178 0 
L 603 0 
L 603 4863 
z
" transform="scale(0.015625)"/>
       <path id="DejaVuSans-65" d="M 3597 1894 
L 3597 1613 
L 953 1613 
Q 991 1019 1311 708 
Q 1631 397 2203 397 
Q 2534 397 2845 478 
Q 3156 559 3463 722 
L 3463 178 
Q 3153 47 2828 -22 
Q 2503 -91 2169 -91 
Q 1331 -91 842 396 
Q 353 884 353 1716 
Q 353 2575 817 3079 
Q 1281 3584 2069 3584 
Q 2775 3584 3186 3129 
Q 3597 2675 3597 1894 
z
M 3022 2063 
Q 3016 2534 2758 2815 
Q 2500 3097 2075 3097 
Q 1594 3097 1305 2825 
Q 1016 2553 972 2059 
L 3022 2063 
z
" transform="scale(0.015625)"/>
       <path id="DejaVuSans-6e" d="M 3513 2113 
L 3513 0 
L 2938 0 
L 2938 2094 
Q 2938 2591 2744 2837 
Q 2550 3084 2163 3084 
Q 1697 3084 1428 2787 
Q 1159 2491 1159 1978 
L 1159 0 
L 581 0 
L 581 3500 
L 1159 3500 
L 1159 2956 
Q 1366 3272 1645 3428 
Q 1925 3584 2291 3584 
Q 2894 3584 3203 3211 
Q 3513 2838 3513 2113 
z
" transform="scale(0.015625)"/>
       <path id="DejaVuSans-67" d="M 2906 1791 
Q 2906 2416 2648 2759 
Q 2391 3103 1925 3103 
Q 1463 3103 1205 2759 
Q 947 2416 947 1791 
Q 947 1169 1205 825 
Q 1463 481 1925 481 
Q 2391 481 2648 825 
Q 2906 1169 2906 1791 
z
M 3481 434 
Q 3481 -459 3084 -895 
Q 2688 -1331 1869 -1331 
Q 1566 -1331 1297 -1286 
Q 1028 -1241 775 -1147 
L 775 -588 
Q 1028 -725 1275 -790 
Q 1522 -856 1778 -856 
Q 2344 -856 2625 -561 
Q 2906 -266 2906 331 
L 2906 616 
Q 2728 306 2450 153 
Q 2172 0 1784 0 
Q 1141 0 747 490 
Q 353 981 353 1791 
Q 353 2603 747 3093 
Q 1141 3584 1784 3584 
Q 2172 3584 2450 3431 
Q 2728 3278 2906 2969 
L 2906 3500 
L 3481 3500 
L 3481 434 
z
" transform="scale(0.015625)"/>
       <path id="DejaVuSans-74" d="M 1172 4494 
L 1172 3500 
L 2356 3500 
L 2356 3053 
L 1172 3053 
L 1172 1153 
Q 1172 725 1289 603 
Q 1406 481 1766 481 
L 2356 481 
L 2356 0 
L 1766 0 
Q 1100 0 847 248 
Q 594 497 594 1153 
L 594 3053 
L 172 3053 
L 172 3500 
L 594 3500 
L 594 4494 
L 1172 4494 
z
" transform="scale(0.015625)"/>
       <path id="DejaVuSans-68" d="M 3513 2113 
L 3513 0 
L 2938 0 
L 2938 2094 
Q 2938 2591 2744 2837 
Q 2550 3084 2163 3084 
Q 1697 3084 1428 2787 
Q 1159 2491 1159 1978 
L 1159 0 
L 581 0 
L 581 4863 
L 1159 4863 
L 1159 2956 
Q 1366 3272 1645 3428 
Q 1925 3584 2291 3584 
Q 2894 3584 3203 3211 
Q 3513 2838 3513 2113 
z
" transform="scale(0.015625)"/>
       <path id="DejaVuSans-Oblique-72" d="M 2853 2969 
Q 2766 3016 2653 3041 
Q 2541 3066 2413 3066 
Q 1953 3066 1609 2717 
Q 1266 2369 1153 1784 
L 800 0 
L 225 0 
L 909 3500 
L 1484 3500 
L 1375 2956 
Q 1603 3259 1920 3421 
Q 2238 3584 2597 3584 
Q 2691 3584 2781 3573 
Q 2872 3563 2963 3538 
L 2853 2969 
z
" transform="scale(0.015625)"/>
       <path id="DejaVuSans-5b" d="M 550 4863 
L 1875 4863 
L 1875 4416 
L 1125 4416 
L 1125 -397 
L 1875 -397 
L 1875 -844 
L 550 -844 
L 550 4863 
z
" transform="scale(0.015625)"/>
       <path id="DejaVuSans-6d" d="M 3328 2828 
Q 3544 3216 3844 3400 
Q 4144 3584 4550 3584 
Q 5097 3584 5394 3201 
Q 5691 2819 5691 2113 
L 5691 0 
L 5113 0 
L 5113 2094 
Q 5113 2597 4934 2840 
Q 4756 3084 4391 3084 
Q 3944 3084 3684 2787 
Q 3425 2491 3425 1978 
L 3425 0 
L 2847 0 
L 2847 2094 
Q 2847 2600 2669 2842 
Q 2491 3084 2119 3084 
Q 1678 3084 1418 2786 
Q 1159 2488 1159 1978 
L 1159 0 
L 581 0 
L 581 3500 
L 1159 3500 
L 1159 2956 
Q 1356 3278 1631 3431 
Q 1906 3584 2284 3584 
Q 2666 3584 2933 3390 
Q 3200 3197 3328 2828 
z
" transform="scale(0.015625)"/>
       <path id="DejaVuSans-5d" d="M 1947 4863 
L 1947 -844 
L 622 -844 
L 622 -397 
L 1369 -397 
L 1369 4416 
L 622 4416 
L 622 4863 
L 1947 4863 
z
" transform="scale(0.015625)"/>
      </defs>
      <use xlink:href="#DejaVuSans-41" transform="translate(0 0.015625)"/>
      <use xlink:href="#DejaVuSans-72" transform="translate(68.408203 0.015625)"/>
      <use xlink:href="#DejaVuSans-63" transform="translate(109.521484 0.015625)"/>
      <use xlink:href="#DejaVuSans-20" transform="translate(164.501953 0.015625)"/>
      <use xlink:href="#DejaVuSans-6c" transform="translate(196.289062 0.015625)"/>
      <use xlink:href="#DejaVuSans-65" transform="translate(224.072266 0.015625)"/>
      <use xlink:href="#DejaVuSans-6e" transform="translate(285.595703 0.015625)"/>
      <use xlink:href="#DejaVuSans-67" transform="translate(348.974609 0.015625)"/>
      <use xlink:href="#DejaVuSans-74" transform="translate(412.451172 0.015625)"/>
      <use xlink:href="#DejaVuSans-68" transform="translate(451.660156 0.015625)"/>
      <use xlink:href="#DejaVuSans-20" transform="translate(515.039062 0.015625)"/>
      <use xlink:href="#DejaVuSans-Oblique-72" transform="translate(546.826172 0.015625)"/>
      <use xlink:href="#DejaVuSans-20" transform="translate(587.939453 0.015625)"/>
      <use xlink:href="#DejaVuSans-5b" transform="translate(619.726562 0.015625)"/>
      <use xlink:href="#DejaVuSans-6d" transform="translate(658.740234 0.015625)"/>
      <use xlink:href="#DejaVuSans-6d" transform="translate(756.152344 0.015625)"/>
      <use xlink:href="#DejaVuSans-5d" transform="translate(853.564453 0.015625)"/>
     </g>
    </g>
   </g>
   <g id="matplotlib.axis_2">
    <g id="ytick_1">
     <g id="line2d_5">
      <path d="M 60.072187 192.538594 
L 398.534687 192.538594 
" clip-path="url(#p8588d57716)" style="fill: none; stroke: #b0b0b0; stroke-opacity: 0.25; stroke-width: 0.7; stroke-linecap: square"/>
     </g>
     <g id="line2d_6">
      <defs>
       <path id="mff484a9458" d="M 0 0 
L -3.5 0 
" style="stroke: #000000; stroke-width: 0.8"/>
      </defs>
      <g>
       <use xlink:href="#mff484a9458" x="60.072187" y="192.538594" style="stroke: #000000; stroke-width: 0.8"/>
      </g>
     </g>
     <g id="text_4">
      <!-- -0.42 -->
      <g transform="translate(0 199.377187) scale(0.18 -0.18)">
       <defs>
        <path id="DejaVuSans-2d" d="M 313 2009 
L 1997 2009 
L 1997 1497 
L 313 1497 
L 313 2009 
z
" transform="scale(0.015625)"/>
        <path id="DejaVuSans-34" d="M 2419 4116 
L 825 1625 
L 2419 1625 
L 2419 4116 
z
M 2253 4666 
L 3047 4666 
L 3047 1625 
L 3713 1625 
L 3713 1100 
L 3047 1100 
L 3047 0 
L 2419 0 
L 2419 1100 
L 313 1100 
L 313 1709 
L 2253 4666 
z
" transform="scale(0.015625)"/>
        <path id="DejaVuSans-32" d="M 1228 531 
L 3431 531 
L 3431 0 
L 469 0 
L 469 531 
Q 828 903 1448 1529 
Q 2069 2156 2228 2338 
Q 2531 2678 2651 2914 
Q 2772 3150 2772 3378 
Q 2772 3750 2511 3984 
Q 2250 4219 1831 4219 
Q 1534 4219 1204 4116 
Q 875 4013 500 3803 
L 500 4441 
Q 881 4594 1212 4672 
Q 1544 4750 1819 4750 
Q 2544 4750 2975 4387 
Q 3406 4025 3406 3419 
Q 3406 3131 3298 2873 
Q 3191 2616 2906 2266 
Q 2828 2175 2409 1742 
Q 1991 1309 1228 531 
z
" transform="scale(0.015625)"/>
       </defs>
       <use xlink:href="#DejaVuSans-2d"/>
       <use xlink:href="#DejaVuSans-30" transform="translate(36.083984 0)"/>
       <use xlink:href="#DejaVuSans-2e" transform="translate(99.707031 0)"/>
       <use xlink:href="#DejaVuSans-34" transform="translate(131.494141 0)"/>
       <use xlink:href="#DejaVuSans-32" transform="translate(195.117188 0)"/>
      </g>
     </g>
    </g>
    <g id="ytick_2">
     <g id="line2d_7">
      <path d="M 60.072187 6.838594 
L 398.534687 6.838594 
" clip-path="url(#p8588d57716)" style="fill: none; stroke: #b0b0b0; stroke-opacity: 0.25; stroke-width: 0.7; stroke-linecap: square"/>
     </g>
     <g id="line2d_8">
      <g>
       <use xlink:href="#mff484a9458" x="60.072187" y="6.838594" style="stroke: #000000; stroke-width: 0.8"/>
      </g>
     </g>
     <g id="text_5">
      <!-- 0.79 -->
      <g transform="translate(6.494062 13.677188) scale(0.18 -0.18)">
       <defs>
        <path id="DejaVuSans-37" d="M 525 4666 
L 3525 4666 
L 3525 4397 
L 1831 0 
L 1172 0 
L 2766 4134 
L 525 4134 
L 525 4666 
z
" transform="scale(0.015625)"/>
        <path id="DejaVuSans-39" d="M 703 97 
L 703 672 
Q 941 559 1184 500 
Q 1428 441 1663 441 
Q 2288 441 2617 861 
Q 2947 1281 2994 2138 
Q 2813 1869 2534 1725 
Q 2256 1581 1919 1581 
Q 1219 1581 811 2004 
Q 403 2428 403 3163 
Q 403 3881 828 4315 
Q 1253 4750 1959 4750 
Q 2769 4750 3195 4129 
Q 3622 3509 3622 2328 
Q 3622 1225 3098 567 
Q 2575 -91 1691 -91 
Q 1453 -91 1209 -44 
Q 966 3 703 97 
z
M 1959 2075 
Q 2384 2075 2632 2365 
Q 2881 2656 2881 3163 
Q 2881 3666 2632 3958 
Q 2384 4250 1959 4250 
Q 1534 4250 1286 3958 
Q 1038 3666 1038 3163 
Q 1038 2656 1286 2365 
Q 1534 2075 1959 2075 
z
" transform="scale(0.015625)"/>
       </defs>
       <use xlink:href="#DejaVuSans-30"/>
       <use xlink:href="#DejaVuSans-2e" transform="translate(63.623047 0)"/>
       <use xlink:href="#DejaVuSans-37" transform="translate(95.410156 0)"/>
       <use xlink:href="#DejaVuSans-39" transform="translate(159.033203 0)"/>
      </g>
     </g>
    </g>
    <g id="text_6">
     <!-- $\theta(r)$ [rad] -->
     <g transform="translate(34.592812 159.098594) rotate(-90) scale(0.26 -0.26)">
      <defs>
       <path id="DejaVuSans-Oblique-3b8" d="M 2913 2219 
L 925 2219 
Q 791 1284 928 888 
Q 1100 400 1566 400 
Q 2034 400 2391 891 
Q 2703 1322 2913 2219 
z
M 3009 2750 
Q 3094 3638 2984 3950 
Q 2813 4444 2353 4444 
Q 1875 4444 1525 3956 
Q 1250 3563 1034 2750 
L 3009 2750 
z
M 2444 4913 
Q 3194 4913 3494 4250 
Q 3794 3591 3566 2422 
Q 3341 1256 2781 594 
Q 2225 -72 1475 -72 
Q 722 -72 425 594 
Q 128 1256 353 2422 
Q 581 3591 1134 4250 
Q 1691 4913 2444 4913 
z
" transform="scale(0.015625)"/>
       <path id="DejaVuSans-28" d="M 1984 4856 
Q 1566 4138 1362 3434 
Q 1159 2731 1159 2009 
Q 1159 1288 1364 580 
Q 1569 -128 1984 -844 
L 1484 -844 
Q 1016 -109 783 600 
Q 550 1309 550 2009 
Q 550 2706 781 3412 
Q 1013 4119 1484 4856 
L 1984 4856 
z
" transform="scale(0.015625)"/>
       <path id="DejaVuSans-29" d="M 513 4856 
L 1013 4856 
Q 1481 4119 1714 3412 
Q 1947 2706 1947 2009 
Q 1947 1309 1714 600 
Q 1481 -109 1013 -844 
L 513 -844 
Q 928 -128 1133 580 
Q 1338 1288 1338 2009 
Q 1338 2731 1133 3434 
Q 928 4138 513 4856 
z
" transform="scale(0.015625)"/>
       <path id="DejaVuSans-61" d="M 2194 1759 
Q 1497 1759 1228 1600 
Q 959 1441 959 1056 
Q 959 750 1161 570 
Q 1363 391 1709 391 
Q 2188 391 2477 730 
Q 2766 1069 2766 1631 
L 2766 1759 
L 2194 1759 
z
M 3341 1997 
L 3341 0 
L 2766 0 
L 2766 531 
Q 2569 213 2275 61 
Q 1981 -91 1556 -91 
Q 1019 -91 701 211 
Q 384 513 384 1019 
Q 384 1609 779 1909 
Q 1175 2209 1959 2209 
L 2766 2209 
L 2766 2266 
Q 2766 2663 2505 2880 
Q 2244 3097 1772 3097 
Q 1472 3097 1187 3025 
Q 903 2953 641 2809 
L 641 3341 
Q 956 3463 1253 3523 
Q 1550 3584 1831 3584 
Q 2591 3584 2966 3190 
Q 3341 2797 3341 1997 
z
" transform="scale(0.015625)"/>
       <path id="DejaVuSans-64" d="M 2906 2969 
L 2906 4863 
L 3481 4863 
L 3481 0 
L 2906 0 
L 2906 525 
Q 2725 213 2448 61 
Q 2172 -91 1784 -91 
Q 1150 -91 751 415 
Q 353 922 353 1747 
Q 353 2572 751 3078 
Q 1150 3584 1784 3584 
Q 2172 3584 2448 3432 
Q 2725 3281 2906 2969 
z
M 947 1747 
Q 947 1113 1208 752 
Q 1469 391 1925 391 
Q 2381 391 2643 752 
Q 2906 1113 2906 1747 
Q 2906 2381 2643 2742 
Q 2381 3103 1925 3103 
Q 1469 3103 1208 2742 
Q 947 2381 947 1747 
z
" transform="scale(0.015625)"/>
      </defs>
      <use xlink:href="#DejaVuSans-Oblique-3b8" transform="translate(0 0.234375)"/>
      <use xlink:href="#DejaVuSans-28" transform="translate(61.181641 0.234375)"/>
      <use xlink:href="#DejaVuSans-Oblique-72" transform="translate(100.195312 0.234375)"/>
      <use xlink:href="#DejaVuSans-29" transform="translate(141.308594 0.234375)"/>
      <use xlink:href="#DejaVuSans-20" transform="translate(180.322266 0.234375)"/>
      <use xlink:href="#DejaVuSans-5b" transform="translate(212.109375 0.234375)"/>
      <use xlink:href="#DejaVuSans-72" transform="translate(251.123047 0.234375)"/>
      <use xlink:href="#DejaVuSans-61" transform="translate(292.236328 0.234375)"/>
      <use xlink:href="#DejaVuSans-64" transform="translate(353.515625 0.234375)"/>
      <use xlink:href="#DejaVuSans-5d" transform="translate(416.992188 0.234375)"/>
     </g>
    </g>
   </g>
   <g id="line2d_9">
    <path d="M 60.072187 183.260281 
L 63.561492 115.813836 
L 67.050796 107.825087 
L 70.5401 73.981579 
L 74.029404 35.927785 
L 77.518708 6.838594 
L 81.008012 20.958993 
L 84.497316 28.022254 
L 87.98662 86.079282 
L 91.475925 128.053878 
L 94.965229 170.028474 
L 98.454533 170.028474 
L 101.943837 107.825087 
L 105.433141 86.079282 
L 108.922445 71.43739 
L 112.411749 55.721023 
L 115.901053 79.171449 
L 119.390358 114.258217 
L 122.879662 157.484883 
L 126.368966 182.823829 
L 129.85827 170.028474 
L 133.347574 128.053878 
L 136.836878 107.825087 
L 140.326182 107.825087 
L 143.815486 24.013577 
L 147.304791 35.927785 
L 150.794095 20.958993 
L 154.283399 51.520972 
L 157.772703 90.046728 
L 161.262007 107.825087 
L 164.751311 157.2979 
L 168.240615 160.723147 
L 171.729919 128.053878 
L 175.219224 86.079282 
L 178.708528 63.569162 
L 182.197832 63.569162 
L 185.687136 76.167091 
L 189.17644 95.839579 
L 192.665744 86.575679 
L 196.155048 83.3715 
L 199.644352 51.520972 
L 203.133657 51.520972 
L 206.622961 67.412801 
L 210.112265 107.825087 
L 213.601569 128.053878 
L 217.090873 128.053878 
L 220.580177 192.538594 
L 224.069481 192.538594 
L 227.558785 170.028474 
L 231.04809 128.053878 
L 234.537394 107.825087 
L 238.026698 86.079282 
L 241.516002 64.267571 
L 245.005306 85.390274 
L 248.49461 65.403049 
L 251.983914 51.520972 
L 255.473218 51.520972 
L 258.962523 20.958993 
L 262.451827 39.898558 
L 265.941131 63.569162 
L 269.430435 86.079282 
L 272.919739 128.053878 
L 276.409043 144.910563 
L 279.898347 151.694691 
L 283.387651 162.672264 
L 286.876956 177.470687 
L 290.36626 152.597013 
L 293.855564 188.66152 
L 297.344868 169.326578 
L 300.834172 160.469963 
L 304.323476 136.588905 
L 307.81278 107.825087 
L 311.302084 83.790074 
L 314.791389 35.927785 
L 318.280693 51.520972 
L 321.769997 83.418281 
L 325.259301 107.825087 
L 328.748605 148.282668 
L 332.237909 159.827075 
L 335.727213 188.66152 
L 339.216517 161.934306 
L 342.705822 148.282668 
L 346.195126 107.825087 
L 349.68443 86.079282 
L 353.173734 82.859067 
L 356.663038 35.927785 
L 360.152342 35.927785 
L 363.641646 33.167522 
L 367.13095 23.608123 
L 370.620255 35.927785 
L 374.109559 42.640854 
L 377.598863 41.221685 
L 381.088167 55.045974 
L 384.577471 35.927785 
L 388.066775 51.520972 
L 391.556079 23.156943 
L 395.045383 26.965798 
L 398.534687 63.351273 
" clip-path="url(#p8588d57716)" style="fill: none; stroke: #7de2d1; stroke-width: 2; stroke-linecap: square"/>
   </g>
   <g id="patch_3">
    <path d="M 60.072187 192.538594 
L 60.072187 6.838594 
" style="fill: none; stroke: #000000; stroke-width: 0.9; stroke-linejoin: miter; stroke-linecap: square"/>
   </g>
   <g id="patch_4">
    <path d="M 398.534687 192.538594 
L 398.534687 6.838594 
" style="fill: none; stroke: #000000; stroke-width: 0.9; stroke-linejoin: miter; stroke-linecap: square"/>
   </g>
   <g id="patch_5">
    <path d="M 60.072187 192.538594 
L 398.534687 192.538594 
" style="fill: none; stroke: #000000; stroke-width: 0.9; stroke-linejoin: miter; stroke-linecap: square"/>
   </g>
   <g id="patch_6">
    <path d="M 60.072187 6.838594 
L 398.534687 6.838594 
" style="fill: none; stroke: #000000; stroke-width: 0.9; stroke-linejoin: miter; stroke-linecap: square"/>
   </g>
  </g>
  <g id="axes_2">
   <g id="patch_7">
    <path d="M 528.484687 192.538594 
L 866.947187 192.538594 
L 866.947187 6.838594 
L 528.484687 6.838594 
L 528.484687 192.538594 
z
" style="fill: none"/>
   </g>
   <g id="matplotlib.axis_3">
    <g id="xtick_3">
     <g id="line2d_10">
      <path d="M 528.484687 192.538594 
L 528.484687 6.838594 
" clip-path="url(#p0c3417407c)" style="fill: none; stroke: #b0b0b0; stroke-opacity: 0.25; stroke-width: 0.7; stroke-linecap: square"/>
     </g>
     <g id="line2d_11">
      <g>
       <use xlink:href="#m3bb28c92d6" x="528.484687" y="192.538594" style="stroke: #000000; stroke-width: 0.8"/>
      </g>
     </g>
     <g id="text_7">
      <!-- 0.00 -->
      <g transform="translate(508.445625 219.715781) scale(0.18 -0.18)">
       <use xlink:href="#DejaVuSans-30"/>
       <use xlink:href="#DejaVuSans-2e" transform="translate(63.623047 0)"/>
       <use xlink:href="#DejaVuSans-30" transform="translate(95.410156 0)"/>
       <use xlink:href="#DejaVuSans-30" transform="translate(159.033203 0)"/>
      </g>
     </g>
    </g>
    <g id="xtick_4">
     <g id="line2d_12">
      <path d="M 866.947187 192.538594 
L 866.947187 6.838594 
" clip-path="url(#p0c3417407c)" style="fill: none; stroke: #b0b0b0; stroke-opacity: 0.25; stroke-width: 0.7; stroke-linecap: square"/>
     </g>
     <g id="line2d_13">
      <g>
       <use xlink:href="#m3bb28c92d6" x="866.947187" y="192.538594" style="stroke: #000000; stroke-width: 0.8"/>
      </g>
     </g>
     <g id="text_8">
      <!-- 66.20 -->
      <g transform="translate(841.181875 219.715781) scale(0.18 -0.18)">
       <use xlink:href="#DejaVuSans-36"/>
       <use xlink:href="#DejaVuSans-36" transform="translate(63.623047 0)"/>
       <use xlink:href="#DejaVuSans-2e" transform="translate(127.246094 0)"/>
       <use xlink:href="#DejaVuSans-32" transform="translate(159.033203 0)"/>
       <use xlink:href="#DejaVuSans-30" transform="translate(222.65625 0)"/>
      </g>
     </g>
    </g>
    <g id="text_9">
     <!-- Lag $\Delta r$ [mm] -->
     <g transform="translate(616.205937 223.219219) scale(0.26 -0.26)">
      <defs>
       <path id="DejaVuSans-4c" d="M 628 4666 
L 1259 4666 
L 1259 531 
L 3531 531 
L 3531 0 
L 628 0 
L 628 4666 
z
" transform="scale(0.015625)"/>
       <path id="DejaVuSans-394" d="M 2188 4044 
L 906 525 
L 3472 525 
L 2188 4044 
z
M 50 0 
L 1831 4666 
L 2547 4666 
L 4325 0 
L 50 0 
z
" transform="scale(0.015625)"/>
      </defs>
      <use xlink:href="#DejaVuSans-4c" transform="translate(0 0.015625)"/>
      <use xlink:href="#DejaVuSans-61" transform="translate(55.712891 0.015625)"/>
      <use xlink:href="#DejaVuSans-67" transform="translate(116.992188 0.015625)"/>
      <use xlink:href="#DejaVuSans-20" transform="translate(180.46875 0.015625)"/>
      <use xlink:href="#DejaVuSans-394" transform="translate(212.255859 0.015625)"/>
      <use xlink:href="#DejaVuSans-Oblique-72" transform="translate(280.664062 0.015625)"/>
      <use xlink:href="#DejaVuSans-20" transform="translate(321.777344 0.015625)"/>
      <use xlink:href="#DejaVuSans-5b" transform="translate(353.564453 0.015625)"/>
      <use xlink:href="#DejaVuSans-6d" transform="translate(392.578125 0.015625)"/>
      <use xlink:href="#DejaVuSans-6d" transform="translate(489.990234 0.015625)"/>
      <use xlink:href="#DejaVuSans-5d" transform="translate(587.402344 0.015625)"/>
     </g>
    </g>
   </g>
   <g id="matplotlib.axis_4">
    <g id="ytick_3">
     <g id="line2d_14">
      <path d="M 528.484687 192.538594 
L 866.947187 192.538594 
" clip-path="url(#p0c3417407c)" style="fill: none; stroke: #b0b0b0; stroke-opacity: 0.25; stroke-width: 0.7; stroke-linecap: square"/>
     </g>
     <g id="line2d_15">
      <g>
       <use xlink:href="#mff484a9458" x="528.484687" y="192.538594" style="stroke: #000000; stroke-width: 0.8"/>
      </g>
     </g>
     <g id="text_10">
      <!-- -1.00 -->
      <g transform="translate(468.4125 199.377187) scale(0.18 -0.18)">
       <use xlink:href="#DejaVuSans-2d"/>
       <use xlink:href="#DejaVuSans-31" transform="translate(36.083984 0)"/>
       <use xlink:href="#DejaVuSans-2e" transform="translate(99.707031 0)"/>
       <use xlink:href="#DejaVuSans-30" transform="translate(131.494141 0)"/>
       <use xlink:href="#DejaVuSans-30" transform="translate(195.117188 0)"/>
      </g>
     </g>
    </g>
    <g id="ytick_4">
     <g id="line2d_16">
      <path d="M 528.484687 6.838594 
L 866.947187 6.838594 
" clip-path="url(#p0c3417407c)" style="fill: none; stroke: #b0b0b0; stroke-opacity: 0.25; stroke-width: 0.7; stroke-linecap: square"/>
     </g>
     <g id="line2d_17">
      <g>
       <use xlink:href="#mff484a9458" x="528.484687" y="6.838594" style="stroke: #000000; stroke-width: 0.8"/>
      </g>
     </g>
     <g id="text_11">
      <!-- 1.00 -->
      <g transform="translate(474.906562 13.677187) scale(0.18 -0.18)">
       <use xlink:href="#DejaVuSans-31"/>
       <use xlink:href="#DejaVuSans-2e" transform="translate(63.623047 0)"/>
       <use xlink:href="#DejaVuSans-30" transform="translate(95.410156 0)"/>
       <use xlink:href="#DejaVuSans-30" transform="translate(159.033203 0)"/>
      </g>
     </g>
    </g>
    <g id="text_12">
     <!-- $C(\Delta r)$ -->
     <g transform="translate(503.005312 133.228594) rotate(-90) scale(0.26 -0.26)">
      <defs>
       <path id="DejaVuSans-Oblique-43" d="M 4447 4306 
L 4319 3641 
Q 4019 3944 3683 4091 
Q 3347 4238 2956 4238 
Q 2422 4238 2017 3981 
Q 1613 3725 1319 3200 
Q 1131 2863 1032 2486 
Q 934 2109 934 1728 
Q 934 1091 1264 756 
Q 1594 422 2222 422 
Q 2656 422 3056 561 
Q 3456 700 3834 978 
L 3688 231 
Q 3316 72 2936 -9 
Q 2556 -91 2175 -91 
Q 1278 -91 773 396 
Q 269 884 269 1753 
Q 269 2309 461 2846 
Q 653 3384 1013 3828 
Q 1394 4300 1883 4525 
Q 2372 4750 3022 4750 
Q 3422 4750 3780 4639 
Q 4138 4528 4447 4306 
z
" transform="scale(0.015625)"/>
      </defs>
      <use xlink:href="#DejaVuSans-Oblique-43" transform="translate(0 0.125)"/>
      <use xlink:href="#DejaVuSans-28" transform="translate(69.824219 0.125)"/>
      <use xlink:href="#DejaVuSans-394" transform="translate(108.837891 0.125)"/>
      <use xlink:href="#DejaVuSans-Oblique-72" transform="translate(177.246094 0.125)"/>
      <use xlink:href="#DejaVuSans-29" transform="translate(218.359375 0.125)"/>
     </g>
    </g>
   </g>
   <g id="line2d_18">
    <path d="M 528.484687 6.838594 
L 532.085352 22.179108 
L 535.686017 46.028503 
L 539.286682 76.948146 
L 542.887347 105.609557 
L 546.488012 123.056494 
L 550.088677 129.342812 
L 553.689342 124.19033 
L 557.290007 114.561637 
L 560.890672 106.606647 
L 564.491336 103.246416 
L 568.092001 103.803538 
L 571.692666 105.961126 
L 575.293331 107.831478 
L 578.893996 104.976515 
L 582.494661 100.397632 
L 586.095326 92.434256 
L 589.695991 85.688391 
L 593.296656 83.487432 
L 596.89732 84.605074 
L 600.497985 92.90622 
L 604.09865 103.97277 
L 607.699315 117.235071 
L 611.29998 126.71701 
L 614.900645 136.494882 
L 618.50131 137.105266 
L 622.101975 133.759008 
L 625.70264 123.986519 
L 629.303305 109.580991 
L 632.903969 99.347831 
L 636.504634 88.291568 
L 640.105299 81.143505 
L 643.705964 78.393237 
L 647.306629 74.540265 
L 650.907294 76.574406 
L 654.507959 78.52479 
L 658.108624 83.139152 
L 661.709289 93.107527 
L 665.309953 107.679655 
L 668.910618 122.702128 
L 672.511283 134.409568 
L 676.111948 140.842633 
L 679.712613 138.077641 
L 683.313278 130.428999 
L 686.913943 116.855106 
L 690.514608 104.503374 
L 694.115273 91.279644 
L 697.715937 82.232465 
L 701.316602 77.291953 
L 704.917267 76.126066 
L 708.517932 76.851647 
L 712.118597 80.708968 
L 715.719262 89.636463 
L 719.319927 98.515922 
L 722.920592 107.567659 
L 726.521257 113.373125 
L 730.121922 109.802499 
L 733.722586 105.672788 
L 737.323251 95.64636 
L 740.923916 87.256548 
L 744.524581 87.340585 
L 748.125246 89.709116 
L 751.725911 104.034717 
L 755.326576 116.469453 
L 758.927241 119.497033 
L 762.527906 113.507192 
L 766.12857 99.561064 
L 769.729235 78.587061 
L 773.3299 68.414359 
L 776.930565 66.068951 
L 780.53123 79.464894 
L 784.131895 101.09917 
L 787.73256 128.224288 
L 791.333225 151.831855 
L 794.93389 162.573589 
L 798.534555 160.110194 
L 802.135219 150.659924 
L 805.735884 130.926323 
L 809.336549 105.614175 
L 812.937214 79.086509 
L 816.537879 64.923153 
L 820.138544 57.308859 
L 823.739209 65.820406 
L 827.339874 76.114212 
L 830.940539 86.931552 
L 834.541203 105.516805 
L 838.141868 100.488496 
L 841.742533 86.549628 
L 845.343198 68.4291 
L 848.943863 52.21641 
L 852.544528 47.809957 
L 856.145193 60.805941 
L 859.745858 79.808703 
L 863.346523 124.938545 
L 866.947187 148.303608 
" clip-path="url(#p0c3417407c)" style="fill: none; stroke: #7de2d1; stroke-width: 2; stroke-linecap: square"/>
   </g>
   <g id="line2d_19">
    <path d="M 528.484687 99.688594 
L 866.947187 99.688594 
" clip-path="url(#p0c3417407c)" style="fill: none; stroke-dasharray: 2.96,1.28; stroke-dashoffset: 0; stroke: #000000; stroke-opacity: 0.6; stroke-width: 0.8"/>
   </g>
   <g id="line2d_20">
    <path d="M 593.296656 192.538594 
L 593.296656 6.838594 
" clip-path="url(#p0c3417407c)" style="fill: none; stroke-dasharray: 1,1.65; stroke-dashoffset: 0; stroke: #666666; stroke-opacity: 0.9"/>
   </g>
   <g id="patch_8">
    <path d="M 528.484687 192.538594 
L 528.484687 6.838594 
" style="fill: none; stroke: #000000; stroke-width: 0.9; stroke-linejoin: miter; stroke-linecap: square"/>
   </g>
   <g id="patch_9">
    <path d="M 866.947187 192.538594 
L 866.947187 6.838594 
" style="fill: none; stroke: #000000; stroke-width: 0.9; stroke-linejoin: miter; stroke-linecap: square"/>
   </g>
   <g id="patch_10">
    <path d="M 528.484687 192.538594 
L 866.947187 192.538594 
" style="fill: none; stroke: #000000; stroke-width: 0.9; stroke-linejoin: miter; stroke-linecap: square"/>
   </g>
   <g id="patch_11">
    <path d="M 528.484687 6.838594 
L 866.947187 6.838594 
" style="fill: none; stroke: #000000; stroke-width: 0.9; stroke-linejoin: miter; stroke-linecap: square"/>
   </g>
   <g id="LineCollection_1">
    <path d="M 579.455602 83.487432 
L 607.137709 83.487432 
" clip-path="url(#p0c3417407c)" style="fill: none; stroke: #666666; stroke-width: 1.4"/>
   </g>
   <g id="line2d_21">
    <defs>
     <path id="m1ff8c8b4b9" d="M 0 3 
L 0 -3 
" style="stroke: #666666"/>
    </defs>
    <g clip-path="url(#p0c3417407c)">
     <use xlink:href="#m1ff8c8b4b9" x="579.455602" y="83.487432" style="fill: #7de2d1; stroke: #666666"/>
    </g>
   </g>
   <g id="line2d_22">
    <g clip-path="url(#p0c3417407c)">
     <use xlink:href="#m1ff8c8b4b9" x="607.137709" y="83.487432" style="fill: #7de2d1; stroke: #666666"/>
    </g>
   </g>
   <g id="line2d_23">
    <defs>
     <path id="mb520756d70" d="M 0 3.5 
C 0.928211 3.5 1.81853 3.131218 2.474874 2.474874 
C 3.131218 1.81853 3.5 0.928211 3.5 0 
C 3.5 -0.928211 3.131218 -1.81853 2.474874 -2.474874 
C 1.81853 -3.131218 0.928211 -3.5 0 -3.5 
C -0.928211 -3.5 -1.81853 -3.131218 -2.474874 -2.474874 
C -3.131218 -1.81853 -3.5 -0.928211 -3.5 0 
C -3.5 0.928211 -3.131218 1.81853 -2.474874 2.474874 
C -1.81853 3.131218 -0.928211 3.5 0 3.5 
z
" style="stroke: #7de2d1"/>
    </defs>
    <g clip-path="url(#p0c3417407c)">
     <use xlink:href="#mb520756d70" x="593.296656" y="83.487432" style="fill: #7de2d1; stroke: #7de2d1"/>
    </g>
   </g>
  </g>
 </g>
 <defs>
  <clipPath id="p8588d57716">
   <rect x="60.072187" y="6.838594" width="338.4625" height="185.7"/>
  </clipPath>
  <clipPath id="p0c3417407c">
   <rect x="528.484687" y="6.838594" width="338.4625" height="185.7"/>
  </clipPath>
 </defs>
</svg>
