<?xml version="1.0" encoding="utf-8" standalone="no"?>
<!DOCTYPE svg PUBLIC "-//W3C//DTD SVG 1.1//EN"
  "http://www.w3.org/Graphics/SVG/1.1/DTD/svg11.dtd">
<svg xmlns:xlink="http://www.w3.org/1999/xlink" width="800.39952pt" height="476.39952pt" viewBox="0 0 800.39952 476.39952" xmlns="http://www.w3.org/2000/svg" version="1.1">
 <metadata>
  <rdf:RDF xmlns:dc="http://purl.org/dc/elements/1.1/" xmlns:cc="http://creativecommons.org/ns#" xmlns:rdf="http://www.w3.org/1999/02/22-rdf-syntax-ns#">
   <cc:Work>
    <dc:type rdf:resource="http://purl.org/dc/dcmitype/StillImage"/>
    <dc:date>2026-03-22T15:16:39.540232</dc:date>
    <dc:format>image/svg+xml</dc:format>
    <dc:creator>
     <cc:Agent>
      <dc:title>Matplotlib v3.10.8, https://matplotlib.org/</dc:title>
     </cc:Agent>
    </dc:creator>
   </cc:Work>
  </rdf:RDF>
 </metadata>
 <defs>
  <style type="text/css">*{stroke-linejoin: round; stroke-linecap: butt}</style>
 </defs>
 <g id="figure_1">
  <g id="patch_1">
   <path d="M 0 476.39952 
L 800.39952 476.39952 
L 800.39952 0 
L 0 0 
L 0 476.39952 
z
" style="fill: none; opacity: 0"/>
  </g>
  <g id="axes_1">
   <g id="patch_2">
    <path d="M 41.94 414.50202 
L 793.19952 414.50202 
L 793.19952 7.2 
L 41.94 7.2 
L 41.94 414.50202 
z
" style="fill: none"/>
   </g>
   <g id="matplotlib.axis_1">
    <g id="xtick_1">
     <g id="line2d_1">
      <path d="M 41.94 414.50202 
L 41.94 7.2 
" clip-path="url(#p6b6a8a19f7)" style="fill: none; stroke: #b0b0b0; stroke-opacity: 0.3; stroke-width: 0.7; stroke-linecap: square"/>
     </g>
     <g id="line2d_2">
      <defs>
       <path id="md3927b3e7d" d="M 0 0 
L 0 3.5 
" style="stroke: #000000; stroke-width: 0.8"/>
      </defs>
      <g>
       <use xlink:href="#md3927b3e7d" x="41.94" y="414.50202" style="stroke: #000000; stroke-width: 0.8"/>
      </g>
     </g>
     <g id="text_1">
      <!-- 1.0 -->
      <g transform="translate(22.85625 437.23827) scale(0.24 -0.24)">
       <defs>
        <path id="DejaVuSans-31" d="M 794 531 
L 1825 531 
L 1825 4091 
L 703 3866 
L 703 4441 
L 1819 4666 
L 2450 4666 
L 2450 531 
L 3481 531 
L 3481 0 
L 794 0 
L 794 531 
z
" transform="scale(0.015625)"/>
        <path id="DejaVuSans-2e" d="M 684 794 
L 1344 794 
L 1344 0 
L 684 0 
L 684 794 
z
" transform="scale(0.015625)"/>
        <path id="DejaVuSans-30" d="M 2034 4250 
Q 1547 4250 1301 3770 
Q 1056 3291 1056 2328 
Q 1056 1369 1301 889 
Q 1547 409 2034 409 
Q 2525 409 2770 889 
Q 3016 1369 3016 2328 
Q 3016 3291 2770 3770 
Q 2525 4250 2034 4250 
z
M 2034 4750 
Q 2819 4750 3233 4129 
Q 3647 3509 3647 2328 
Q 3647 1150 3233 529 
Q 2819 -91 2034 -91 
Q 1250 -91 836 529 
Q 422 1150 422 2328 
Q 422 3509 836 4129 
Q 1250 4750 2034 4750 
z
" transform="scale(0.015625)"/>
       </defs>
       <use xlink:href="#DejaVuSans-31"/>
       <use xlink:href="#DejaVuSans-2e" transform="translate(63.623047 0)"/>
       <use xlink:href="#DejaVuSans-30" transform="translate(95.410156 0)"/>
      </g>
     </g>
    </g>
    <g id="xtick_2">
     <g id="line2d_3">
      <path d="M 130.323473 414.50202 
L 130.323473 7.2 
" clip-path="url(#p6b6a8a19f7)" style="fill: none; stroke: #b0b0b0; stroke-opacity: 0.3; stroke-width: 0.7; stroke-linecap: square"/>
     </g>
     <g id="line2d_4">
      <g>
       <use xlink:href="#md3927b3e7d" x="130.323473" y="414.50202" style="stroke: #000000; stroke-width: 0.8"/>
      </g>
     </g>
     <g id="text_2">
      <!-- 1.5 -->
      <g transform="translate(111.239723 437.23827) scale(0.24 -0.24)">
       <defs>
        <path id="DejaVuSans-35" d="M 691 4666 
L 3169 4666 
L 3169 4134 
L 1269 4134 
L 1269 2991 
Q 1406 3038 1543 3061 
Q 1681 3084 1819 3084 
Q 2600 3084 3056 2656 
Q 3513 2228 3513 1497 
Q 3513 744 3044 326 
Q 2575 -91 1722 -91 
Q 1428 -91 1123 -41 
Q 819 9 494 109 
L 494 744 
Q 775 591 1075 516 
Q 1375 441 1709 441 
Q 2250 441 2565 725 
Q 2881 1009 2881 1497 
Q 2881 1984 2565 2268 
Q 2250 2553 1709 2553 
Q 1456 2553 1204 2497 
Q 953 2441 691 2322 
L 691 4666 
z
" transform="scale(0.015625)"/>
       </defs>
       <use xlink:href="#DejaVuSans-31"/>
       <use xlink:href="#DejaVuSans-2e" transform="translate(63.623047 0)"/>
       <use xlink:href="#DejaVuSans-35" transform="translate(95.410156 0)"/>
      </g>
     </g>
    </g>
    <g id="xtick_3">
     <g id="line2d_5">
      <path d="M 218.706946 414.50202 
L 218.706946 7.2 
" clip-path="url(#p6b6a8a19f7)" style="fill: none; stroke: #b0b0b0; stroke-opacity: 0.3; stroke-width: 0.7; stroke-linecap: square"/>
     </g>
     <g id="line2d_6">
      <g>
       <use xlink:href="#md3927b3e7d" x="218.706946" y="414.50202" style="stroke: #000000; stroke-width: 0.8"/>
      </g>
     </g>
     <g id="text_3">
      <!-- 2.0 -->
      <g transform="translate(199.623196 437.23827) scale(0.24 -0.24)">
       <defs>
        <path id="DejaVuSans-32" d="M 1228 531 
L 3431 531 
L 3431 0 
L 469 0 
L 469 531 
Q 828 903 1448 1529 
Q 2069 2156 2228 2338 
Q 2531 2678 2651 2914 
Q 2772 3150 2772 3378 
Q 2772 3750 2511 3984 
Q 2250 4219 1831 4219 
Q 1534 4219 1204 4116 
Q 875 4013 500 3803 
L 500 4441 
Q 881 4594 1212 4672 
Q 1544 4750 1819 4750 
Q 2544 4750 2975 4387 
Q 3406 4025 3406 3419 
Q 3406 3131 3298 2873 
Q 3191 2616 2906 2266 
Q 2828 2175 2409 1742 
Q 1991 1309 1228 531 
z
" transform="scale(0.015625)"/>
       </defs>
       <use xlink:href="#DejaVuSans-32"/>
       <use xlink:href="#DejaVuSans-2e" transform="translate(63.623047 0)"/>
       <use xlink:href="#DejaVuSans-30" transform="translate(95.410156 0)"/>
      </g>
     </g>
    </g>
    <g id="xtick_4">
     <g id="line2d_7">
      <path d="M 307.090419 414.50202 
L 307.090419 7.2 
" clip-path="url(#p6b6a8a19f7)" style="fill: none; stroke: #b0b0b0; stroke-opacity: 0.3; stroke-width: 0.7; stroke-linecap: square"/>
     </g>
     <g id="line2d_8">
      <g>
       <use xlink:href="#md3927b3e7d" x="307.090419" y="414.50202" style="stroke: #000000; stroke-width: 0.8"/>
      </g>
     </g>
     <g id="text_4">
      <!-- 2.5 -->
      <g transform="translate(288.006669 437.23827) scale(0.24 -0.24)">
       <use xlink:href="#DejaVuSans-32"/>
       <use xlink:href="#DejaVuSans-2e" transform="translate(63.623047 0)"/>
       <use xlink:href="#DejaVuSans-35" transform="translate(95.410156 0)"/>
      </g>
     </g>
    </g>
    <g id="xtick_5">
     <g id="line2d_9">
      <path d="M 395.473892 414.50202 
L 395.473892 7.2 
" clip-path="url(#p6b6a8a19f7)" style="fill: none; stroke: #b0b0b0; stroke-opacity: 0.3; stroke-width: 0.7; stroke-linecap: square"/>
     </g>
     <g id="line2d_10">
      <g>
       <use xlink:href="#md3927b3e7d" x="395.473892" y="414.50202" style="stroke: #000000; stroke-width: 0.8"/>
      </g>
     </g>
     <g id="text_5">
      <!-- 3.0 -->
      <g transform="translate(376.390142 437.23827) scale(0.24 -0.24)">
       <defs>
        <path id="DejaVuSans-33" d="M 2597 2516 
Q 3050 2419 3304 2112 
Q 3559 1806 3559 1356 
Q 3559 666 3084 287 
Q 2609 -91 1734 -91 
Q 1441 -91 1130 -33 
Q 819 25 488 141 
L 488 750 
Q 750 597 1062 519 
Q 1375 441 1716 441 
Q 2309 441 2620 675 
Q 2931 909 2931 1356 
Q 2931 1769 2642 2001 
Q 2353 2234 1838 2234 
L 1294 2234 
L 1294 2753 
L 1863 2753 
Q 2328 2753 2575 2939 
Q 2822 3125 2822 3475 
Q 2822 3834 2567 4026 
Q 2313 4219 1838 4219 
Q 1578 4219 1281 4162 
Q 984 4106 628 3988 
L 628 4550 
Q 988 4650 1302 4700 
Q 1616 4750 1894 4750 
Q 2613 4750 3031 4423 
Q 3450 4097 3450 3541 
Q 3450 3153 3228 2886 
Q 3006 2619 2597 2516 
z
" transform="scale(0.015625)"/>
       </defs>
       <use xlink:href="#DejaVuSans-33"/>
       <use xlink:href="#DejaVuSans-2e" transform="translate(63.623047 0)"/>
       <use xlink:href="#DejaVuSans-30" transform="translate(95.410156 0)"/>
      </g>
     </g>
    </g>
    <g id="xtick_6">
     <g id="line2d_11">
      <path d="M 483.857365 414.50202 
L 483.857365 7.2 
" clip-path="url(#p6b6a8a19f7)" style="fill: none; stroke: #b0b0b0; stroke-opacity: 0.3; stroke-width: 0.7; stroke-linecap: square"/>
     </g>
     <g id="line2d_12">
      <g>
       <use xlink:href="#md3927b3e7d" x="483.857365" y="414.50202" style="stroke: #000000; stroke-width: 0.8"/>
      </g>
     </g>
     <g id="text_6">
      <!-- 3.5 -->
      <g transform="translate(464.773615 437.23827) scale(0.24 -0.24)">
       <use xlink:href="#DejaVuSans-33"/>
       <use xlink:href="#DejaVuSans-2e" transform="translate(63.623047 0)"/>
       <use xlink:href="#DejaVuSans-35" transform="translate(95.410156 0)"/>
      </g>
     </g>
    </g>
    <g id="xtick_7">
     <g id="line2d_13">
      <path d="M 572.240838 414.50202 
L 572.240838 7.2 
" clip-path="url(#p6b6a8a19f7)" style="fill: none; stroke: #b0b0b0; stroke-opacity: 0.3; stroke-width: 0.7; stroke-linecap: square"/>
     </g>
     <g id="line2d_14">
      <g>
       <use xlink:href="#md3927b3e7d" x="572.240838" y="414.50202" style="stroke: #000000; stroke-width: 0.8"/>
      </g>
     </g>
     <g id="text_7">
      <!-- 4.0 -->
      <g transform="translate(553.157088 437.23827) scale(0.24 -0.24)">
       <defs>
        <path id="DejaVuSans-34" d="M 2419 4116 
L 825 1625 
L 2419 1625 
L 2419 4116 
z
M 2253 4666 
L 3047 4666 
L 3047 1625 
L 3713 1625 
L 3713 1100 
L 3047 1100 
L 3047 0 
L 2419 0 
L 2419 1100 
L 313 1100 
L 313 1709 
L 2253 4666 
z
" transform="scale(0.015625)"/>
       </defs>
       <use xlink:href="#DejaVuSans-34"/>
       <use xlink:href="#DejaVuSans-2e" transform="translate(63.623047 0)"/>
       <use xlink:href="#DejaVuSans-30" transform="translate(95.410156 0)"/>
      </g>
     </g>
    </g>
    <g id="xtick_8">
     <g id="line2d_15">
      <path d="M 660.624311 414.50202 
L 660.624311 7.2 
" clip-path="url(#p6b6a8a19f7)" style="fill: none; stroke: #b0b0b0; stroke-opacity: 0.3; stroke-width: 0.7; stroke-linecap: square"/>
     </g>
     <g id="line2d_16">
      <g>
       <use xlink:href="#md3927b3e7d" x="660.624311" y="414.50202" style="stroke: #000000; stroke-width: 0.8"/>
      </g>
     </g>
     <g id="text_8">
      <!-- 4.5 -->
      <g transform="translate(641.540561 437.23827) scale(0.24 -0.24)">
       <use xlink:href="#DejaVuSans-34"/>
       <use xlink:href="#DejaVuSans-2e" transform="translate(63.623047 0)"/>
       <use xlink:href="#DejaVuSans-35" transform="translate(95.410156 0)"/>
      </g>
     </g>
    </g>
    <g id="xtick_9">
     <g id="line2d_17">
      <path d="M 749.007784 414.50202 
L 749.007784 7.2 
" clip-path="url(#p6b6a8a19f7)" style="fill: none; stroke: #b0b0b0; stroke-opacity: 0.3; stroke-width: 0.7; stroke-linecap: square"/>
     </g>
     <g id="line2d_18">
      <g>
       <use xlink:href="#md3927b3e7d" x="749.007784" y="414.50202" style="stroke: #000000; stroke-width: 0.8"/>
      </g>
     </g>
     <g id="text_9">
      <!-- 5.0 -->
      <g transform="translate(729.924034 437.23827) scale(0.24 -0.24)">
       <use xlink:href="#DejaVuSans-35"/>
       <use xlink:href="#DejaVuSans-2e" transform="translate(63.623047 0)"/>
       <use xlink:href="#DejaVuSans-30" transform="translate(95.410156 0)"/>
      </g>
     </g>
    </g>
    <g id="xtick_10">
     <g id="line2d_19">
      <defs>
       <path id="m6104320786" d="M 0 0 
L 0 2 
" style="stroke: #000000; stroke-width: 0.6"/>
      </defs>
      <g>
       <use xlink:href="#m6104320786" x="59.616695" y="414.50202" style="stroke: #000000; stroke-width: 0.6"/>
      </g>
     </g>
    </g>
    <g id="xtick_11">
     <g id="line2d_20">
      <g>
       <use xlink:href="#m6104320786" x="77.293389" y="414.50202" style="stroke: #000000; stroke-width: 0.6"/>
      </g>
     </g>
    </g>
    <g id="xtick_12">
     <g id="line2d_21">
      <g>
       <use xlink:href="#m6104320786" x="94.970084" y="414.50202" style="stroke: #000000; stroke-width: 0.6"/>
      </g>
     </g>
    </g>
    <g id="xtick_13">
     <g id="line2d_22">
      <g>
       <use xlink:href="#m6104320786" x="112.646778" y="414.50202" style="stroke: #000000; stroke-width: 0.6"/>
      </g>
     </g>
    </g>
    <g id="xtick_14">
     <g id="line2d_23">
      <g>
       <use xlink:href="#m6104320786" x="148.000168" y="414.50202" style="stroke: #000000; stroke-width: 0.6"/>
      </g>
     </g>
    </g>
    <g id="xtick_15">
     <g id="line2d_24">
      <g>
       <use xlink:href="#m6104320786" x="165.676862" y="414.50202" style="stroke: #000000; stroke-width: 0.6"/>
      </g>
     </g>
    </g>
    <g id="xtick_16">
     <g id="line2d_25">
      <g>
       <use xlink:href="#m6104320786" x="183.353557" y="414.50202" style="stroke: #000000; stroke-width: 0.6"/>
      </g>
     </g>
    </g>
    <g id="xtick_17">
     <g id="line2d_26">
      <g>
       <use xlink:href="#m6104320786" x="201.030251" y="414.50202" style="stroke: #000000; stroke-width: 0.6"/>
      </g>
     </g>
    </g>
    <g id="xtick_18">
     <g id="line2d_27">
      <g>
       <use xlink:href="#m6104320786" x="236.38364" y="414.50202" style="stroke: #000000; stroke-width: 0.6"/>
      </g>
     </g>
    </g>
    <g id="xtick_19">
     <g id="line2d_28">
      <g>
       <use xlink:href="#m6104320786" x="254.060335" y="414.50202" style="stroke: #000000; stroke-width: 0.6"/>
      </g>
     </g>
    </g>
    <g id="xtick_20">
     <g id="line2d_29">
      <g>
       <use xlink:href="#m6104320786" x="271.73703" y="414.50202" style="stroke: #000000; stroke-width: 0.6"/>
      </g>
     </g>
    </g>
    <g id="xtick_21">
     <g id="line2d_30">
      <g>
       <use xlink:href="#m6104320786" x="289.413724" y="414.50202" style="stroke: #000000; stroke-width: 0.6"/>
      </g>
     </g>
    </g>
    <g id="xtick_22">
     <g id="line2d_31">
      <g>
       <use xlink:href="#m6104320786" x="324.767113" y="414.50202" style="stroke: #000000; stroke-width: 0.6"/>
      </g>
     </g>
    </g>
    <g id="xtick_23">
     <g id="line2d_32">
      <g>
       <use xlink:href="#m6104320786" x="342.443808" y="414.50202" style="stroke: #000000; stroke-width: 0.6"/>
      </g>
     </g>
    </g>
    <g id="xtick_24">
     <g id="line2d_33">
      <g>
       <use xlink:href="#m6104320786" x="360.120503" y="414.50202" style="stroke: #000000; stroke-width: 0.6"/>
      </g>
     </g>
    </g>
    <g id="xtick_25">
     <g id="line2d_34">
      <g>
       <use xlink:href="#m6104320786" x="377.797197" y="414.50202" style="stroke: #000000; stroke-width: 0.6"/>
      </g>
     </g>
    </g>
    <g id="xtick_26">
     <g id="line2d_35">
      <g>
       <use xlink:href="#m6104320786" x="413.150586" y="414.50202" style="stroke: #000000; stroke-width: 0.6"/>
      </g>
     </g>
    </g>
    <g id="xtick_27">
     <g id="line2d_36">
      <g>
       <use xlink:href="#m6104320786" x="430.827281" y="414.50202" style="stroke: #000000; stroke-width: 0.6"/>
      </g>
     </g>
    </g>
    <g id="xtick_28">
     <g id="line2d_37">
      <g>
       <use xlink:href="#m6104320786" x="448.503976" y="414.50202" style="stroke: #000000; stroke-width: 0.6"/>
      </g>
     </g>
    </g>
    <g id="xtick_29">
     <g id="line2d_38">
      <g>
       <use xlink:href="#m6104320786" x="466.18067" y="414.50202" style="stroke: #000000; stroke-width: 0.6"/>
      </g>
     </g>
    </g>
    <g id="xtick_30">
     <g id="line2d_39">
      <g>
       <use xlink:href="#m6104320786" x="501.534059" y="414.50202" style="stroke: #000000; stroke-width: 0.6"/>
      </g>
     </g>
    </g>
    <g id="xtick_31">
     <g id="line2d_40">
      <g>
       <use xlink:href="#m6104320786" x="519.210754" y="414.50202" style="stroke: #000000; stroke-width: 0.6"/>
      </g>
     </g>
    </g>
    <g id="xtick_32">
     <g id="line2d_41">
      <g>
       <use xlink:href="#m6104320786" x="536.887448" y="414.50202" style="stroke: #000000; stroke-width: 0.6"/>
      </g>
     </g>
    </g>
    <g id="xtick_33">
     <g id="line2d_42">
      <g>
       <use xlink:href="#m6104320786" x="554.564143" y="414.50202" style="stroke: #000000; stroke-width: 0.6"/>
      </g>
     </g>
    </g>
    <g id="xtick_34">
     <g id="line2d_43">
      <g>
       <use xlink:href="#m6104320786" x="589.917532" y="414.50202" style="stroke: #000000; stroke-width: 0.6"/>
      </g>
     </g>
    </g>
    <g id="xtick_35">
     <g id="line2d_44">
      <g>
       <use xlink:href="#m6104320786" x="607.594227" y="414.50202" style="stroke: #000000; stroke-width: 0.6"/>
      </g>
     </g>
    </g>
    <g id="xtick_36">
     <g id="line2d_45">
      <g>
       <use xlink:href="#m6104320786" x="625.270921" y="414.50202" style="stroke: #000000; stroke-width: 0.6"/>
      </g>
     </g>
    </g>
    <g id="xtick_37">
     <g id="line2d_46">
      <g>
       <use xlink:href="#m6104320786" x="642.947616" y="414.50202" style="stroke: #000000; stroke-width: 0.6"/>
      </g>
     </g>
    </g>
    <g id="xtick_38">
     <g id="line2d_47">
      <g>
       <use xlink:href="#m6104320786" x="678.301005" y="414.50202" style="stroke: #000000; stroke-width: 0.6"/>
      </g>
     </g>
    </g>
    <g id="xtick_39">
     <g id="line2d_48">
      <g>
       <use xlink:href="#m6104320786" x="695.9777" y="414.50202" style="stroke: #000000; stroke-width: 0.6"/>
      </g>
     </g>
    </g>
    <g id="xtick_40">
     <g id="line2d_49">
      <g>
       <use xlink:href="#m6104320786" x="713.654394" y="414.50202" style="stroke: #000000; stroke-width: 0.6"/>
      </g>
     </g>
    </g>
    <g id="xtick_41">
     <g id="line2d_50">
      <g>
       <use xlink:href="#m6104320786" x="731.331089" y="414.50202" style="stroke: #000000; stroke-width: 0.6"/>
      </g>
     </g>
    </g>
    <g id="xtick_42">
     <g id="line2d_51">
      <g>
       <use xlink:href="#m6104320786" x="766.684478" y="414.50202" style="stroke: #000000; stroke-width: 0.6"/>
      </g>
     </g>
    </g>
    <g id="xtick_43">
     <g id="line2d_52">
      <g>
       <use xlink:href="#m6104320786" x="784.361173" y="414.50202" style="stroke: #000000; stroke-width: 0.6"/>
      </g>
     </g>
    </g>
    <g id="text_10">
     <!-- $\tau k$ -->
     <g transform="translate(398.52976 462.54452) scale(0.32 -0.32)">
      <defs>
       <path id="DejaVuSans-Oblique-3c4" d="M 2103 638 
Q 2188 488 2525 488 
L 2800 488 
L 2706 0 
L 2363 0 
Q 1800 0 1600 300 
Q 1403 606 1534 1269 
L 1856 2925 
L 541 2925 
L 653 3500 
L 3881 3500 
L 3769 2925 
L 2444 2925 
L 2113 1234 
Q 2025 781 2103 638 
z
" transform="scale(0.015625)"/>
       <path id="DejaVuSans-Oblique-6b" d="M 1172 4863 
L 1747 4863 
L 1197 2028 
L 3169 3500 
L 3916 3500 
L 1716 1825 
L 3322 0 
L 2625 0 
L 1131 1709 
L 800 0 
L 225 0 
L 1172 4863 
z
" transform="scale(0.015625)"/>
      </defs>
      <use xlink:href="#DejaVuSans-Oblique-3c4" transform="translate(0 0.015625)"/>
      <use xlink:href="#DejaVuSans-Oblique-6b" transform="translate(60.205078 0.015625)"/>
     </g>
    </g>
   </g>
   <g id="matplotlib.axis_2">
    <g id="ytick_1">
     <g id="line2d_53">
      <path d="M 41.94 395.988292 
L 793.19952 395.988292 
" clip-path="url(#p6b6a8a19f7)" style="fill: none; stroke: #b0b0b0; stroke-opacity: 0.3; stroke-width: 0.7; stroke-linecap: square"/>
     </g>
     <g id="line2d_54">
      <defs>
       <path id="m9da3f1e3cb" d="M 0 0 
L -3.5 0 
" style="stroke: #000000; stroke-width: 0.8"/>
      </defs>
      <g>
       <use xlink:href="#m9da3f1e3cb" x="41.94" y="395.988292" style="stroke: #000000; stroke-width: 0.8"/>
      </g>
     </g>
     <g id="text_11">
      <!-- 0 -->
      <g transform="translate(22.17 405.106417) scale(0.24 -0.24)">
       <use xlink:href="#DejaVuSans-30"/>
      </g>
     </g>
    </g>
    <g id="ytick_2">
     <g id="line2d_55">
      <path d="M 41.94 333.075644 
L 793.19952 333.075644 
" clip-path="url(#p6b6a8a19f7)" style="fill: none; stroke: #b0b0b0; stroke-opacity: 0.3; stroke-width: 0.7; stroke-linecap: square"/>
     </g>
     <g id="line2d_56">
      <g>
       <use xlink:href="#m9da3f1e3cb" x="41.94" y="333.075644" style="stroke: #000000; stroke-width: 0.8"/>
      </g>
     </g>
    </g>
    <g id="ytick_3">
     <g id="line2d_57">
      <path d="M 41.94 270.162996 
L 793.19952 270.162996 
" clip-path="url(#p6b6a8a19f7)" style="fill: none; stroke: #b0b0b0; stroke-opacity: 0.3; stroke-width: 0.7; stroke-linecap: square"/>
     </g>
     <g id="line2d_58">
      <g>
       <use xlink:href="#m9da3f1e3cb" x="41.94" y="270.162996" style="stroke: #000000; stroke-width: 0.8"/>
      </g>
     </g>
    </g>
    <g id="ytick_4">
     <g id="line2d_59">
      <path d="M 41.94 207.250349 
L 793.19952 207.250349 
" clip-path="url(#p6b6a8a19f7)" style="fill: none; stroke: #b0b0b0; stroke-opacity: 0.3; stroke-width: 0.7; stroke-linecap: square"/>
     </g>
     <g id="line2d_60">
      <g>
       <use xlink:href="#m9da3f1e3cb" x="41.94" y="207.250349" style="stroke: #000000; stroke-width: 0.8"/>
      </g>
     </g>
    </g>
    <g id="ytick_5">
     <g id="line2d_61">
      <path d="M 41.94 144.337701 
L 793.19952 144.337701 
" clip-path="url(#p6b6a8a19f7)" style="fill: none; stroke: #b0b0b0; stroke-opacity: 0.3; stroke-width: 0.7; stroke-linecap: square"/>
     </g>
     <g id="line2d_62">
      <g>
       <use xlink:href="#m9da3f1e3cb" x="41.94" y="144.337701" style="stroke: #000000; stroke-width: 0.8"/>
      </g>
     </g>
    </g>
    <g id="ytick_6">
     <g id="line2d_63">
      <path d="M 41.94 81.425053 
L 793.19952 81.425053 
" clip-path="url(#p6b6a8a19f7)" style="fill: none; stroke: #b0b0b0; stroke-opacity: 0.3; stroke-width: 0.7; stroke-linecap: square"/>
     </g>
     <g id="line2d_64">
      <g>
       <use xlink:href="#m9da3f1e3cb" x="41.94" y="81.425053" style="stroke: #000000; stroke-width: 0.8"/>
      </g>
     </g>
    </g>
    <g id="ytick_7">
     <g id="line2d_65">
      <path d="M 41.94 18.512406 
L 793.19952 18.512406 
" clip-path="url(#p6b6a8a19f7)" style="fill: none; stroke: #b0b0b0; stroke-opacity: 0.3; stroke-width: 0.7; stroke-linecap: square"/>
     </g>
     <g id="line2d_66">
      <g>
       <use xlink:href="#m9da3f1e3cb" x="41.94" y="18.512406" style="stroke: #000000; stroke-width: 0.8"/>
      </g>
     </g>
     <g id="text_12">
      <!-- 3 -->
      <g transform="translate(22.17 27.630531) scale(0.24 -0.24)">
       <use xlink:href="#DejaVuSans-33"/>
      </g>
     </g>
    </g>
    <g id="ytick_8">
     <g id="line2d_67">
      <defs>
       <path id="m28a77de25a" d="M 0 0 
L -2 0 
" style="stroke: #000000; stroke-width: 0.6"/>
      </defs>
      <g>
       <use xlink:href="#m28a77de25a" x="41.94" y="408.570821" style="stroke: #000000; stroke-width: 0.6"/>
      </g>
     </g>
    </g>
    <g id="ytick_9">
     <g id="line2d_68">
      <g>
       <use xlink:href="#m28a77de25a" x="41.94" y="383.405762" style="stroke: #000000; stroke-width: 0.6"/>
      </g>
     </g>
    </g>
    <g id="ytick_10">
     <g id="line2d_69">
      <g>
       <use xlink:href="#m28a77de25a" x="41.94" y="370.823233" style="stroke: #000000; stroke-width: 0.6"/>
      </g>
     </g>
    </g>
    <g id="ytick_11">
     <g id="line2d_70">
      <g>
       <use xlink:href="#m28a77de25a" x="41.94" y="358.240703" style="stroke: #000000; stroke-width: 0.6"/>
      </g>
     </g>
    </g>
    <g id="ytick_12">
     <g id="line2d_71">
      <g>
       <use xlink:href="#m28a77de25a" x="41.94" y="345.658174" style="stroke: #000000; stroke-width: 0.6"/>
      </g>
     </g>
    </g>
    <g id="ytick_13">
     <g id="line2d_72">
      <g>
       <use xlink:href="#m28a77de25a" x="41.94" y="320.493115" style="stroke: #000000; stroke-width: 0.6"/>
      </g>
     </g>
    </g>
    <g id="ytick_14">
     <g id="line2d_73">
      <g>
       <use xlink:href="#m28a77de25a" x="41.94" y="307.910585" style="stroke: #000000; stroke-width: 0.6"/>
      </g>
     </g>
    </g>
    <g id="ytick_15">
     <g id="line2d_74">
      <g>
       <use xlink:href="#m28a77de25a" x="41.94" y="295.328055" style="stroke: #000000; stroke-width: 0.6"/>
      </g>
     </g>
    </g>
    <g id="ytick_16">
     <g id="line2d_75">
      <g>
       <use xlink:href="#m28a77de25a" x="41.94" y="282.745526" style="stroke: #000000; stroke-width: 0.6"/>
      </g>
     </g>
    </g>
    <g id="ytick_17">
     <g id="line2d_76">
      <g>
       <use xlink:href="#m28a77de25a" x="41.94" y="257.580467" style="stroke: #000000; stroke-width: 0.6"/>
      </g>
     </g>
    </g>
    <g id="ytick_18">
     <g id="line2d_77">
      <g>
       <use xlink:href="#m28a77de25a" x="41.94" y="244.997937" style="stroke: #000000; stroke-width: 0.6"/>
      </g>
     </g>
    </g>
    <g id="ytick_19">
     <g id="line2d_78">
      <g>
       <use xlink:href="#m28a77de25a" x="41.94" y="232.415408" style="stroke: #000000; stroke-width: 0.6"/>
      </g>
     </g>
    </g>
    <g id="ytick_20">
     <g id="line2d_79">
      <g>
       <use xlink:href="#m28a77de25a" x="41.94" y="219.832878" style="stroke: #000000; stroke-width: 0.6"/>
      </g>
     </g>
    </g>
    <g id="ytick_21">
     <g id="line2d_80">
      <g>
       <use xlink:href="#m28a77de25a" x="41.94" y="194.667819" style="stroke: #000000; stroke-width: 0.6"/>
      </g>
     </g>
    </g>
    <g id="ytick_22">
     <g id="line2d_81">
      <g>
       <use xlink:href="#m28a77de25a" x="41.94" y="182.08529" style="stroke: #000000; stroke-width: 0.6"/>
      </g>
     </g>
    </g>
    <g id="ytick_23">
     <g id="line2d_82">
      <g>
       <use xlink:href="#m28a77de25a" x="41.94" y="169.50276" style="stroke: #000000; stroke-width: 0.6"/>
      </g>
     </g>
    </g>
    <g id="ytick_24">
     <g id="line2d_83">
      <g>
       <use xlink:href="#m28a77de25a" x="41.94" y="156.920231" style="stroke: #000000; stroke-width: 0.6"/>
      </g>
     </g>
    </g>
    <g id="ytick_25">
     <g id="line2d_84">
      <g>
       <use xlink:href="#m28a77de25a" x="41.94" y="131.755171" style="stroke: #000000; stroke-width: 0.6"/>
      </g>
     </g>
    </g>
    <g id="ytick_26">
     <g id="line2d_85">
      <g>
       <use xlink:href="#m28a77de25a" x="41.94" y="119.172642" style="stroke: #000000; stroke-width: 0.6"/>
      </g>
     </g>
    </g>
    <g id="ytick_27">
     <g id="line2d_86">
      <g>
       <use xlink:href="#m28a77de25a" x="41.94" y="106.590112" style="stroke: #000000; stroke-width: 0.6"/>
      </g>
     </g>
    </g>
    <g id="ytick_28">
     <g id="line2d_87">
      <g>
       <use xlink:href="#m28a77de25a" x="41.94" y="94.007583" style="stroke: #000000; stroke-width: 0.6"/>
      </g>
     </g>
    </g>
    <g id="ytick_29">
     <g id="line2d_88">
      <g>
       <use xlink:href="#m28a77de25a" x="41.94" y="68.842524" style="stroke: #000000; stroke-width: 0.6"/>
      </g>
     </g>
    </g>
    <g id="ytick_30">
     <g id="line2d_89">
      <g>
       <use xlink:href="#m28a77de25a" x="41.94" y="56.259994" style="stroke: #000000; stroke-width: 0.6"/>
      </g>
     </g>
    </g>
    <g id="ytick_31">
     <g id="line2d_90">
      <g>
       <use xlink:href="#m28a77de25a" x="41.94" y="43.677465" style="stroke: #000000; stroke-width: 0.6"/>
      </g>
     </g>
    </g>
    <g id="ytick_32">
     <g id="line2d_91">
      <g>
       <use xlink:href="#m28a77de25a" x="41.94" y="31.094935" style="stroke: #000000; stroke-width: 0.6"/>
      </g>
     </g>
    </g>
    <g id="text_13">
     <!-- Average amplitude -->
     <g transform="translate(31.515 362.49351) rotate(-90) scale(0.32 -0.32)">
      <defs>
       <path id="DejaVuSans-41" d="M 2188 4044 
L 1331 1722 
L 3047 1722 
L 2188 4044 
z
M 1831 4666 
L 2547 4666 
L 4325 0 
L 3669 0 
L 3244 1197 
L 1141 1197 
L 716 0 
L 50 0 
L 1831 4666 
z
" transform="scale(0.015625)"/>
       <path id="DejaVuSans-76" d="M 191 3500 
L 800 3500 
L 1894 563 
L 2988 3500 
L 3597 3500 
L 2284 0 
L 1503 0 
L 191 3500 
z
" transform="scale(0.015625)"/>
       <path id="DejaVuSans-65" d="M 3597 1894 
L 3597 1613 
L 953 1613 
Q 991 1019 1311 708 
Q 1631 397 2203 397 
Q 2534 397 2845 478 
Q 3156 559 3463 722 
L 3463 178 
Q 3153 47 2828 -22 
Q 2503 -91 2169 -91 
Q 1331 -91 842 396 
Q 353 884 353 1716 
Q 353 2575 817 3079 
Q 1281 3584 2069 3584 
Q 2775 3584 3186 3129 
Q 3597 2675 3597 1894 
z
M 3022 2063 
Q 3016 2534 2758 2815 
Q 2500 3097 2075 3097 
Q 1594 3097 1305 2825 
Q 1016 2553 972 2059 
L 3022 2063 
z
" transform="scale(0.015625)"/>
       <path id="DejaVuSans-72" d="M 2631 2963 
Q 2534 3019 2420 3045 
Q 2306 3072 2169 3072 
Q 1681 3072 1420 2755 
Q 1159 2438 1159 1844 
L 1159 0 
L 581 0 
L 581 3500 
L 1159 3500 
L 1159 2956 
Q 1341 3275 1631 3429 
Q 1922 3584 2338 3584 
Q 2397 3584 2469 3576 
Q 2541 3569 2628 3553 
L 2631 2963 
z
" transform="scale(0.015625)"/>
       <path id="DejaVuSans-61" d="M 2194 1759 
Q 1497 1759 1228 1600 
Q 959 1441 959 1056 
Q 959 750 1161 570 
Q 1363 391 1709 391 
Q 2188 391 2477 730 
Q 2766 1069 2766 1631 
L 2766 1759 
L 2194 1759 
z
M 3341 1997 
L 3341 0 
L 2766 0 
L 2766 531 
Q 2569 213 2275 61 
Q 1981 -91 1556 -91 
Q 1019 -91 701 211 
Q 384 513 384 1019 
Q 384 1609 779 1909 
Q 1175 2209 1959 2209 
L 2766 2209 
L 2766 2266 
Q 2766 2663 2505 2880 
Q 2244 3097 1772 3097 
Q 1472 3097 1187 3025 
Q 903 2953 641 2809 
L 641 3341 
Q 956 3463 1253 3523 
Q 1550 3584 1831 3584 
Q 2591 3584 2966 3190 
Q 3341 2797 3341 1997 
z
" transform="scale(0.015625)"/>
       <path id="DejaVuSans-67" d="M 2906 1791 
Q 2906 2416 2648 2759 
Q 2391 3103 1925 3103 
Q 1463 3103 1205 2759 
Q 947 2416 947 1791 
Q 947 1169 1205 825 
Q 1463 481 1925 481 
Q 2391 481 2648 825 
Q 2906 1169 2906 1791 
z
M 3481 434 
Q 3481 -459 3084 -895 
Q 2688 -1331 1869 -1331 
Q 1566 -1331 1297 -1286 
Q 1028 -1241 775 -1147 
L 775 -588 
Q 1028 -725 1275 -790 
Q 1522 -856 1778 -856 
Q 2344 -856 2625 -561 
Q 2906 -266 2906 331 
L 2906 616 
Q 2728 306 2450 153 
Q 2172 0 1784 0 
Q 1141 0 747 490 
Q 353 981 353 1791 
Q 353 2603 747 3093 
Q 1141 3584 1784 3584 
Q 2172 3584 2450 3431 
Q 2728 3278 2906 2969 
L 2906 3500 
L 3481 3500 
L 3481 434 
z
" transform="scale(0.015625)"/>
       <path id="DejaVuSans-20" transform="scale(0.015625)"/>
       <path id="DejaVuSans-6d" d="M 3328 2828 
Q 3544 3216 3844 3400 
Q 4144 3584 4550 3584 
Q 5097 3584 5394 3201 
Q 5691 2819 5691 2113 
L 5691 0 
L 5113 0 
L 5113 2094 
Q 5113 2597 4934 2840 
Q 4756 3084 4391 3084 
Q 3944 3084 3684 2787 
Q 3425 2491 3425 1978 
L 3425 0 
L 2847 0 
L 2847 2094 
Q 2847 2600 2669 2842 
Q 2491 3084 2119 3084 
Q 1678 3084 1418 2786 
Q 1159 2488 1159 1978 
L 1159 0 
L 581 0 
L 581 3500 
L 1159 3500 
L 1159 2956 
Q 1356 3278 1631 3431 
Q 1906 3584 2284 3584 
Q 2666 3584 2933 3390 
Q 3200 3197 3328 2828 
z
" transform="scale(0.015625)"/>
       <path id="DejaVuSans-70" d="M 1159 525 
L 1159 -1331 
L 581 -1331 
L 581 3500 
L 1159 3500 
L 1159 2969 
Q 1341 3281 1617 3432 
Q 1894 3584 2278 3584 
Q 2916 3584 3314 3078 
Q 3713 2572 3713 1747 
Q 3713 922 3314 415 
Q 2916 -91 2278 -91 
Q 1894 -91 1617 61 
Q 1341 213 1159 525 
z
M 3116 1747 
Q 3116 2381 2855 2742 
Q 2594 3103 2138 3103 
Q 1681 3103 1420 2742 
Q 1159 2381 1159 1747 
Q 1159 1113 1420 752 
Q 1681 391 2138 391 
Q 2594 391 2855 752 
Q 3116 1113 3116 1747 
z
" transform="scale(0.015625)"/>
       <path id="DejaVuSans-6c" d="M 603 4863 
L 1178 4863 
L 1178 0 
L 603 0 
L 603 4863 
z
" transform="scale(0.015625)"/>
       <path id="DejaVuSans-69" d="M 603 3500 
L 1178 3500 
L 1178 0 
L 603 0 
L 603 3500 
z
M 603 4863 
L 1178 4863 
L 1178 4134 
L 603 4134 
L 603 4863 
z
" transform="scale(0.015625)"/>
       <path id="DejaVuSans-74" d="M 1172 4494 
L 1172 3500 
L 2356 3500 
L 2356 3053 
L 1172 3053 
L 1172 1153 
Q 1172 725 1289 603 
Q 1406 481 1766 481 
L 2356 481 
L 2356 0 
L 1766 0 
Q 1100 0 847 248 
Q 594 497 594 1153 
L 594 3053 
L 172 3053 
L 172 3500 
L 594 3500 
L 594 4494 
L 1172 4494 
z
" transform="scale(0.015625)"/>
       <path id="DejaVuSans-75" d="M 544 1381 
L 544 3500 
L 1119 3500 
L 1119 1403 
Q 1119 906 1312 657 
Q 1506 409 1894 409 
Q 2359 409 2629 706 
Q 2900 1003 2900 1516 
L 2900 3500 
L 3475 3500 
L 3475 0 
L 2900 0 
L 2900 538 
Q 2691 219 2414 64 
Q 2138 -91 1772 -91 
Q 1169 -91 856 284 
Q 544 659 544 1381 
z
M 1991 3584 
L 1991 3584 
z
" transform="scale(0.015625)"/>
       <path id="DejaVuSans-64" d="M 2906 2969 
L 2906 4863 
L 3481 4863 
L 3481 0 
L 2906 0 
L 2906 525 
Q 2725 213 2448 61 
Q 2172 -91 1784 -91 
Q 1150 -91 751 415 
Q 353 922 353 1747 
Q 353 2572 751 3078 
Q 1150 3584 1784 3584 
Q 2172 3584 2448 3432 
Q 2725 3281 2906 2969 
z
M 947 1747 
Q 947 1113 1208 752 
Q 1469 391 1925 391 
Q 2381 391 2643 752 
Q 2906 1113 2906 1747 
Q 2906 2381 2643 2742 
Q 2381 3103 1925 3103 
Q 1469 3103 1208 2742 
Q 947 2381 947 1747 
z
" transform="scale(0.015625)"/>
      </defs>
      <use xlink:href="#DejaVuSans-41"/>
      <use xlink:href="#DejaVuSans-76" transform="translate(62.533203 0)"/>
      <use xlink:href="#DejaVuSans-65" transform="translate(121.712891 0)"/>
      <use xlink:href="#DejaVuSans-72" transform="translate(183.236328 0)"/>
      <use xlink:href="#DejaVuSans-61" transform="translate(224.349609 0)"/>
      <use xlink:href="#DejaVuSans-67" transform="translate(285.628906 0)"/>
      <use xlink:href="#DejaVuSans-65" transform="translate(349.105469 0)"/>
      <use xlink:href="#DejaVuSans-20" transform="translate(410.628906 0)"/>
      <use xlink:href="#DejaVuSans-61" transform="translate(442.416016 0)"/>
      <use xlink:href="#DejaVuSans-6d" transform="translate(503.695312 0)"/>
      <use xlink:href="#DejaVuSans-70" transform="translate(601.107422 0)"/>
      <use xlink:href="#DejaVuSans-6c" transform="translate(664.583984 0)"/>
      <use xlink:href="#DejaVuSans-69" transform="translate(692.367188 0)"/>
      <use xlink:href="#DejaVuSans-74" transform="translate(720.150391 0)"/>
      <use xlink:href="#DejaVuSans-75" transform="translate(759.359375 0)"/>
      <use xlink:href="#DejaVuSans-64" transform="translate(822.738281 0)"/>
      <use xlink:href="#DejaVuSans-65" transform="translate(886.214844 0)"/>
     </g>
    </g>
   </g>
   <g id="line2d_92">
    <path d="M 142.837923 395.988292 
L 142.837923 144.337701 
" clip-path="url(#p6b6a8a19f7)" style="fill: none; stroke-dasharray: 3.7,1.6; stroke-dashoffset: 0; stroke: #666666; stroke-opacity: 0.6"/>
   </g>
   <g id="patch_3">
    <path d="M 41.94 414.50202 
L 41.94 7.2 
" style="fill: none; stroke: #000000; stroke-width: 0.9; stroke-linejoin: miter; stroke-linecap: square"/>
   </g>
   <g id="patch_4">
    <path d="M 793.19952 414.50202 
L 793.19952 7.2 
" style="fill: none; stroke: #000000; stroke-width: 0.9; stroke-linejoin: miter; stroke-linecap: square"/>
   </g>
   <g id="patch_5">
    <path d="M 41.94 414.50202 
L 793.19952 414.50202 
" style="fill: none; stroke: #000000; stroke-width: 0.9; stroke-linejoin: miter; stroke-linecap: square"/>
   </g>
   <g id="patch_6">
    <path d="M 41.94 7.2 
L 793.19952 7.2 
" style="fill: none; stroke: #000000; stroke-width: 0.9; stroke-linejoin: miter; stroke-linecap: square"/>
   </g>
   <g id="line2d_93">
    <defs>
     <path id="m28d0f331d0" d="M 0 2 
C 0.530406 2 1.03916 1.789267 1.414214 1.414214 
C 1.789267 1.03916 2 0.530406 2 0 
C 2 -0.530406 1.789267 -1.03916 1.414214 -1.414214 
C 1.03916 -1.789267 0.530406 -2 0 -2 
C -0.530406 -2 -1.03916 -1.789267 -1.414214 -1.414214 
C -1.789267 -1.03916 -2 -0.530406 -2 0 
C -2 0.530406 -1.789267 1.03916 -1.414214 1.414214 
C -1.03916 1.789267 -0.530406 2 0 2 
z
" style="stroke: #901a1e"/>
    </defs>
    <g clip-path="url(#p6b6a8a19f7)">
     <use xlink:href="#m28d0f331d0" x="41.94" y="395.988292" style="fill: #901a1e; stroke: #901a1e"/>
     <use xlink:href="#m28d0f331d0" x="49.081385" y="395.988292" style="fill: #901a1e; stroke: #901a1e"/>
     <use xlink:href="#m28d0f331d0" x="56.224537" y="395.988292" style="fill: #901a1e; stroke: #901a1e"/>
     <use xlink:href="#m28d0f331d0" x="63.365922" y="395.988292" style="fill: #901a1e; stroke: #901a1e"/>
     <use xlink:href="#m28d0f331d0" x="70.509074" y="395.988292" style="fill: #901a1e; stroke: #901a1e"/>
     <use xlink:href="#m28d0f331d0" x="77.650458" y="395.988292" style="fill: #901a1e; stroke: #901a1e"/>
     <use xlink:href="#m28d0f331d0" x="84.791843" y="395.988292" style="fill: #901a1e; stroke: #901a1e"/>
     <use xlink:href="#m28d0f331d0" x="91.934995" y="395.988292" style="fill: #901a1e; stroke: #901a1e"/>
     <use xlink:href="#m28d0f331d0" x="99.07638" y="395.988292" style="fill: #901a1e; stroke: #901a1e"/>
     <use xlink:href="#m28d0f331d0" x="106.219532" y="395.988292" style="fill: #901a1e; stroke: #901a1e"/>
     <use xlink:href="#m28d0f331d0" x="113.360917" y="395.988292" style="fill: #901a1e; stroke: #901a1e"/>
     <use xlink:href="#m28d0f331d0" x="120.502301" y="395.988292" style="fill: #901a1e; stroke: #901a1e"/>
     <use xlink:href="#m28d0f331d0" x="127.645454" y="395.988292" style="fill: #901a1e; stroke: #901a1e"/>
     <use xlink:href="#m28d0f331d0" x="134.786838" y="395.988292" style="fill: #901a1e; stroke: #901a1e"/>
     <use xlink:href="#m28d0f331d0" x="141.929991" y="394.297272" style="fill: #901a1e; stroke: #901a1e"/>
     <use xlink:href="#m28d0f331d0" x="149.071375" y="343.009551" style="fill: #901a1e; stroke: #901a1e"/>
     <use xlink:href="#m28d0f331d0" x="156.21276" y="318.946218" style="fill: #901a1e; stroke: #901a1e"/>
     <use xlink:href="#m28d0f331d0" x="163.355912" y="301.248136" style="fill: #901a1e; stroke: #901a1e"/>
     <use xlink:href="#m28d0f331d0" x="170.497297" y="286.753313" style="fill: #901a1e; stroke: #901a1e"/>
     <use xlink:href="#m28d0f331d0" x="177.640449" y="274.298371" style="fill: #901a1e; stroke: #901a1e"/>
     <use xlink:href="#m28d0f331d0" x="184.781834" y="263.291174" style="fill: #901a1e; stroke: #901a1e"/>
     <use xlink:href="#m28d0f331d0" x="191.923218" y="253.380041" style="fill: #901a1e; stroke: #901a1e"/>
     <use xlink:href="#m28d0f331d0" x="199.066371" y="244.344652" style="fill: #901a1e; stroke: #901a1e"/>
     <use xlink:href="#m28d0f331d0" x="206.207755" y="236.022064" style="fill: #901a1e; stroke: #901a1e"/>
     <use xlink:href="#m28d0f331d0" x="213.350907" y="228.301046" style="fill: #901a1e; stroke: #901a1e"/>
     <use xlink:href="#m28d0f331d0" x="220.492292" y="221.095787" style="fill: #901a1e; stroke: #901a1e"/>
     <use xlink:href="#m28d0f331d0" x="227.635444" y="214.336578" style="fill: #901a1e; stroke: #901a1e"/>
     <use xlink:href="#m28d0f331d0" x="234.776829" y="207.962772" style="fill: #901a1e; stroke: #901a1e"/>
     <use xlink:href="#m28d0f331d0" x="241.918214" y="201.942157" style="fill: #901a1e; stroke: #901a1e"/>
     <use xlink:href="#m28d0f331d0" x="249.061366" y="196.233967" style="fill: #901a1e; stroke: #901a1e"/>
     <use xlink:href="#m28d0f331d0" x="256.20275" y="190.798691" style="fill: #901a1e; stroke: #901a1e"/>
     <use xlink:href="#m28d0f331d0" x="263.345903" y="185.619974" style="fill: #901a1e; stroke: #901a1e"/>
     <use xlink:href="#m28d0f331d0" x="270.487287" y="180.674662" style="fill: #901a1e; stroke: #901a1e"/>
     <use xlink:href="#m28d0f331d0" x="277.628672" y="175.943505" style="fill: #901a1e; stroke: #901a1e"/>
     <use xlink:href="#m28d0f331d0" x="284.771824" y="171.411278" style="fill: #901a1e; stroke: #901a1e"/>
     <use xlink:href="#m28d0f331d0" x="291.913209" y="167.050299" style="fill: #901a1e; stroke: #901a1e"/>
     <use xlink:href="#m28d0f331d0" x="299.056361" y="162.859939" style="fill: #901a1e; stroke: #901a1e"/>
     <use xlink:href="#m28d0f331d0" x="306.197746" y="158.832901" style="fill: #901a1e; stroke: #901a1e"/>
     <use xlink:href="#m28d0f331d0" x="313.33913" y="154.949429" style="fill: #901a1e; stroke: #901a1e"/>
     <use xlink:href="#m28d0f331d0" x="320.482283" y="151.198703" style="fill: #901a1e; stroke: #901a1e"/>
     <use xlink:href="#m28d0f331d0" x="327.623667" y="147.588523" style="fill: #901a1e; stroke: #901a1e"/>
     <use xlink:href="#m28d0f331d0" x="334.76682" y="144.083408" style="fill: #901a1e; stroke: #901a1e"/>
     <use xlink:href="#m28d0f331d0" x="341.908204" y="140.708648" style="fill: #901a1e; stroke: #901a1e"/>
     <use xlink:href="#m28d0f331d0" x="349.049589" y="137.427376" style="fill: #901a1e; stroke: #901a1e"/>
     <use xlink:href="#m28d0f331d0" x="356.192741" y="134.25834" style="fill: #901a1e; stroke: #901a1e"/>
     <use xlink:href="#m28d0f331d0" x="363.334126" y="131.184554" style="fill: #901a1e; stroke: #901a1e"/>
     <use xlink:href="#m28d0f331d0" x="370.477278" y="128.197965" style="fill: #901a1e; stroke: #901a1e"/>
     <use xlink:href="#m28d0f331d0" x="377.618663" y="125.311029" style="fill: #901a1e; stroke: #901a1e"/>
     <use xlink:href="#m28d0f331d0" x="384.760047" y="122.495436" style="fill: #901a1e; stroke: #901a1e"/>
     <use xlink:href="#m28d0f331d0" x="391.903199" y="119.763014" style="fill: #901a1e; stroke: #901a1e"/>
     <use xlink:href="#m28d0f331d0" x="399.044584" y="117.117915" style="fill: #901a1e; stroke: #901a1e"/>
     <use xlink:href="#m28d0f331d0" x="406.187736" y="114.529437" style="fill: #901a1e; stroke: #901a1e"/>
     <use xlink:href="#m28d0f331d0" x="413.329121" y="112.017964" style="fill: #901a1e; stroke: #901a1e"/>
     <use xlink:href="#m28d0f331d0" x="420.470506" y="109.585006" style="fill: #901a1e; stroke: #901a1e"/>
     <use xlink:href="#m28d0f331d0" x="427.613658" y="107.195584" style="fill: #901a1e; stroke: #901a1e"/>
     <use xlink:href="#m28d0f331d0" x="434.755042" y="104.880021" style="fill: #901a1e; stroke: #901a1e"/>
     <use xlink:href="#m28d0f331d0" x="441.898195" y="102.630642" style="fill: #901a1e; stroke: #901a1e"/>
     <use xlink:href="#m28d0f331d0" x="449.039579" y="100.422282" style="fill: #901a1e; stroke: #901a1e"/>
     <use xlink:href="#m28d0f331d0" x="456.180964" y="98.277842" style="fill: #901a1e; stroke: #901a1e"/>
     <use xlink:href="#m28d0f331d0" x="463.324116" y="96.190526" style="fill: #901a1e; stroke: #901a1e"/>
     <use xlink:href="#m28d0f331d0" x="470.465501" y="94.152282" style="fill: #901a1e; stroke: #901a1e"/>
     <use xlink:href="#m28d0f331d0" x="477.608653" y="92.159083" style="fill: #901a1e; stroke: #901a1e"/>
     <use xlink:href="#m28d0f331d0" x="484.750038" y="90.224016" style="fill: #901a1e; stroke: #901a1e"/>
     <use xlink:href="#m28d0f331d0" x="491.891422" y="88.326948" style="fill: #901a1e; stroke: #901a1e"/>
     <use xlink:href="#m28d0f331d0" x="499.034575" y="86.476561" style="fill: #901a1e; stroke: #901a1e"/>
     <use xlink:href="#m28d0f331d0" x="506.175959" y="84.668704" style="fill: #901a1e; stroke: #901a1e"/>
     <use xlink:href="#m28d0f331d0" x="513.319112" y="82.910673" style="fill: #901a1e; stroke: #901a1e"/>
     <use xlink:href="#m28d0f331d0" x="520.460496" y="81.182462" style="fill: #901a1e; stroke: #901a1e"/>
     <use xlink:href="#m28d0f331d0" x="527.601881" y="79.500933" style="fill: #901a1e; stroke: #901a1e"/>
     <use xlink:href="#m28d0f331d0" x="534.745033" y="77.85539" style="fill: #901a1e; stroke: #901a1e"/>
     <use xlink:href="#m28d0f331d0" x="541.886418" y="76.248774" style="fill: #901a1e; stroke: #901a1e"/>
     <use xlink:href="#m28d0f331d0" x="549.02957" y="74.679506" style="fill: #901a1e; stroke: #901a1e"/>
     <use xlink:href="#m28d0f331d0" x="556.170955" y="73.087781" style="fill: #901a1e; stroke: #901a1e"/>
     <use xlink:href="#m28d0f331d0" x="563.312339" y="71.435638" style="fill: #901a1e; stroke: #901a1e"/>
     <use xlink:href="#m28d0f331d0" x="570.455491" y="69.818422" style="fill: #901a1e; stroke: #901a1e"/>
     <use xlink:href="#m28d0f331d0" x="577.596876" y="68.238175" style="fill: #901a1e; stroke: #901a1e"/>
     <use xlink:href="#m28d0f331d0" x="584.740028" y="66.695205" style="fill: #901a1e; stroke: #901a1e"/>
     <use xlink:href="#m28d0f331d0" x="591.881413" y="65.187113" style="fill: #901a1e; stroke: #901a1e"/>
     <use xlink:href="#m28d0f331d0" x="599.024565" y="63.715533" style="fill: #901a1e; stroke: #901a1e"/>
     <use xlink:href="#m28d0f331d0" x="606.16595" y="62.278237" style="fill: #901a1e; stroke: #901a1e"/>
     <use xlink:href="#m28d0f331d0" x="613.307335" y="60.873174" style="fill: #901a1e; stroke: #901a1e"/>
     <use xlink:href="#m28d0f331d0" x="620.450487" y="59.499867" style="fill: #901a1e; stroke: #901a1e"/>
     <use xlink:href="#m28d0f331d0" x="627.591871" y="58.155373" style="fill: #901a1e; stroke: #901a1e"/>
     <use xlink:href="#m28d0f331d0" x="634.735024" y="56.837809" style="fill: #901a1e; stroke: #901a1e"/>
     <use xlink:href="#m28d0f331d0" x="641.876408" y="55.545464" style="fill: #901a1e; stroke: #901a1e"/>
     <use xlink:href="#m28d0f331d0" x="649.017793" y="54.274952" style="fill: #901a1e; stroke: #901a1e"/>
     <use xlink:href="#m28d0f331d0" x="656.160945" y="53.02333" style="fill: #901a1e; stroke: #901a1e"/>
     <use xlink:href="#m28d0f331d0" x="663.30233" y="51.786801" style="fill: #901a1e; stroke: #901a1e"/>
     <use xlink:href="#m28d0f331d0" x="670.445482" y="50.561785" style="fill: #901a1e; stroke: #901a1e"/>
     <use xlink:href="#m28d0f331d0" x="677.586867" y="49.338118" style="fill: #901a1e; stroke: #901a1e"/>
     <use xlink:href="#m28d0f331d0" x="684.728251" y="48.112328" style="fill: #901a1e; stroke: #901a1e"/>
     <use xlink:href="#m28d0f331d0" x="691.871404" y="46.872946" style="fill: #901a1e; stroke: #901a1e"/>
     <use xlink:href="#m28d0f331d0" x="699.012788" y="45.605665" style="fill: #901a1e; stroke: #901a1e"/>
     <use xlink:href="#m28d0f331d0" x="706.155941" y="44.288076" style="fill: #901a1e; stroke: #901a1e"/>
     <use xlink:href="#m28d0f331d0" x="713.297325" y="42.893545" style="fill: #901a1e; stroke: #901a1e"/>
     <use xlink:href="#m28d0f331d0" x="720.43871" y="41.586053" style="fill: #901a1e; stroke: #901a1e"/>
     <use xlink:href="#m28d0f331d0" x="727.581862" y="40.765273" style="fill: #901a1e; stroke: #901a1e"/>
     <use xlink:href="#m28d0f331d0" x="734.723247" y="39.963967" style="fill: #901a1e; stroke: #901a1e"/>
     <use xlink:href="#m28d0f331d0" x="741.866399" y="38.061448" style="fill: #901a1e; stroke: #901a1e"/>
     <use xlink:href="#m28d0f331d0" x="749.007784" y="41.918804" style="fill: #901a1e; stroke: #901a1e"/>
    </g>
   </g>
   <g id="line2d_94">
    <path d="M 142.837923 395.988166 
L 142.952724 388.752867 
L 143.282289 381.758745 
L 143.827767 374.764623 
L 144.590852 367.770501 
L 145.57392 360.776379 
L 146.78005 353.782256 
L 148.213043 346.788134 
L 149.877446 339.794012 
L 151.709025 333.041067 
L 153.766813 326.288121 
L 156.057075 319.535175 
L 158.586871 312.78223 
L 161.260553 306.270461 
L 164.172172 299.758692 
L 167.330424 293.246923 
L 170.61374 286.976331 
L 174.144028 280.705739 
L 177.931562 274.435146 
L 181.987565 268.164554 
L 186.152143 262.135138 
L 190.588123 256.105723 
L 195.308403 250.076307 
L 200.120347 244.288068 
L 205.220684 238.499829 
L 210.62401 232.71159 
L 216.101147 227.164528 
L 221.886166 221.617465 
L 227.995394 216.070403 
L 234.446507 210.52334 
L 240.954697 205.217455 
L 247.811354 199.911569 
L 255.036113 194.605683 
L 262.650235 189.299797 
L 270.302635 184.235088 
L 278.35251 179.170379 
L 286.823366 174.10567 
L 295.74068 169.040961 
L 304.673704 164.217428 
L 314.062637 159.393896 
L 323.935547 154.570363 
L 334.322891 149.74683 
L 345.257773 144.923298 
L 356.185847 140.340942 
L 367.674163 135.758586 
L 379.759242 131.17623 
L 392.480849 126.593874 
L 405.882347 122.011518 
L 419.248537 117.670339 
L 433.311384 113.32916 
L 448.118861 108.987981 
L 463.723402 104.646801 
L 480.182424 100.305622 
L 497.558924 95.964443 
L 514.874834 91.86444 
L 533.134938 87.764437 
L 552.409627 83.664435 
L 572.776363 79.564432 
L 594.320575 75.46443 
L 615.757546 71.605604 
L 638.408081 67.746778 
L 662.368198 63.887951 
L 687.744162 60.029125 
L 714.653872 56.170299 
L 743.228496 52.311473 
L 748.783195 51.587944 
L 748.783195 51.587944 
" clip-path="url(#p6b6a8a19f7)" style="fill: none; stroke-dasharray: 7.4,3.2; stroke-dashoffset: 0; stroke: #547aa5; stroke-width: 2"/>
   </g>
   <g id="line2d_95">
    <path d="M 146.373262 355.978638 
L 148.388762 345.95915 
L 150.404262 337.699217 
L 152.419763 330.528412 
L 154.435263 324.119169 
L 156.450763 318.28208 
L 158.466263 312.895805 
L 160.481763 307.877008 
L 164.512763 298.716048 
L 168.543763 290.470731 
L 172.574763 282.937026 
L 176.605763 275.977684 
L 180.636764 269.494997 
L 184.667764 263.416399 
L 188.698764 257.686185 
L 192.729764 252.260453 
L 196.760764 247.10385 
L 202.807264 239.811503 
L 208.853765 232.982106 
L 214.900265 226.554399 
L 220.946765 220.479447 
L 226.993265 214.717396 
L 233.039765 209.23526 
L 239.086266 204.005358 
L 247.148266 197.38439 
L 255.210266 191.123668 
L 263.272266 185.18448 
L 271.334267 179.534356 
L 279.396267 174.145737 
L 287.458267 168.995006 
L 297.535768 162.860261 
L 307.613268 157.031248 
L 317.690768 151.478833 
L 327.768269 146.177997 
L 337.845769 141.10708 
L 349.938769 135.299045 
L 362.03177 129.766697 
L 374.12477 124.48562 
L 386.217771 119.43461 
L 400.326271 113.807937 
L 414.434772 108.443625 
L 428.543272 103.319438 
L 442.651773 98.415969 
L 458.775773 93.060513 
L 474.899774 87.948883 
L 491.023774 83.061641 
L 509.163275 77.810534 
L 527.302776 72.800559 
L 545.442276 68.013071 
L 565.597277 62.934684 
L 585.752278 58.090941 
L 605.907278 53.464425 
L 628.077779 48.607814 
L 650.24828 43.977285 
L 674.434281 39.164808 
L 698.620282 34.583794 
L 722.806283 30.217826 
L 749.007784 25.713728 
L 749.007784 25.713728 
" clip-path="url(#p6b6a8a19f7)" style="fill: none; stroke-dasharray: 7.4,3.2; stroke-dashoffset: 0; stroke: #cba810; stroke-width: 2"/>
   </g>
   <g id="legend_1">
    <g id="patch_7">
     <path d="M 53.14 137.495 
L 344.66 137.495 
Q 347.86 137.495 347.86 134.295 
L 347.86 18.4 
Q 347.86 15.2 344.66 15.2 
L 53.14 15.2 
Q 49.94 15.2 49.94 18.4 
L 49.94 134.295 
Q 49.94 137.495 53.14 137.495 
z
" style="fill: #ffffff; opacity: 0.8; stroke: #cccccc; stroke-linejoin: miter"/>
    </g>
    <g id="line2d_96">
     <g>
      <use xlink:href="#m28d0f331d0" x="72.34" y="28.1575" style="fill: #901a1e; stroke: #901a1e"/>
     </g>
    </g>
    <g id="text_14">
     <!-- Simulation  (IC = $\pm 1$) -->
     <g transform="translate(101.14 33.7575) scale(0.16 -0.16)">
      <defs>
       <path id="DejaVuSans-53" d="M 3425 4513 
L 3425 3897 
Q 3066 4069 2747 4153 
Q 2428 4238 2131 4238 
Q 1616 4238 1336 4038 
Q 1056 3838 1056 3469 
Q 1056 3159 1242 3001 
Q 1428 2844 1947 2747 
L 2328 2669 
Q 3034 2534 3370 2195 
Q 3706 1856 3706 1288 
Q 3706 609 3251 259 
Q 2797 -91 1919 -91 
Q 1588 -91 1214 -16 
Q 841 59 441 206 
L 441 856 
Q 825 641 1194 531 
Q 1563 422 1919 422 
Q 2459 422 2753 634 
Q 3047 847 3047 1241 
Q 3047 1584 2836 1778 
Q 2625 1972 2144 2069 
L 1759 2144 
Q 1053 2284 737 2584 
Q 422 2884 422 3419 
Q 422 4038 858 4394 
Q 1294 4750 2059 4750 
Q 2388 4750 2728 4690 
Q 3069 4631 3425 4513 
z
" transform="scale(0.015625)"/>
       <path id="DejaVuSans-6f" d="M 1959 3097 
Q 1497 3097 1228 2736 
Q 959 2375 959 1747 
Q 959 1119 1226 758 
Q 1494 397 1959 397 
Q 2419 397 2687 759 
Q 2956 1122 2956 1747 
Q 2956 2369 2687 2733 
Q 2419 3097 1959 3097 
z
M 1959 3584 
Q 2709 3584 3137 3096 
Q 3566 2609 3566 1747 
Q 3566 888 3137 398 
Q 2709 -91 1959 -91 
Q 1206 -91 779 398 
Q 353 888 353 1747 
Q 353 2609 779 3096 
Q 1206 3584 1959 3584 
z
" transform="scale(0.015625)"/>
       <path id="DejaVuSans-6e" d="M 3513 2113 
L 3513 0 
L 2938 0 
L 2938 2094 
Q 2938 2591 2744 2837 
Q 2550 3084 2163 3084 
Q 1697 3084 1428 2787 
Q 1159 2491 1159 1978 
L 1159 0 
L 581 0 
L 581 3500 
L 1159 3500 
L 1159 2956 
Q 1366 3272 1645 3428 
Q 1925 3584 2291 3584 
Q 2894 3584 3203 3211 
Q 3513 2838 3513 2113 
z
" transform="scale(0.015625)"/>
       <path id="DejaVuSans-28" d="M 1984 4856 
Q 1566 4138 1362 3434 
Q 1159 2731 1159 2009 
Q 1159 1288 1364 580 
Q 1569 -128 1984 -844 
L 1484 -844 
Q 1016 -109 783 600 
Q 550 1309 550 2009 
Q 550 2706 781 3412 
Q 1013 4119 1484 4856 
L 1984 4856 
z
" transform="scale(0.015625)"/>
       <path id="DejaVuSans-49" d="M 628 4666 
L 1259 4666 
L 1259 0 
L 628 0 
L 628 4666 
z
" transform="scale(0.015625)"/>
       <path id="DejaVuSans-43" d="M 4122 4306 
L 4122 3641 
Q 3803 3938 3442 4084 
Q 3081 4231 2675 4231 
Q 1875 4231 1450 3742 
Q 1025 3253 1025 2328 
Q 1025 1406 1450 917 
Q 1875 428 2675 428 
Q 3081 428 3442 575 
Q 3803 722 4122 1019 
L 4122 359 
Q 3791 134 3420 21 
Q 3050 -91 2638 -91 
Q 1578 -91 968 557 
Q 359 1206 359 2328 
Q 359 3453 968 4101 
Q 1578 4750 2638 4750 
Q 3056 4750 3426 4639 
Q 3797 4528 4122 4306 
z
" transform="scale(0.015625)"/>
       <path id="DejaVuSans-3d" d="M 678 2906 
L 4684 2906 
L 4684 2381 
L 678 2381 
L 678 2906 
z
M 678 1631 
L 4684 1631 
L 4684 1100 
L 678 1100 
L 678 1631 
z
" transform="scale(0.015625)"/>
       <path id="DejaVuSans-b1" d="M 2944 4013 
L 2944 2803 
L 4684 2803 
L 4684 2272 
L 2944 2272 
L 2944 1063 
L 2419 1063 
L 2419 2272 
L 678 2272 
L 678 2803 
L 2419 2803 
L 2419 4013 
L 2944 4013 
z
M 678 531 
L 4684 531 
L 4684 0 
L 678 0 
L 678 531 
z
" transform="scale(0.015625)"/>
       <path id="DejaVuSans-29" d="M 513 4856 
L 1013 4856 
Q 1481 4119 1714 3412 
Q 1947 2706 1947 2009 
Q 1947 1309 1714 600 
Q 1481 -109 1013 -844 
L 513 -844 
Q 928 -128 1133 580 
Q 1338 1288 1338 2009 
Q 1338 2731 1133 3434 
Q 928 4138 513 4856 
z
" transform="scale(0.015625)"/>
      </defs>
      <use xlink:href="#DejaVuSans-53" transform="translate(0 0.015625)"/>
      <use xlink:href="#DejaVuSans-69" transform="translate(63.476562 0.015625)"/>
      <use xlink:href="#DejaVuSans-6d" transform="translate(91.259766 0.015625)"/>
      <use xlink:href="#DejaVuSans-75" transform="translate(188.671875 0.015625)"/>
      <use xlink:href="#DejaVuSans-6c" transform="translate(252.050781 0.015625)"/>
      <use xlink:href="#DejaVuSans-61" transform="translate(279.833984 0.015625)"/>
      <use xlink:href="#DejaVuSans-74" transform="translate(341.113281 0.015625)"/>
      <use xlink:href="#DejaVuSans-69" transform="translate(380.322266 0.015625)"/>
      <use xlink:href="#DejaVuSans-6f" transform="translate(408.105469 0.015625)"/>
      <use xlink:href="#DejaVuSans-6e" transform="translate(469.287109 0.015625)"/>
      <use xlink:href="#DejaVuSans-20" transform="translate(532.666016 0.015625)"/>
      <use xlink:href="#DejaVuSans-20" transform="translate(564.453125 0.015625)"/>
      <use xlink:href="#DejaVuSans-28" transform="translate(596.240234 0.015625)"/>
      <use xlink:href="#DejaVuSans-49" transform="translate(635.253906 0.015625)"/>
      <use xlink:href="#DejaVuSans-43" transform="translate(664.746094 0.015625)"/>
      <use xlink:href="#DejaVuSans-20" transform="translate(734.570312 0.015625)"/>
      <use xlink:href="#DejaVuSans-3d" transform="translate(766.357422 0.015625)"/>
      <use xlink:href="#DejaVuSans-20" transform="translate(850.146484 0.015625)"/>
      <use xlink:href="#DejaVuSans-b1" transform="translate(881.933594 0.015625)"/>
      <use xlink:href="#DejaVuSans-31" transform="translate(965.722656 0.015625)"/>
      <use xlink:href="#DejaVuSans-29" transform="translate(1029.345703 0.015625)"/>
     </g>
    </g>
    <g id="line2d_97">
     <path d="M 56.34 51.645 
L 72.34 51.645 
L 88.34 51.645 
" style="fill: none; stroke-dasharray: 7.4,3.2; stroke-dashoffset: 0; stroke: #547aa5; stroke-width: 2"/>
    </g>
    <g id="text_15">
     <!-- 1-harmonic: $2J_1(R)/R = \pi/(2\tau k)$ -->
     <g transform="translate(101.14 57.245) scale(0.16 -0.16)">
      <defs>
       <path id="DejaVuSans-2d" d="M 313 2009 
L 1997 2009 
L 1997 1497 
L 313 1497 
L 313 2009 
z
" transform="scale(0.015625)"/>
       <path id="DejaVuSans-68" d="M 3513 2113 
L 3513 0 
L 2938 0 
L 2938 2094 
Q 2938 2591 2744 2837 
Q 2550 3084 2163 3084 
Q 1697 3084 1428 2787 
Q 1159 2491 1159 1978 
L 1159 0 
L 581 0 
L 581 4863 
L 1159 4863 
L 1159 2956 
Q 1366 3272 1645 3428 
Q 1925 3584 2291 3584 
Q 2894 3584 3203 3211 
Q 3513 2838 3513 2113 
z
" transform="scale(0.015625)"/>
       <path id="DejaVuSans-63" d="M 3122 3366 
L 3122 2828 
Q 2878 2963 2633 3030 
Q 2388 3097 2138 3097 
Q 1578 3097 1268 2742 
Q 959 2388 959 1747 
Q 959 1106 1268 751 
Q 1578 397 2138 397 
Q 2388 397 2633 464 
Q 2878 531 3122 666 
L 3122 134 
Q 2881 22 2623 -34 
Q 2366 -91 2075 -91 
Q 1284 -91 818 406 
Q 353 903 353 1747 
Q 353 2603 823 3093 
Q 1294 3584 2113 3584 
Q 2378 3584 2631 3529 
Q 2884 3475 3122 3366 
z
" transform="scale(0.015625)"/>
       <path id="DejaVuSans-3a" d="M 750 794 
L 1409 794 
L 1409 0 
L 750 0 
L 750 794 
z
M 750 3309 
L 1409 3309 
L 1409 2516 
L 750 2516 
L 750 3309 
z
" transform="scale(0.015625)"/>
       <path id="DejaVuSans-Oblique-4a" d="M 1069 4666 
L 1703 4666 
L 856 325 
Q 691 -522 298 -901 
Q -94 -1281 -800 -1281 
L -1050 -1281 
L -947 -750 
L -750 -750 
Q -328 -750 -109 -509 
Q 109 -269 225 325 
L 1069 4666 
z
" transform="scale(0.015625)"/>
       <path id="DejaVuSans-Oblique-52" d="M 1613 4147 
L 1294 2491 
L 2106 2491 
Q 2584 2491 2879 2755 
Q 3175 3019 3175 3444 
Q 3175 3784 2976 3965 
Q 2778 4147 2406 4147 
L 1613 4147 
z
M 2772 2241 
Q 2972 2194 3105 2009 
Q 3238 1825 3413 1275 
L 3809 0 
L 3144 0 
L 2778 1197 
Q 2638 1659 2453 1815 
Q 2269 1972 1888 1972 
L 1191 1972 
L 806 0 
L 172 0 
L 1081 4666 
L 2503 4666 
Q 3150 4666 3495 4373 
Q 3841 4081 3841 3531 
Q 3841 3044 3547 2687 
Q 3253 2331 2772 2241 
z
" transform="scale(0.015625)"/>
       <path id="DejaVuSans-2f" d="M 1625 4666 
L 2156 4666 
L 531 -594 
L 0 -594 
L 1625 4666 
z
" transform="scale(0.015625)"/>
       <path id="DejaVuSans-Oblique-3c0" d="M 584 3500 
L 3938 3500 
L 3825 2925 
L 3384 2925 
L 2966 775 
Q 2922 550 2981 450 
Q 3038 353 3209 353 
Q 3256 353 3325 363 
Q 3397 369 3419 372 
L 3338 -44 
Q 3222 -84 3103 -103 
Q 2981 -122 2866 -122 
Q 2491 -122 2388 81 
Q 2284 288 2391 838 
L 2797 2925 
L 1506 2925 
L 938 0 
L 350 0 
L 919 2925 
L 472 2925 
L 584 3500 
z
" transform="scale(0.015625)"/>
      </defs>
      <use xlink:href="#DejaVuSans-31" transform="translate(0 0.015625)"/>
      <use xlink:href="#DejaVuSans-2d" transform="translate(63.623047 0.015625)"/>
      <use xlink:href="#DejaVuSans-68" transform="translate(99.707031 0.015625)"/>
      <use xlink:href="#DejaVuSans-61" transform="translate(163.085938 0.015625)"/>
      <use xlink:href="#DejaVuSans-72" transform="translate(224.365234 0.015625)"/>
      <use xlink:href="#DejaVuSans-6d" transform="translate(265.478516 0.015625)"/>
      <use xlink:href="#DejaVuSans-6f" transform="translate(362.890625 0.015625)"/>
      <use xlink:href="#DejaVuSans-6e" transform="translate(424.072266 0.015625)"/>
      <use xlink:href="#DejaVuSans-69" transform="translate(487.451172 0.015625)"/>
      <use xlink:href="#DejaVuSans-63" transform="translate(515.234375 0.015625)"/>
      <use xlink:href="#DejaVuSans-3a" transform="translate(570.214844 0.015625)"/>
      <use xlink:href="#DejaVuSans-20" transform="translate(603.90625 0.015625)"/>
      <use xlink:href="#DejaVuSans-32" transform="translate(635.693359 0.015625)"/>
      <use xlink:href="#DejaVuSans-Oblique-4a" transform="translate(699.316406 0.015625)"/>
      <use xlink:href="#DejaVuSans-31" transform="translate(728.808594 -16.390625) scale(0.7)"/>
      <use xlink:href="#DejaVuSans-28" transform="translate(776.079102 0.015625)"/>
      <use xlink:href="#DejaVuSans-Oblique-52" transform="translate(815.092773 0.015625)"/>
      <use xlink:href="#DejaVuSans-29" transform="translate(884.575195 0.015625)"/>
      <use xlink:href="#DejaVuSans-2f" transform="translate(923.588867 0.015625)"/>
      <use xlink:href="#DejaVuSans-Oblique-52" transform="translate(955.530273 0.015625)"/>
      <use xlink:href="#DejaVuSans-3d" transform="translate(1044.495117 0.015625)"/>
      <use xlink:href="#DejaVuSans-Oblique-3c0" transform="translate(1147.766602 0.015625)"/>
      <use xlink:href="#DejaVuSans-2f" transform="translate(1207.97168 0.015625)"/>
      <use xlink:href="#DejaVuSans-28" transform="translate(1241.663086 0.015625)"/>
      <use xlink:href="#DejaVuSans-32" transform="translate(1280.676758 0.015625)"/>
      <use xlink:href="#DejaVuSans-Oblique-3c4" transform="translate(1344.299805 0.015625)"/>
      <use xlink:href="#DejaVuSans-Oblique-6b" transform="translate(1404.504883 0.015625)"/>
      <use xlink:href="#DejaVuSans-29" transform="translate(1462.415039 0.015625)"/>
     </g>
    </g>
    <g id="line2d_98">
     <path d="M 56.34 75.1625 
L 72.34 75.1625 
L 88.34 75.1625 
" style="fill: none; stroke-dasharray: 7.4,3.2; stroke-dashoffset: 0; stroke: #cba810; stroke-width: 2"/>
    </g>
    <g id="text_16">
     <!-- 2-harmonic HB: $+\, R_3\cos 3\omega t$ -->
     <g transform="translate(101.14 80.7625) scale(0.16 -0.16)">
      <defs>
       <path id="DejaVuSans-48" d="M 628 4666 
L 1259 4666 
L 1259 2753 
L 3553 2753 
L 3553 4666 
L 4184 4666 
L 4184 0 
L 3553 0 
L 3553 2222 
L 1259 2222 
L 1259 0 
L 628 0 
L 628 4666 
z
" transform="scale(0.015625)"/>
       <path id="DejaVuSans-42" d="M 1259 2228 
L 1259 519 
L 2272 519 
Q 2781 519 3026 730 
Q 3272 941 3272 1375 
Q 3272 1813 3026 2020 
Q 2781 2228 2272 2228 
L 1259 2228 
z
M 1259 4147 
L 1259 2741 
L 2194 2741 
Q 2656 2741 2882 2914 
Q 3109 3088 3109 3444 
Q 3109 3797 2882 3972 
Q 2656 4147 2194 4147 
L 1259 4147 
z
M 628 4666 
L 2241 4666 
Q 2963 4666 3353 4366 
Q 3744 4066 3744 3513 
Q 3744 3084 3544 2831 
Q 3344 2578 2956 2516 
Q 3422 2416 3680 2098 
Q 3938 1781 3938 1306 
Q 3938 681 3513 340 
Q 3088 0 2303 0 
L 628 0 
L 628 4666 
z
" transform="scale(0.015625)"/>
       <path id="DejaVuSans-2b" d="M 2944 4013 
L 2944 2272 
L 4684 2272 
L 4684 1741 
L 2944 1741 
L 2944 0 
L 2419 0 
L 2419 1741 
L 678 1741 
L 678 2272 
L 2419 2272 
L 2419 4013 
L 2944 4013 
z
" transform="scale(0.015625)"/>
       <path id="DejaVuSans-73" d="M 2834 3397 
L 2834 2853 
Q 2591 2978 2328 3040 
Q 2066 3103 1784 3103 
Q 1356 3103 1142 2972 
Q 928 2841 928 2578 
Q 928 2378 1081 2264 
Q 1234 2150 1697 2047 
L 1894 2003 
Q 2506 1872 2764 1633 
Q 3022 1394 3022 966 
Q 3022 478 2636 193 
Q 2250 -91 1575 -91 
Q 1294 -91 989 -36 
Q 684 19 347 128 
L 347 722 
Q 666 556 975 473 
Q 1284 391 1588 391 
Q 1994 391 2212 530 
Q 2431 669 2431 922 
Q 2431 1156 2273 1281 
Q 2116 1406 1581 1522 
L 1381 1569 
Q 847 1681 609 1914 
Q 372 2147 372 2553 
Q 372 3047 722 3315 
Q 1072 3584 1716 3584 
Q 2034 3584 2315 3537 
Q 2597 3491 2834 3397 
z
" transform="scale(0.015625)"/>
       <path id="DejaVuSans-Oblique-3c9" d="M 1369 -91 
Q 72 -91 434 1766 
Q 575 2500 1256 3500 
L 1875 3500 
Q 1231 2500 1088 1750 
Q 819 397 1519 397 
Q 2166 397 2478 2078 
L 3009 2078 
Q 2669 388 3316 397 
Q 4013 403 4275 1750 
Q 4419 2500 4169 3500 
L 4788 3500 
Q 5075 2500 4934 1766 
Q 4578 -94 3278 -91 
Q 2428 -88 2503 844 
Q 2194 -91 1369 -91 
z
" transform="scale(0.015625)"/>
       <path id="DejaVuSans-Oblique-74" d="M 2706 3500 
L 2619 3053 
L 1472 3053 
L 1100 1153 
Q 1081 1047 1072 975 
Q 1063 903 1063 863 
Q 1063 663 1183 572 
Q 1303 481 1569 481 
L 2150 481 
L 2053 0 
L 1503 0 
Q 991 0 739 200 
Q 488 400 488 806 
Q 488 878 497 964 
Q 506 1050 525 1153 
L 897 3053 
L 409 3053 
L 500 3500 
L 978 3500 
L 1172 4494 
L 1747 4494 
L 1556 3500 
L 2706 3500 
z
" transform="scale(0.015625)"/>
      </defs>
      <use xlink:href="#DejaVuSans-32" transform="translate(0 0.015625)"/>
      <use xlink:href="#DejaVuSans-2d" transform="translate(63.623047 0.015625)"/>
      <use xlink:href="#DejaVuSans-68" transform="translate(99.707031 0.015625)"/>
      <use xlink:href="#DejaVuSans-61" transform="translate(163.085938 0.015625)"/>
      <use xlink:href="#DejaVuSans-72" transform="translate(224.365234 0.015625)"/>
      <use xlink:href="#DejaVuSans-6d" transform="translate(265.478516 0.015625)"/>
      <use xlink:href="#DejaVuSans-6f" transform="translate(362.890625 0.015625)"/>
      <use xlink:href="#DejaVuSans-6e" transform="translate(424.072266 0.015625)"/>
      <use xlink:href="#DejaVuSans-69" transform="translate(487.451172 0.015625)"/>
      <use xlink:href="#DejaVuSans-63" transform="translate(515.234375 0.015625)"/>
      <use xlink:href="#DejaVuSans-20" transform="translate(570.214844 0.015625)"/>
      <use xlink:href="#DejaVuSans-48" transform="translate(602.001953 0.015625)"/>
      <use xlink:href="#DejaVuSans-42" transform="translate(677.197266 0.015625)"/>
      <use xlink:href="#DejaVuSans-3a" transform="translate(745.800781 0.015625)"/>
      <use xlink:href="#DejaVuSans-20" transform="translate(779.492188 0.015625)"/>
      <use xlink:href="#DejaVuSans-2b" transform="translate(811.279297 0.015625)"/>
      <use xlink:href="#DejaVuSans-Oblique-52" transform="translate(911.304036 0.015625)"/>
      <use xlink:href="#DejaVuSans-33" transform="translate(980.786458 -16.390625) scale(0.7)"/>
      <use xlink:href="#DejaVuSans-63" transform="translate(1028.056965 0.015625)"/>
      <use xlink:href="#DejaVuSans-6f" transform="translate(1083.037434 0.015625)"/>
      <use xlink:href="#DejaVuSans-73" transform="translate(1144.219075 0.015625)"/>
      <use xlink:href="#DejaVuSans-33" transform="translate(1212.55436 0.015625)"/>
      <use xlink:href="#DejaVuSans-Oblique-3c9" transform="translate(1276.177407 0.015625)"/>
      <use xlink:href="#DejaVuSans-Oblique-74" transform="translate(1359.917642 0.015625)"/>
     </g>
    </g>
    <g id="line2d_99">
     <path d="M 56.34 98.6475 
L 72.34 98.6475 
L 88.34 98.6475 
" style="fill: none; stroke-dasharray: 7.4,3.2; stroke-dashoffset: 0; stroke: #a54e8e; stroke-width: 2"/>
    </g>
    <g id="text_17">
     <!-- 3-harmonic HB: $+\, R_5\cos 5\omega t$ -->
     <g transform="translate(101.14 104.2475) scale(0.16 -0.16)">
      <use xlink:href="#DejaVuSans-33" transform="translate(0 0.015625)"/>
      <use xlink:href="#DejaVuSans-2d" transform="translate(63.623047 0.015625)"/>
      <use xlink:href="#DejaVuSans-68" transform="translate(99.707031 0.015625)"/>
      <use xlink:href="#DejaVuSans-61" transform="translate(163.085938 0.015625)"/>
      <use xlink:href="#DejaVuSans-72" transform="translate(224.365234 0.015625)"/>
      <use xlink:href="#DejaVuSans-6d" transform="translate(265.478516 0.015625)"/>
      <use xlink:href="#DejaVuSans-6f" transform="translate(362.890625 0.015625)"/>
      <use xlink:href="#DejaVuSans-6e" transform="translate(424.072266 0.015625)"/>
      <use xlink:href="#DejaVuSans-69" transform="translate(487.451172 0.015625)"/>
      <use xlink:href="#DejaVuSans-63" transform="translate(515.234375 0.015625)"/>
      <use xlink:href="#DejaVuSans-20" transform="translate(570.214844 0.015625)"/>
      <use xlink:href="#DejaVuSans-48" transform="translate(602.001953 0.015625)"/>
      <use xlink:href="#DejaVuSans-42" transform="translate(677.197266 0.015625)"/>
      <use xlink:href="#DejaVuSans-3a" transform="translate(745.800781 0.015625)"/>
      <use xlink:href="#DejaVuSans-20" transform="translate(779.492188 0.015625)"/>
      <use xlink:href="#DejaVuSans-2b" transform="translate(811.279297 0.015625)"/>
      <use xlink:href="#DejaVuSans-Oblique-52" transform="translate(911.304036 0.015625)"/>
      <use xlink:href="#DejaVuSans-35" transform="translate(980.786458 -16.390625) scale(0.7)"/>
      <use xlink:href="#DejaVuSans-63" transform="translate(1028.056965 0.015625)"/>
      <use xlink:href="#DejaVuSans-6f" transform="translate(1083.037434 0.015625)"/>
      <use xlink:href="#DejaVuSans-73" transform="translate(1144.219075 0.015625)"/>
      <use xlink:href="#DejaVuSans-35" transform="translate(1212.55436 0.015625)"/>
      <use xlink:href="#DejaVuSans-Oblique-3c9" transform="translate(1276.177407 0.015625)"/>
      <use xlink:href="#DejaVuSans-Oblique-74" transform="translate(1359.917642 0.015625)"/>
     </g>
    </g>
    <g id="line2d_100">
     <path d="M 56.34 122.135 
L 72.34 122.135 
L 88.34 122.135 
" style="fill: none; stroke-dasharray: 3.7,1.6; stroke-dashoffset: 0; stroke: #666666; stroke-opacity: 0.6"/>
    </g>
    <g id="text_18">
     <!-- Hopf: $\tau k = \pi/2$ -->
     <g transform="translate(101.14 127.735) scale(0.16 -0.16)">
      <defs>
       <path id="DejaVuSans-66" d="M 2375 4863 
L 2375 4384 
L 1825 4384 
Q 1516 4384 1395 4259 
Q 1275 4134 1275 3809 
L 1275 3500 
L 2222 3500 
L 2222 3053 
L 1275 3053 
L 1275 0 
L 697 0 
L 697 3053 
L 147 3053 
L 147 3500 
L 697 3500 
L 697 3744 
Q 697 4328 969 4595 
Q 1241 4863 1831 4863 
L 2375 4863 
z
" transform="scale(0.015625)"/>
      </defs>
      <use xlink:href="#DejaVuSans-48" transform="translate(0 0.015625)"/>
      <use xlink:href="#DejaVuSans-6f" transform="translate(75.195312 0.015625)"/>
      <use xlink:href="#DejaVuSans-70" transform="translate(136.376953 0.015625)"/>
      <use xlink:href="#DejaVuSans-66" transform="translate(199.853516 0.015625)"/>
      <use xlink:href="#DejaVuSans-3a" transform="translate(235.058594 0.015625)"/>
      <use xlink:href="#DejaVuSans-20" transform="translate(268.75 0.015625)"/>
      <use xlink:href="#DejaVuSans-Oblique-3c4" transform="translate(300.537109 0.015625)"/>
      <use xlink:href="#DejaVuSans-Oblique-6b" transform="translate(360.742188 0.015625)"/>
      <use xlink:href="#DejaVuSans-3d" transform="translate(438.134766 0.015625)"/>
      <use xlink:href="#DejaVuSans-Oblique-3c0" transform="translate(541.40625 0.015625)"/>
      <use xlink:href="#DejaVuSans-2f" transform="translate(601.611328 0.015625)"/>
      <use xlink:href="#DejaVuSans-32" transform="translate(631.677734 0.015625)"/>
     </g>
    </g>
   </g>
   <g id="line2d_101">
    <path d="M 146.373262 355.978719 
L 148.388762 345.959399 
L 150.404262 337.699755 
L 152.419763 330.52938 
L 154.435263 324.120723 
L 156.450763 318.284392 
L 158.466263 312.899058 
L 160.481763 307.881399 
L 164.512763 298.723343 
L 168.543763 290.48183 
L 172.574763 282.952896 
L 176.605763 275.99935 
L 180.636764 269.523536 
L 184.667764 263.452933 
L 188.698764 257.73188 
L 192.729764 252.316514 
L 196.760764 247.171514 
L 202.807264 239.898966 
L 208.853765 233.092325 
L 214.900265 226.69042 
L 220.946765 220.644395 
L 226.993265 214.914464 
L 233.039765 209.467705 
L 239.086266 204.276493 
L 245.132766 199.317376 
L 253.194766 193.031883 
L 261.256766 187.083112 
L 269.318767 181.437254 
L 277.380767 176.065695 
L 285.442767 170.943969 
L 293.504768 166.05096 
L 303.582268 160.228573 
L 313.659768 154.704036 
L 323.737269 149.450829 
L 333.814769 144.446049 
L 343.892269 139.669766 
L 355.98527 134.215399 
L 368.07827 129.03871 
L 380.171271 124.116889 
L 392.264271 119.43002 
L 404.357271 114.960603 
L 418.465772 110.000572 
L 432.574272 105.29387 
L 446.682773 100.821492 
L 460.791273 96.56665 
L 476.915274 91.951289 
L 493.039275 87.580887 
L 509.163275 83.437978 
L 525.287276 79.507013 
L 543.426776 75.320745 
L 561.566277 71.367416 
L 579.705778 67.631182 
L 599.860778 63.717161 
L 620.015779 60.036053 
L 640.17078 56.572077 
L 662.34128 52.995505 
L 684.511781 49.647256 
L 706.682282 46.511794 
L 730.868283 43.317413 
L 749.007784 41.066706 
L 749.007784 41.066706 
" clip-path="url(#p6b6a8a19f7)" style="fill: none; stroke-dasharray: 7.4,3.2; stroke-dashoffset: 0; stroke: #a54e8e; stroke-width: 2"/>
   </g>
  </g>
  <g id="axes_2">
   <g id="patch_8">
    <path d="M 269.985642 392.63976 
L 483.825642 392.63976 
L 483.825642 231.17976 
L 269.985642 231.17976 
z
" style="fill: #ffffff"/>
   </g>
   <g id="matplotlib.axis_3">
    <g id="xtick_44">
     <g id="line2d_102">
      <path d="M 269.985642 392.63976 
L 269.985642 231.17976 
" clip-path="url(#pdcc637e5d1)" style="fill: none; stroke: #b0b0b0; stroke-opacity: 0.5; stroke-width: 0.45; stroke-linecap: square"/>
     </g>
     <g id="line2d_103"/>
    </g>
    <g id="xtick_45">
     <g id="line2d_104">
      <path d="M 323.445642 392.63976 
L 323.445642 231.17976 
" clip-path="url(#pdcc637e5d1)" style="fill: none; stroke: #b0b0b0; stroke-opacity: 0.5; stroke-width: 0.45; stroke-linecap: square"/>
     </g>
     <g id="line2d_105"/>
    </g>
    <g id="xtick_46">
     <g id="line2d_106">
      <path d="M 376.905642 392.63976 
L 376.905642 231.17976 
" clip-path="url(#pdcc637e5d1)" style="fill: none; stroke: #b0b0b0; stroke-opacity: 0.5; stroke-width: 0.45; stroke-linecap: square"/>
     </g>
     <g id="line2d_107"/>
    </g>
    <g id="xtick_47">
     <g id="line2d_108">
      <path d="M 430.365642 392.63976 
L 430.365642 231.17976 
" clip-path="url(#pdcc637e5d1)" style="fill: none; stroke: #b0b0b0; stroke-opacity: 0.5; stroke-width: 0.45; stroke-linecap: square"/>
     </g>
     <g id="line2d_109"/>
    </g>
    <g id="xtick_48">
     <g id="line2d_110">
      <path d="M 483.825642 392.63976 
L 483.825642 231.17976 
" clip-path="url(#pdcc637e5d1)" style="fill: none; stroke: #b0b0b0; stroke-opacity: 0.5; stroke-width: 0.45; stroke-linecap: square"/>
     </g>
     <g id="line2d_111"/>
    </g>
    <g id="xtick_49">
     <g id="line2d_112"/>
    </g>
    <g id="xtick_50">
     <g id="line2d_113"/>
    </g>
    <g id="xtick_51">
     <g id="line2d_114"/>
    </g>
    <g id="xtick_52">
     <g id="line2d_115"/>
    </g>
    <g id="xtick_53">
     <g id="line2d_116"/>
    </g>
    <g id="xtick_54">
     <g id="line2d_117"/>
    </g>
    <g id="xtick_55">
     <g id="line2d_118"/>
    </g>
    <g id="xtick_56">
     <g id="line2d_119"/>
    </g>
    <g id="xtick_57">
     <g id="line2d_120"/>
    </g>
    <g id="xtick_58">
     <g id="line2d_121"/>
    </g>
    <g id="xtick_59">
     <g id="line2d_122"/>
    </g>
    <g id="xtick_60">
     <g id="line2d_123"/>
    </g>
    <g id="xtick_61">
     <g id="line2d_124"/>
    </g>
    <g id="xtick_62">
     <g id="line2d_125"/>
    </g>
    <g id="xtick_63">
     <g id="line2d_126"/>
    </g>
    <g id="xtick_64">
     <g id="line2d_127"/>
    </g>
    <g id="text_19">
     <!-- $t$ -->
     <g transform="translate(373.705642 405.79726) scale(0.16 -0.16)">
      <use xlink:href="#DejaVuSans-Oblique-74" transform="translate(0 0.78125)"/>
     </g>
    </g>
   </g>
   <g id="matplotlib.axis_4">
    <g id="ytick_33">
     <g id="line2d_128">
      <path d="M 269.985642 392.63976 
L 483.825642 392.63976 
" clip-path="url(#pdcc637e5d1)" style="fill: none; stroke: #b0b0b0; stroke-opacity: 0.5; stroke-width: 0.45; stroke-linecap: square"/>
     </g>
     <g id="line2d_129"/>
    </g>
    <g id="ytick_34">
     <g id="line2d_130">
      <path d="M 269.985642 352.27476 
L 483.825642 352.27476 
" clip-path="url(#pdcc637e5d1)" style="fill: none; stroke: #b0b0b0; stroke-opacity: 0.5; stroke-width: 0.45; stroke-linecap: square"/>
     </g>
     <g id="line2d_131"/>
    </g>
    <g id="ytick_35">
     <g id="line2d_132">
      <path d="M 269.985642 311.90976 
L 483.825642 311.90976 
" clip-path="url(#pdcc637e5d1)" style="fill: none; stroke: #b0b0b0; stroke-opacity: 0.5; stroke-width: 0.45; stroke-linecap: square"/>
     </g>
     <g id="line2d_133"/>
    </g>
    <g id="ytick_36">
     <g id="line2d_134">
      <path d="M 269.985642 271.54476 
L 483.825642 271.54476 
" clip-path="url(#pdcc637e5d1)" style="fill: none; stroke: #b0b0b0; stroke-opacity: 0.5; stroke-width: 0.45; stroke-linecap: square"/>
     </g>
     <g id="line2d_135"/>
    </g>
    <g id="ytick_37">
     <g id="line2d_136">
      <path d="M 269.985642 231.17976 
L 483.825642 231.17976 
" clip-path="url(#pdcc637e5d1)" style="fill: none; stroke: #b0b0b0; stroke-opacity: 0.5; stroke-width: 0.45; stroke-linecap: square"/>
     </g>
     <g id="line2d_137"/>
    </g>
    <g id="ytick_38">
     <g id="line2d_138"/>
    </g>
    <g id="ytick_39">
     <g id="line2d_139"/>
    </g>
    <g id="ytick_40">
     <g id="line2d_140"/>
    </g>
    <g id="ytick_41">
     <g id="line2d_141"/>
    </g>
    <g id="ytick_42">
     <g id="line2d_142"/>
    </g>
    <g id="ytick_43">
     <g id="line2d_143"/>
    </g>
    <g id="ytick_44">
     <g id="line2d_144"/>
    </g>
    <g id="ytick_45">
     <g id="line2d_145"/>
    </g>
    <g id="ytick_46">
     <g id="line2d_146"/>
    </g>
    <g id="ytick_47">
     <g id="line2d_147"/>
    </g>
    <g id="ytick_48">
     <g id="line2d_148"/>
    </g>
    <g id="ytick_49">
     <g id="line2d_149"/>
    </g>
    <g id="text_20">
     <!-- $\theta$ -->
     <g transform="translate(264.658142 316.86976) rotate(-90) scale(0.16 -0.16)">
      <defs>
       <path id="DejaVuSans-Oblique-3b8" d="M 2913 2219 
L 925 2219 
Q 791 1284 928 888 
Q 1100 400 1566 400 
Q 2034 400 2391 891 
Q 2703 1322 2913 2219 
z
M 3009 2750 
Q 3094 3638 2984 3950 
Q 2813 4444 2353 4444 
Q 1875 4444 1525 3956 
Q 1250 3563 1034 2750 
L 3009 2750 
z
M 2444 4913 
Q 3194 4913 3494 4250 
Q 3794 3591 3566 2422 
Q 3341 1256 2781 594 
Q 2225 -72 1475 -72 
Q 722 -72 425 594 
Q 128 1256 353 2422 
Q 581 3591 1134 4250 
Q 1691 4913 2444 4913 
z
" transform="scale(0.015625)"/>
      </defs>
      <use xlink:href="#DejaVuSans-Oblique-3b8" transform="translate(0 0.234375)"/>
     </g>
    </g>
   </g>
   <g id="line2d_150">
    <path d="M 269.985642 311.843793 
L 282.4893 322.95019 
L 288.9045 328.348916 
L 293.7159 332.127285 
L 297.9927 335.209873 
L 301.7349 337.638159 
L 304.9425 339.483575 
L 308.1501 341.082782 
L 311.3577 342.411717 
L 314.0307 343.297755 
L 316.7037 343.972197 
L 319.3767 344.427685 
L 322.0497 344.659203 
L 324.7227 344.664245 
L 327.3957 344.442756 
L 330.0687 343.997162 
L 332.7417 343.332313 
L 335.4147 342.455486 
L 338.6223 341.137017 
L 341.8299 339.547402 
L 345.0375 337.710653 
L 348.7797 335.29117 
L 353.0565 332.21684 
L 357.8679 328.445529 
L 363.7485 323.514201 
L 371.7675 316.455411 
L 391.5477 298.9022 
L 397.4283 294.048136 
L 402.2397 290.369923 
L 406.5165 287.403326 
L 410.2587 285.097571 
L 413.4663 283.372044 
L 416.6739 281.905179 
L 419.3469 280.896636 
L 422.0199 280.094185 
L 424.6929 279.506599 
L 427.3659 279.140231 
L 430.0389 278.999112 
L 432.7119 279.084824 
L 435.3849 279.396386 
L 438.0579 279.930418 
L 440.7309 280.681034 
L 443.4039 281.640112 
L 446.6115 283.051434 
L 449.8191 284.726243 
L 453.0267 286.639547 
L 456.7689 289.136484 
L 461.0457 292.283254 
L 465.8571 296.116158 
L 471.7377 301.097469 
L 480.2913 308.668298 
L 483.4989 311.549946 
L 483.4989 311.549946 
" clip-path="url(#pdcc637e5d1)" style="fill: none; stroke: #901a1e; stroke-linecap: square"/>
   </g>
   <g id="patch_9">
    <path d="M 269.985642 392.63976 
L 269.985642 231.17976 
" style="fill: none; stroke: #000000; stroke-width: 0.7; stroke-linejoin: miter; stroke-linecap: square"/>
   </g>
   <g id="patch_10">
    <path d="M 483.825642 392.63976 
L 483.825642 231.17976 
" style="fill: none; stroke: #000000; stroke-width: 0.7; stroke-linejoin: miter; stroke-linecap: square"/>
   </g>
   <g id="patch_11">
    <path d="M 269.985642 392.63976 
L 483.825642 392.63976 
" style="fill: none; stroke: #000000; stroke-width: 0.7; stroke-linejoin: miter; stroke-linecap: square"/>
   </g>
   <g id="patch_12">
    <path d="M 269.985642 231.17976 
L 483.825642 231.17976 
" style="fill: none; stroke: #000000; stroke-width: 0.7; stroke-linejoin: miter; stroke-linecap: square"/>
   </g>
  </g>
  <g id="axes_3">
   <g id="patch_13">
    <path d="M 549.515054 392.63976 
L 763.355054 392.63976 
L 763.355054 231.17976 
L 549.515054 231.17976 
z
" style="fill: #ffffff"/>
   </g>
   <g id="matplotlib.axis_5">
    <g id="xtick_65">
     <g id="line2d_151">
      <path d="M 549.515054 392.63976 
L 549.515054 231.17976 
" clip-path="url(#p0bdec53634)" style="fill: none; stroke: #b0b0b0; stroke-opacity: 0.5; stroke-width: 0.45; stroke-linecap: square"/>
     </g>
     <g id="line2d_152"/>
    </g>
    <g id="xtick_66">
     <g id="line2d_153">
      <path d="M 602.975054 392.63976 
L 602.975054 231.17976 
" clip-path="url(#p0bdec53634)" style="fill: none; stroke: #b0b0b0; stroke-opacity: 0.5; stroke-width: 0.45; stroke-linecap: square"/>
     </g>
     <g id="line2d_154"/>
    </g>
    <g id="xtick_67">
     <g id="line2d_155">
      <path d="M 656.435054 392.63976 
L 656.435054 231.17976 
" clip-path="url(#p0bdec53634)" style="fill: none; stroke: #b0b0b0; stroke-opacity: 0.5; stroke-width: 0.45; stroke-linecap: square"/>
     </g>
     <g id="line2d_156"/>
    </g>
    <g id="xtick_68">
     <g id="line2d_157">
      <path d="M 709.895054 392.63976 
L 709.895054 231.17976 
" clip-path="url(#p0bdec53634)" style="fill: none; stroke: #b0b0b0; stroke-opacity: 0.5; stroke-width: 0.45; stroke-linecap: square"/>
     </g>
     <g id="line2d_158"/>
    </g>
    <g id="xtick_69">
     <g id="line2d_159">
      <path d="M 763.355054 392.63976 
L 763.355054 231.17976 
" clip-path="url(#p0bdec53634)" style="fill: none; stroke: #b0b0b0; stroke-opacity: 0.5; stroke-width: 0.45; stroke-linecap: square"/>
     </g>
     <g id="line2d_160"/>
    </g>
    <g id="xtick_70">
     <g id="line2d_161"/>
    </g>
    <g id="xtick_71">
     <g id="line2d_162"/>
    </g>
    <g id="xtick_72">
     <g id="line2d_163"/>
    </g>
    <g id="xtick_73">
     <g id="line2d_164"/>
    </g>
    <g id="xtick_74">
     <g id="line2d_165"/>
    </g>
    <g id="xtick_75">
     <g id="line2d_166"/>
    </g>
    <g id="xtick_76">
     <g id="line2d_167"/>
    </g>
    <g id="xtick_77">
     <g id="line2d_168"/>
    </g>
    <g id="xtick_78">
     <g id="line2d_169"/>
    </g>
    <g id="xtick_79">
     <g id="line2d_170"/>
    </g>
    <g id="xtick_80">
     <g id="line2d_171"/>
    </g>
    <g id="xtick_81">
     <g id="line2d_172"/>
    </g>
    <g id="xtick_82">
     <g id="line2d_173"/>
    </g>
    <g id="xtick_83">
     <g id="line2d_174"/>
    </g>
    <g id="xtick_84">
     <g id="line2d_175"/>
    </g>
    <g id="xtick_85">
     <g id="line2d_176"/>
    </g>
    <g id="text_21">
     <!-- $t$ -->
     <g transform="translate(653.235054 405.79726) scale(0.16 -0.16)">
      <use xlink:href="#DejaVuSans-Oblique-74" transform="translate(0 0.78125)"/>
     </g>
    </g>
   </g>
   <g id="matplotlib.axis_6">
    <g id="ytick_50">
     <g id="line2d_177">
      <path d="M 549.515054 392.63976 
L 763.355054 392.63976 
" clip-path="url(#p0bdec53634)" style="fill: none; stroke: #b0b0b0; stroke-opacity: 0.5; stroke-width: 0.45; stroke-linecap: square"/>
     </g>
     <g id="line2d_178"/>
    </g>
    <g id="ytick_51">
     <g id="line2d_179">
      <path d="M 549.515054 352.27476 
L 763.355054 352.27476 
" clip-path="url(#p0bdec53634)" style="fill: none; stroke: #b0b0b0; stroke-opacity: 0.5; stroke-width: 0.45; stroke-linecap: square"/>
     </g>
     <g id="line2d_180"/>
    </g>
    <g id="ytick_52">
     <g id="line2d_181">
      <path d="M 549.515054 311.90976 
L 763.355054 311.90976 
" clip-path="url(#p0bdec53634)" style="fill: none; stroke: #b0b0b0; stroke-opacity: 0.5; stroke-width: 0.45; stroke-linecap: square"/>
     </g>
     <g id="line2d_182"/>
    </g>
    <g id="ytick_53">
     <g id="line2d_183">
      <path d="M 549.515054 271.54476 
L 763.355054 271.54476 
" clip-path="url(#p0bdec53634)" style="fill: none; stroke: #b0b0b0; stroke-opacity: 0.5; stroke-width: 0.45; stroke-linecap: square"/>
     </g>
     <g id="line2d_184"/>
    </g>
    <g id="ytick_54">
     <g id="line2d_185">
      <path d="M 549.515054 231.17976 
L 763.355054 231.17976 
" clip-path="url(#p0bdec53634)" style="fill: none; stroke: #b0b0b0; stroke-opacity: 0.5; stroke-width: 0.45; stroke-linecap: square"/>
     </g>
     <g id="line2d_186"/>
    </g>
    <g id="ytick_55">
     <g id="line2d_187"/>
    </g>
    <g id="ytick_56">
     <g id="line2d_188"/>
    </g>
    <g id="ytick_57">
     <g id="line2d_189"/>
    </g>
    <g id="ytick_58">
     <g id="line2d_190"/>
    </g>
    <g id="ytick_59">
     <g id="line2d_191"/>
    </g>
    <g id="ytick_60">
     <g id="line2d_192"/>
    </g>
    <g id="ytick_61">
     <g id="line2d_193"/>
    </g>
    <g id="ytick_62">
     <g id="line2d_194"/>
    </g>
    <g id="ytick_63">
     <g id="line2d_195"/>
    </g>
    <g id="ytick_64">
     <g id="line2d_196"/>
    </g>
    <g id="ytick_65">
     <g id="line2d_197"/>
    </g>
    <g id="ytick_66">
     <g id="line2d_198"/>
    </g>
    <g id="text_22">
     <!-- $\theta$ -->
     <g transform="translate(544.187554 316.86976) rotate(-90) scale(0.16 -0.16)">
      <use xlink:href="#DejaVuSans-Oblique-3b8" transform="translate(0 0.234375)"/>
     </g>
    </g>
   </g>
   <g id="line2d_199">
    <path d="M 549.515054 311.843793 
L 555.356562 318.406597 
L 558.564162 322.338758 
L 561.237162 325.924064 
L 563.910162 329.857533 
L 566.583162 334.174867 
L 569.790762 339.851579 
L 573.532962 347.004203 
L 580.482762 360.445624 
L 583.155762 365.120852 
L 585.294162 368.501266 
L 587.432562 371.510869 
L 589.570962 374.124042 
L 591.709362 376.331384 
L 593.313162 377.721367 
L 594.916962 378.887271 
L 596.520762 379.833458 
L 598.124562 380.56456 
L 599.728362 381.08472 
L 601.332162 381.397345 
L 602.935962 381.504588 
L 604.539762 381.407347 
L 606.143562 381.105106 
L 607.747362 380.595929 
L 609.351162 379.876764 
L 610.954962 378.943659 
L 612.558762 377.792144 
L 614.162562 376.417914 
L 616.300962 374.233465 
L 618.439362 371.644792 
L 620.577762 368.660181 
L 622.716162 365.303559 
L 625.389162 360.653487 
L 628.596762 354.58795 
L 637.150362 338.109181 
L 640.357962 332.585498 
L 643.030962 328.408219 
L 645.703962 324.609819 
L 648.911562 320.484839 
L 652.653762 316.112017 
L 664.949562 302.180577 
L 667.622562 298.663705 
L 670.295562 294.805483 
L 672.968562 290.564703 
L 675.641562 285.938451 
L 678.849162 279.950804 
L 689.006562 260.539914 
L 691.679562 256.161641 
L 693.817962 253.060957 
L 695.956362 250.350869 
L 698.094762 248.043698 
L 700.233162 246.139306 
L 701.836962 244.971003 
L 703.440762 244.020619 
L 705.044562 243.283549 
L 706.648362 242.755567 
L 708.252162 242.433403 
L 709.855962 242.314932 
L 711.459762 242.399473 
L 713.063562 242.687733 
L 714.667362 243.181893 
L 716.271162 243.885251 
L 717.874962 244.802086 
L 719.478762 245.937139 
L 721.082562 247.295099 
L 723.220962 249.45859 
L 725.359362 252.027886 
L 727.497762 254.9953 
L 729.636162 258.337341 
L 732.309162 262.973569 
L 735.516762 269.029458 
L 744.070362 285.5209 
L 747.277962 291.063061 
L 749.950962 295.260371 
L 752.623962 299.081937 
L 755.831562 303.237113 
L 759.573762 307.645474 
L 763.315962 311.799888 
L 763.315962 311.799888 
" clip-path="url(#p0bdec53634)" style="fill: none; stroke: #901a1e; stroke-linecap: square"/>
   </g>
   <g id="patch_14">
    <path d="M 549.515054 392.63976 
L 549.515054 231.17976 
" style="fill: none; stroke: #000000; stroke-width: 0.7; stroke-linejoin: miter; stroke-linecap: square"/>
   </g>
   <g id="patch_15">
    <path d="M 763.355054 392.63976 
L 763.355054 231.17976 
" style="fill: none; stroke: #000000; stroke-width: 0.7; stroke-linejoin: miter; stroke-linecap: square"/>
   </g>
   <g id="patch_16">
    <path d="M 549.515054 392.63976 
L 763.355054 392.63976 
" style="fill: none; stroke: #000000; stroke-width: 0.7; stroke-linejoin: miter; stroke-linecap: square"/>
   </g>
   <g id="patch_17">
    <path d="M 549.515054 231.17976 
L 763.355054 231.17976 
" style="fill: none; stroke: #000000; stroke-width: 0.7; stroke-linejoin: miter; stroke-linecap: square"/>
   </g>
  </g>
 </g>
 <defs>
  <clipPath id="p6b6a8a19f7">
   <rect x="41.94" y="7.2" width="751.25952" height="407.30202"/>
  </clipPath>
  <clipPath id="pdcc637e5d1">
   <rect x="269.985642" y="231.17976" width="213.84" height="161.46"/>
  </clipPath>
  <clipPath id="p0bdec53634">
   <rect x="549.515054" y="231.17976" width="213.84" height="161.46"/>
  </clipPath>
 </defs>
</svg>
