<?xml version="1.0" encoding="utf-8" standalone="no"?>
<!DOCTYPE svg PUBLIC "-//W3C//DTD SVG 1.1//EN"
  "http://www.w3.org/Graphics/SVG/1.1/DTD/svg11.dtd">
<svg xmlns:xlink="http://www.w3.org/1999/xlink" width="1224pt" height="381.6pt" viewBox="0 0 1224 381.6" xmlns="http://www.w3.org/2000/svg" version="1.1">
 <metadata>
  <rdf:RDF xmlns:dc="http://purl.org/dc/elements/1.1/" xmlns:cc="http://creativecommons.org/ns#" xmlns:rdf="http://www.w3.org/1999/02/22-rdf-syntax-ns#">
   <cc:Work>
    <dc:type rdf:resource="http://purl.org/dc/dcmitype/StillImage"/>
    <dc:date>2026-03-18T13:40:32.761841</dc:date>
    <dc:format>image/svg+xml</dc:format>
    <dc:creator>
     <cc:Agent>
      <dc:title>Matplotlib v3.10.8, https://matplotlib.org/</dc:title>
     </cc:Agent>
    </dc:creator>
   </cc:Work>
  </rdf:RDF>
 </metadata>
 <defs>
  <style type="text/css">*{stroke-linejoin: round; stroke-linecap: butt}</style>
 </defs>
 <g id="figure_1">
  <g id="patch_1">
   <path d="M 0 381.6 
L 1224 381.6 
L 1224 0 
L 0 0 
L 0 381.6 
z
" style="fill: none; opacity: 0"/>
  </g>
  <g id="axes_1">
   <g id="patch_2">
    <path d="M 40.39899 335.90226 
L 380.481147 335.90226 
L 380.481147 8.336655 
L 40.39899 8.336655 
L 40.39899 335.90226 
z
" style="fill: none"/>
   </g>
   <g id="matplotlib.axis_1">
    <g id="xtick_1">
     <g id="line2d_1">
      <path d="M 40.39899 335.90226 
L 40.39899 8.336655 
" clip-path="url(#p7ed420479c)" style="fill: none; stroke: #b0b0b0; stroke-opacity: 0.3; stroke-width: 0.7; stroke-linecap: square"/>
     </g>
     <g id="line2d_2">
      <defs>
       <path id="mf273b4f674" d="M 0 0 
L 0 3.5 
" style="stroke: #000000; stroke-width: 0.8"/>
      </defs>
      <g>
       <use xlink:href="#mf273b4f674" x="40.39899" y="335.90226" style="stroke: #000000; stroke-width: 0.8"/>
      </g>
     </g>
     <g id="text_1">
      <!-- -6 -->
      <g transform="translate(28.434615 358.63851) scale(0.24 -0.24)">
       <defs>
        <path id="DejaVuSans-2d" d="M 313 2009 
L 1997 2009 
L 1997 1497 
L 313 1497 
L 313 2009 
z
" transform="scale(0.015625)"/>
        <path id="DejaVuSans-36" d="M 2113 2584 
Q 1688 2584 1439 2293 
Q 1191 2003 1191 1497 
Q 1191 994 1439 701 
Q 1688 409 2113 409 
Q 2538 409 2786 701 
Q 3034 994 3034 1497 
Q 3034 2003 2786 2293 
Q 2538 2584 2113 2584 
z
M 3366 4563 
L 3366 3988 
Q 3128 4100 2886 4159 
Q 2644 4219 2406 4219 
Q 1781 4219 1451 3797 
Q 1122 3375 1075 2522 
Q 1259 2794 1537 2939 
Q 1816 3084 2150 3084 
Q 2853 3084 3261 2657 
Q 3669 2231 3669 1497 
Q 3669 778 3244 343 
Q 2819 -91 2113 -91 
Q 1303 -91 875 529 
Q 447 1150 447 2328 
Q 447 3434 972 4092 
Q 1497 4750 2381 4750 
Q 2619 4750 2861 4703 
Q 3103 4656 3366 4563 
z
" transform="scale(0.015625)"/>
       </defs>
       <use xlink:href="#DejaVuSans-2d"/>
       <use xlink:href="#DejaVuSans-36" transform="translate(36.083984 0)"/>
      </g>
     </g>
    </g>
    <g id="xtick_2">
     <g id="line2d_3">
      <path d="M 210.440069 335.90226 
L 210.440069 8.336655 
" clip-path="url(#p7ed420479c)" style="fill: none; stroke: #b0b0b0; stroke-opacity: 0.3; stroke-width: 0.7; stroke-linecap: square"/>
     </g>
     <g id="line2d_4">
      <g>
       <use xlink:href="#mf273b4f674" x="210.440069" y="335.90226" style="stroke: #000000; stroke-width: 0.8"/>
      </g>
     </g>
    </g>
    <g id="xtick_3">
     <g id="line2d_5">
      <path d="M 380.481147 335.90226 
L 380.481147 8.336655 
" clip-path="url(#p7ed420479c)" style="fill: none; stroke: #b0b0b0; stroke-opacity: 0.3; stroke-width: 0.7; stroke-linecap: square"/>
     </g>
     <g id="line2d_6">
      <g>
       <use xlink:href="#mf273b4f674" x="380.481147" y="335.90226" style="stroke: #000000; stroke-width: 0.8"/>
      </g>
     </g>
     <g id="text_2">
      <!-- 6 -->
      <g transform="translate(372.846147 358.63851) scale(0.24 -0.24)">
       <use xlink:href="#DejaVuSans-36"/>
      </g>
     </g>
    </g>
    <g id="xtick_4">
     <g id="line2d_7">
      <path d="M 82.90926 335.90226 
L 82.90926 8.336655 
" clip-path="url(#p7ed420479c)" style="fill: none; stroke: #b0b0b0; stroke-opacity: 0.3; stroke-width: 0.7; stroke-linecap: square"/>
     </g>
     <g id="line2d_8">
      <defs>
       <path id="m1fb5d0021d" d="M 0 0 
L 0 2 
" style="stroke: #000000; stroke-width: 0.6"/>
      </defs>
      <g>
       <use xlink:href="#m1fb5d0021d" x="82.90926" y="335.90226" style="stroke: #000000; stroke-width: 0.6"/>
      </g>
     </g>
    </g>
    <g id="xtick_5">
     <g id="line2d_9">
      <path d="M 125.419529 335.90226 
L 125.419529 8.336655 
" clip-path="url(#p7ed420479c)" style="fill: none; stroke: #b0b0b0; stroke-opacity: 0.3; stroke-width: 0.7; stroke-linecap: square"/>
     </g>
     <g id="line2d_10">
      <g>
       <use xlink:href="#m1fb5d0021d" x="125.419529" y="335.90226" style="stroke: #000000; stroke-width: 0.6"/>
      </g>
     </g>
    </g>
    <g id="xtick_6">
     <g id="line2d_11">
      <path d="M 167.929799 335.90226 
L 167.929799 8.336655 
" clip-path="url(#p7ed420479c)" style="fill: none; stroke: #b0b0b0; stroke-opacity: 0.3; stroke-width: 0.7; stroke-linecap: square"/>
     </g>
     <g id="line2d_12">
      <g>
       <use xlink:href="#m1fb5d0021d" x="167.929799" y="335.90226" style="stroke: #000000; stroke-width: 0.6"/>
      </g>
     </g>
    </g>
    <g id="xtick_7">
     <g id="line2d_13">
      <path d="M 252.950338 335.90226 
L 252.950338 8.336655 
" clip-path="url(#p7ed420479c)" style="fill: none; stroke: #b0b0b0; stroke-opacity: 0.3; stroke-width: 0.7; stroke-linecap: square"/>
     </g>
     <g id="line2d_14">
      <g>
       <use xlink:href="#m1fb5d0021d" x="252.950338" y="335.90226" style="stroke: #000000; stroke-width: 0.6"/>
      </g>
     </g>
    </g>
    <g id="xtick_8">
     <g id="line2d_15">
      <path d="M 295.460608 335.90226 
L 295.460608 8.336655 
" clip-path="url(#p7ed420479c)" style="fill: none; stroke: #b0b0b0; stroke-opacity: 0.3; stroke-width: 0.7; stroke-linecap: square"/>
     </g>
     <g id="line2d_16">
      <g>
       <use xlink:href="#m1fb5d0021d" x="295.460608" y="335.90226" style="stroke: #000000; stroke-width: 0.6"/>
      </g>
     </g>
    </g>
    <g id="xtick_9">
     <g id="line2d_17">
      <path d="M 337.970878 335.90226 
L 337.970878 8.336655 
" clip-path="url(#p7ed420479c)" style="fill: none; stroke: #b0b0b0; stroke-opacity: 0.3; stroke-width: 0.7; stroke-linecap: square"/>
     </g>
     <g id="line2d_18">
      <g>
       <use xlink:href="#m1fb5d0021d" x="337.970878" y="335.90226" style="stroke: #000000; stroke-width: 0.6"/>
      </g>
     </g>
    </g>
    <g id="text_3">
     <!-- $x$ -->
     <g transform="translate(200.840069 371.94476) scale(0.32 -0.32)">
      <defs>
       <path id="DejaVuSans-Oblique-78" d="M 3841 3500 
L 2234 1784 
L 3219 0 
L 2559 0 
L 1819 1388 
L 531 0 
L -166 0 
L 1556 1844 
L 641 3500 
L 1300 3500 
L 1972 2234 
L 3144 3500 
L 3841 3500 
z
" transform="scale(0.015625)"/>
      </defs>
      <use xlink:href="#DejaVuSans-Oblique-78" transform="translate(0 0.3125)"/>
     </g>
    </g>
   </g>
   <g id="matplotlib.axis_2">
    <g id="ytick_1">
     <g id="line2d_19">
      <path d="M 40.39899 325.151659 
L 380.481147 325.151659 
" clip-path="url(#p7ed420479c)" style="fill: none; stroke: #b0b0b0; stroke-opacity: 0.3; stroke-width: 0.7; stroke-linecap: square"/>
     </g>
     <g id="line2d_20">
      <defs>
       <path id="m2cd7e12b97" d="M 0 0 
L -3.5 0 
" style="stroke: #000000; stroke-width: 0.8"/>
      </defs>
      <g>
       <use xlink:href="#m2cd7e12b97" x="40.39899" y="325.151659" style="stroke: #000000; stroke-width: 0.8"/>
      </g>
     </g>
     <g id="text_4">
      <!-- -2 -->
      <g transform="translate(11.97024 334.269784) scale(0.24 -0.24)">
       <defs>
        <path id="DejaVuSans-32" d="M 1228 531 
L 3431 531 
L 3431 0 
L 469 0 
L 469 531 
Q 828 903 1448 1529 
Q 2069 2156 2228 2338 
Q 2531 2678 2651 2914 
Q 2772 3150 2772 3378 
Q 2772 3750 2511 3984 
Q 2250 4219 1831 4219 
Q 1534 4219 1204 4116 
Q 875 4013 500 3803 
L 500 4441 
Q 881 4594 1212 4672 
Q 1544 4750 1819 4750 
Q 2544 4750 2975 4387 
Q 3406 4025 3406 3419 
Q 3406 3131 3298 2873 
Q 3191 2616 2906 2266 
Q 2828 2175 2409 1742 
Q 1991 1309 1228 531 
z
" transform="scale(0.015625)"/>
       </defs>
       <use xlink:href="#DejaVuSans-2d"/>
       <use xlink:href="#DejaVuSans-32" transform="translate(36.083984 0)"/>
      </g>
     </g>
    </g>
    <g id="ytick_2">
     <g id="line2d_21">
      <path d="M 40.39899 172.119457 
L 380.481147 172.119457 
" clip-path="url(#p7ed420479c)" style="fill: none; stroke: #b0b0b0; stroke-opacity: 0.3; stroke-width: 0.7; stroke-linecap: square"/>
     </g>
     <g id="line2d_22">
      <g>
       <use xlink:href="#m2cd7e12b97" x="40.39899" y="172.119457" style="stroke: #000000; stroke-width: 0.8"/>
      </g>
     </g>
    </g>
    <g id="ytick_3">
     <g id="line2d_23">
      <path d="M 40.39899 19.087256 
L 380.481147 19.087256 
" clip-path="url(#p7ed420479c)" style="fill: none; stroke: #b0b0b0; stroke-opacity: 0.3; stroke-width: 0.7; stroke-linecap: square"/>
     </g>
     <g id="line2d_24">
      <g>
       <use xlink:href="#m2cd7e12b97" x="40.39899" y="19.087256" style="stroke: #000000; stroke-width: 0.8"/>
      </g>
     </g>
     <g id="text_5">
      <!-- 2 -->
      <g transform="translate(20.62899 28.205381) scale(0.24 -0.24)">
       <use xlink:href="#DejaVuSans-32"/>
      </g>
     </g>
    </g>
    <g id="ytick_4">
     <g id="line2d_25">
      <path d="M 40.39899 286.893608 
L 380.481147 286.893608 
" clip-path="url(#p7ed420479c)" style="fill: none; stroke: #b0b0b0; stroke-opacity: 0.3; stroke-width: 0.7; stroke-linecap: square"/>
     </g>
     <g id="line2d_26">
      <defs>
       <path id="m80c007e50e" d="M 0 0 
L -2 0 
" style="stroke: #000000; stroke-width: 0.6"/>
      </defs>
      <g>
       <use xlink:href="#m80c007e50e" x="40.39899" y="286.893608" style="stroke: #000000; stroke-width: 0.6"/>
      </g>
     </g>
    </g>
    <g id="ytick_5">
     <g id="line2d_27">
      <path d="M 40.39899 248.635558 
L 380.481147 248.635558 
" clip-path="url(#p7ed420479c)" style="fill: none; stroke: #b0b0b0; stroke-opacity: 0.3; stroke-width: 0.7; stroke-linecap: square"/>
     </g>
     <g id="line2d_28">
      <g>
       <use xlink:href="#m80c007e50e" x="40.39899" y="248.635558" style="stroke: #000000; stroke-width: 0.6"/>
      </g>
     </g>
    </g>
    <g id="ytick_6">
     <g id="line2d_29">
      <path d="M 40.39899 210.377508 
L 380.481147 210.377508 
" clip-path="url(#p7ed420479c)" style="fill: none; stroke: #b0b0b0; stroke-opacity: 0.3; stroke-width: 0.7; stroke-linecap: square"/>
     </g>
     <g id="line2d_30">
      <g>
       <use xlink:href="#m80c007e50e" x="40.39899" y="210.377508" style="stroke: #000000; stroke-width: 0.6"/>
      </g>
     </g>
    </g>
    <g id="ytick_7">
     <g id="line2d_31">
      <path d="M 40.39899 133.861407 
L 380.481147 133.861407 
" clip-path="url(#p7ed420479c)" style="fill: none; stroke: #b0b0b0; stroke-opacity: 0.3; stroke-width: 0.7; stroke-linecap: square"/>
     </g>
     <g id="line2d_32">
      <g>
       <use xlink:href="#m80c007e50e" x="40.39899" y="133.861407" style="stroke: #000000; stroke-width: 0.6"/>
      </g>
     </g>
    </g>
    <g id="ytick_8">
     <g id="line2d_33">
      <path d="M 40.39899 95.603357 
L 380.481147 95.603357 
" clip-path="url(#p7ed420479c)" style="fill: none; stroke: #b0b0b0; stroke-opacity: 0.3; stroke-width: 0.7; stroke-linecap: square"/>
     </g>
     <g id="line2d_34">
      <g>
       <use xlink:href="#m80c007e50e" x="40.39899" y="95.603357" style="stroke: #000000; stroke-width: 0.6"/>
      </g>
     </g>
    </g>
    <g id="ytick_9">
     <g id="line2d_35">
      <path d="M 40.39899 57.345306 
L 380.481147 57.345306 
" clip-path="url(#p7ed420479c)" style="fill: none; stroke: #b0b0b0; stroke-opacity: 0.3; stroke-width: 0.7; stroke-linecap: square"/>
     </g>
     <g id="line2d_36">
      <g>
       <use xlink:href="#m80c007e50e" x="40.39899" y="57.345306" style="stroke: #000000; stroke-width: 0.6"/>
      </g>
     </g>
    </g>
    <g id="text_6">
     <!-- $f(x)$ -->
     <g transform="translate(27.31524 199.799457) rotate(-90) scale(0.32 -0.32)">
      <defs>
       <path id="DejaVuSans-Oblique-66" d="M 3059 4863 
L 2969 4384 
L 2419 4384 
Q 2106 4384 1964 4261 
Q 1822 4138 1753 3809 
L 1691 3500 
L 2638 3500 
L 2553 3053 
L 1606 3053 
L 1013 0 
L 434 0 
L 1031 3053 
L 481 3053 
L 563 3500 
L 1113 3500 
L 1159 3744 
Q 1278 4363 1576 4613 
Q 1875 4863 2516 4863 
L 3059 4863 
z
" transform="scale(0.015625)"/>
       <path id="DejaVuSans-28" d="M 1984 4856 
Q 1566 4138 1362 3434 
Q 1159 2731 1159 2009 
Q 1159 1288 1364 580 
Q 1569 -128 1984 -844 
L 1484 -844 
Q 1016 -109 783 600 
Q 550 1309 550 2009 
Q 550 2706 781 3412 
Q 1013 4119 1484 4856 
L 1984 4856 
z
" transform="scale(0.015625)"/>
       <path id="DejaVuSans-29" d="M 513 4856 
L 1013 4856 
Q 1481 4119 1714 3412 
Q 1947 2706 1947 2009 
Q 1947 1309 1714 600 
Q 1481 -109 1013 -844 
L 513 -844 
Q 928 -128 1133 580 
Q 1338 1288 1338 2009 
Q 1338 2731 1133 3434 
Q 928 4138 513 4856 
z
" transform="scale(0.015625)"/>
      </defs>
      <use xlink:href="#DejaVuSans-Oblique-66" transform="translate(0 0.015625)"/>
      <use xlink:href="#DejaVuSans-28" transform="translate(35.205078 0.015625)"/>
      <use xlink:href="#DejaVuSans-Oblique-78" transform="translate(74.21875 0.015625)"/>
      <use xlink:href="#DejaVuSans-29" transform="translate(133.398438 0.015625)"/>
     </g>
    </g>
   </g>
   <g id="line2d_37">
    <path d="M 40.39899 321.012914 
L 51.465493 316.620864 
L 61.680727 312.329953 
L 71.470326 307.978947 
L 80.83429 303.572003 
L 89.77262 299.114525 
L 98.285315 294.613383 
L 106.372375 290.077178 
L 114.0338 285.516524 
L 121.269591 280.944363 
L 128.079746 276.376302 
L 134.464268 271.830954 
L 140.423154 267.330285 
L 146.38204 262.548252 
L 151.915292 257.823161 
L 157.022909 253.186354 
L 162.130526 248.250331 
L 166.812508 243.427673 
L 171.49449 238.280483 
L 175.750837 233.280374 
L 180.007185 227.930536 
L 183.837897 222.773414 
L 187.66861 217.243424 
L 191.073688 211.968151 
L 194.478766 206.302074 
L 197.883844 200.182623 
L 200.863287 194.394669 
L 203.84273 188.1328 
L 206.822173 181.312432 
L 209.375982 174.93978 
L 214.057964 162.926483 
L 217.037407 156.106114 
L 220.01685 149.844246 
L 222.996294 144.056292 
L 226.401371 137.936841 
L 229.806449 132.270764 
L 233.637162 126.360938 
L 237.467875 120.87502 
L 241.298587 115.756245 
L 245.554935 110.443567 
L 249.811282 105.475932 
L 254.493264 100.36004 
L 259.175246 95.564866 
L 264.282863 90.655246 
L 269.39048 86.041744 
L 274.923732 81.338999 
L 280.882618 76.578224 
L 286.841505 72.096391 
L 293.226026 67.568979 
L 300.036181 63.017903 
L 307.271972 58.461762 
L 314.933397 53.916164 
L 322.594823 49.625532 
L 330.681883 45.343268 
L 339.194578 41.08042 
L 348.132907 36.846176 
L 357.922506 32.462649 
L 368.13774 28.141438 
L 378.778608 23.885507 
L 380.481147 23.226 
L 380.481147 23.226 
" clip-path="url(#p7ed420479c)" style="fill: none; stroke: #901a1e; stroke-width: 2.2; stroke-linecap: square"/>
   </g>
   <g id="line2d_38">
    <path d="M 40.39899 248.634618 
L 108.500548 248.520704 
L 124.249034 248.287099 
L 134.038633 247.941802 
L 141.274423 247.482996 
L 147.23331 246.887364 
L 151.915292 246.213704 
L 156.171639 245.383203 
L 160.002352 244.40158 
L 163.40743 243.291662 
L 166.386873 242.094626 
L 169.366316 240.643962 
L 171.920125 239.163412 
L 174.473933 237.429763 
L 177.027742 235.408046 
L 179.58155 233.06163 
L 182.135358 230.353415 
L 184.263532 227.794233 
L 186.391706 224.939807 
L 188.945514 221.102152 
L 191.499323 216.795973 
L 194.053131 212.012849 
L 196.60694 206.759458 
L 199.586383 200.07014 
L 202.991461 191.779447 
L 206.822173 181.834751 
L 219.165581 149.27851 
L 222.570659 141.231602 
L 225.550102 134.79507 
L 228.10391 129.774911 
L 230.657719 125.230444 
L 233.211527 121.160396 
L 235.765336 117.550037 
L 238.319144 114.374599 
L 240.872953 111.602534 
L 243.426761 109.198386 
L 245.980569 107.125126 
L 248.534378 105.34595 
L 251.088186 103.825549 
L 254.06763 102.334969 
L 257.047073 101.104348 
L 260.452151 99.962764 
L 263.857229 99.052546 
L 267.687941 98.249636 
L 272.369923 97.514342 
L 277.47754 96.941061 
L 283.862061 96.458546 
L 291.949121 96.08782 
L 303.015625 95.825602 
L 320.041014 95.670263 
L 357.071237 95.608262 
L 380.481147 95.604297 
L 380.481147 95.604297 
" clip-path="url(#p7ed420479c)" style="fill: none; stroke: #547aa5; stroke-width: 2.2; stroke-linecap: square"/>
   </g>
   <g id="line2d_39">
    <path d="M 40.39899 173.257444 
L 54.870571 173.85436 
L 66.788344 174.558916 
L 77.429212 175.407474 
L 86.793177 176.372764 
L 95.305871 177.467554 
L 103.392932 178.733985 
L 111.054357 180.166828 
L 118.290147 181.751285 
L 125.100303 183.462415 
L 131.910459 185.392467 
L 139.14625 187.674513 
L 147.23331 190.464218 
L 167.238143 197.518213 
L 171.49449 198.726291 
L 175.325203 199.581269 
L 178.304646 200.037192 
L 181.284089 200.256717 
L 183.837897 200.21301 
L 185.966071 199.98114 
L 188.094245 199.542248 
L 190.222419 198.865455 
L 192.350592 197.916325 
L 194.053131 196.935302 
L 195.75567 195.733901 
L 197.458209 194.288592 
L 199.160748 192.573778 
L 200.863287 190.561626 
L 202.565826 188.221889 
L 204.268365 185.521717 
L 205.970904 182.425445 
L 207.673443 178.894374 
L 209.375982 174.886532 
L 213.206694 165.344541 
L 214.909233 161.81347 
L 216.611772 158.717198 
L 218.314311 156.017025 
L 220.01685 153.677289 
L 221.719389 151.665137 
L 223.421928 149.950323 
L 225.124467 148.505014 
L 226.827006 147.303612 
L 228.95518 146.109194 
L 231.083354 145.21747 
L 233.211527 144.590893 
L 235.339701 144.195768 
L 237.467875 144.001886 
L 240.021683 143.996988 
L 242.575492 144.201722 
L 245.554935 144.657646 
L 248.960013 145.405191 
L 253.21636 146.590385 
L 258.323977 148.25505 
L 266.836672 151.30512 
L 279.180079 155.707337 
L 286.841505 158.199101 
L 294.077295 160.314491 
L 300.887451 162.080236 
L 308.123242 163.720216 
L 315.359032 165.13085 
L 323.020457 166.396861 
L 331.107517 167.508494 
L 340.045847 168.506591 
L 349.835446 169.368671 
L 360.901949 170.110142 
L 373.670991 170.730314 
L 380.481147 170.981471 
L 380.481147 170.981471 
" clip-path="url(#p7ed420479c)" style="fill: none; stroke: #cba810; stroke-width: 2.2; stroke-linecap: square"/>
   </g>
   <g id="line2d_40">
    <path d="M 40.39899 172.119457 
L 380.481147 172.119457 
" clip-path="url(#p7ed420479c)" style="fill: none; stroke: #000000; stroke-opacity: 0.55; stroke-width: 0.7; stroke-linecap: square"/>
   </g>
   <g id="line2d_41">
    <path d="M 210.440069 335.90226 
L 210.440069 8.336655 
" clip-path="url(#p7ed420479c)" style="fill: none; stroke: #000000; stroke-opacity: 0.55; stroke-width: 0.7; stroke-linecap: square"/>
   </g>
   <g id="patch_3">
    <path d="M 40.39899 335.90226 
L 40.39899 8.336655 
" style="fill: none; stroke: #000000; stroke-width: 0.9; stroke-linejoin: miter; stroke-linecap: square"/>
   </g>
   <g id="patch_4">
    <path d="M 380.481147 335.90226 
L 380.481147 8.336655 
" style="fill: none; stroke: #000000; stroke-width: 0.9; stroke-linejoin: miter; stroke-linecap: square"/>
   </g>
   <g id="patch_5">
    <path d="M 40.39899 335.90226 
L 380.481147 335.90226 
" style="fill: none; stroke: #000000; stroke-width: 0.9; stroke-linejoin: miter; stroke-linecap: square"/>
   </g>
   <g id="patch_6">
    <path d="M 40.39899 8.336655 
L 380.481147 8.336655 
" style="fill: none; stroke: #000000; stroke-width: 0.9; stroke-linejoin: miter; stroke-linecap: square"/>
   </g>
   <g id="text_7">
    <!-- $\mathrm{sgn}(x)\,\ln(1+|x|)$ -->
    <g style="fill: #901a1e" transform="translate(153.759709 36.394671) scale(0.22 -0.22)">
     <defs>
      <path id="DejaVuSans-73" d="M 2834 3397 
L 2834 2853 
Q 2591 2978 2328 3040 
Q 2066 3103 1784 3103 
Q 1356 3103 1142 2972 
Q 928 2841 928 2578 
Q 928 2378 1081 2264 
Q 1234 2150 1697 2047 
L 1894 2003 
Q 2506 1872 2764 1633 
Q 3022 1394 3022 966 
Q 3022 478 2636 193 
Q 2250 -91 1575 -91 
Q 1294 -91 989 -36 
Q 684 19 347 128 
L 347 722 
Q 666 556 975 473 
Q 1284 391 1588 391 
Q 1994 391 2212 530 
Q 2431 669 2431 922 
Q 2431 1156 2273 1281 
Q 2116 1406 1581 1522 
L 1381 1569 
Q 847 1681 609 1914 
Q 372 2147 372 2553 
Q 372 3047 722 3315 
Q 1072 3584 1716 3584 
Q 2034 3584 2315 3537 
Q 2597 3491 2834 3397 
z
" transform="scale(0.015625)"/>
      <path id="DejaVuSans-67" d="M 2906 1791 
Q 2906 2416 2648 2759 
Q 2391 3103 1925 3103 
Q 1463 3103 1205 2759 
Q 947 2416 947 1791 
Q 947 1169 1205 825 
Q 1463 481 1925 481 
Q 2391 481 2648 825 
Q 2906 1169 2906 1791 
z
M 3481 434 
Q 3481 -459 3084 -895 
Q 2688 -1331 1869 -1331 
Q 1566 -1331 1297 -1286 
Q 1028 -1241 775 -1147 
L 775 -588 
Q 1028 -725 1275 -790 
Q 1522 -856 1778 -856 
Q 2344 -856 2625 -561 
Q 2906 -266 2906 331 
L 2906 616 
Q 2728 306 2450 153 
Q 2172 0 1784 0 
Q 1141 0 747 490 
Q 353 981 353 1791 
Q 353 2603 747 3093 
Q 1141 3584 1784 3584 
Q 2172 3584 2450 3431 
Q 2728 3278 2906 2969 
L 2906 3500 
L 3481 3500 
L 3481 434 
z
" transform="scale(0.015625)"/>
      <path id="DejaVuSans-6e" d="M 3513 2113 
L 3513 0 
L 2938 0 
L 2938 2094 
Q 2938 2591 2744 2837 
Q 2550 3084 2163 3084 
Q 1697 3084 1428 2787 
Q 1159 2491 1159 1978 
L 1159 0 
L 581 0 
L 581 3500 
L 1159 3500 
L 1159 2956 
Q 1366 3272 1645 3428 
Q 1925 3584 2291 3584 
Q 2894 3584 3203 3211 
Q 3513 2838 3513 2113 
z
" transform="scale(0.015625)"/>
      <path id="DejaVuSans-6c" d="M 603 4863 
L 1178 4863 
L 1178 0 
L 603 0 
L 603 4863 
z
" transform="scale(0.015625)"/>
      <path id="DejaVuSans-31" d="M 794 531 
L 1825 531 
L 1825 4091 
L 703 3866 
L 703 4441 
L 1819 4666 
L 2450 4666 
L 2450 531 
L 3481 531 
L 3481 0 
L 794 0 
L 794 531 
z
" transform="scale(0.015625)"/>
      <path id="DejaVuSans-2b" d="M 2944 4013 
L 2944 2272 
L 4684 2272 
L 4684 1741 
L 2944 1741 
L 2944 0 
L 2419 0 
L 2419 1741 
L 678 1741 
L 678 2272 
L 2419 2272 
L 2419 4013 
L 2944 4013 
z
" transform="scale(0.015625)"/>
      <path id="DejaVuSans-7c" d="M 1344 4891 
L 1344 -1509 
L 813 -1509 
L 813 4891 
L 1344 4891 
z
" transform="scale(0.015625)"/>
     </defs>
     <use xlink:href="#DejaVuSans-73" transform="translate(0 0.578125)"/>
     <use xlink:href="#DejaVuSans-67" transform="translate(52.099609 0.578125)"/>
     <use xlink:href="#DejaVuSans-6e" transform="translate(115.576172 0.578125)"/>
     <use xlink:href="#DejaVuSans-28" transform="translate(178.955078 0.578125)"/>
     <use xlink:href="#DejaVuSans-Oblique-78" transform="translate(217.96875 0.578125)"/>
     <use xlink:href="#DejaVuSans-29" transform="translate(277.148438 0.578125)"/>
     <use xlink:href="#DejaVuSans-6c" transform="translate(332.397786 0.578125)"/>
     <use xlink:href="#DejaVuSans-6e" transform="translate(360.180989 0.578125)"/>
     <use xlink:href="#DejaVuSans-28" transform="translate(423.559895 0.578125)"/>
     <use xlink:href="#DejaVuSans-31" transform="translate(462.573567 0.578125)"/>
     <use xlink:href="#DejaVuSans-2b" transform="translate(545.679036 0.578125)"/>
     <use xlink:href="#DejaVuSans-7c" transform="translate(648.95052 0.578125)"/>
     <use xlink:href="#DejaVuSans-Oblique-78" transform="translate(682.641926 0.578125)"/>
     <use xlink:href="#DejaVuSans-7c" transform="translate(741.821614 0.578125)"/>
     <use xlink:href="#DejaVuSans-29" transform="translate(775.51302 0.578125)"/>
    </g>
   </g>
   <g id="text_8">
    <!-- $\tanh(x)$ -->
    <g style="fill: #547aa5" transform="translate(281.290518 124.628812) scale(0.22 -0.22)">
     <defs>
      <path id="DejaVuSans-74" d="M 1172 4494 
L 1172 3500 
L 2356 3500 
L 2356 3053 
L 1172 3053 
L 1172 1153 
Q 1172 725 1289 603 
Q 1406 481 1766 481 
L 2356 481 
L 2356 0 
L 1766 0 
Q 1100 0 847 248 
Q 594 497 594 1153 
L 594 3053 
L 172 3053 
L 172 3500 
L 594 3500 
L 594 4494 
L 1172 4494 
z
" transform="scale(0.015625)"/>
      <path id="DejaVuSans-61" d="M 2194 1759 
Q 1497 1759 1228 1600 
Q 959 1441 959 1056 
Q 959 750 1161 570 
Q 1363 391 1709 391 
Q 2188 391 2477 730 
Q 2766 1069 2766 1631 
L 2766 1759 
L 2194 1759 
z
M 3341 1997 
L 3341 0 
L 2766 0 
L 2766 531 
Q 2569 213 2275 61 
Q 1981 -91 1556 -91 
Q 1019 -91 701 211 
Q 384 513 384 1019 
Q 384 1609 779 1909 
Q 1175 2209 1959 2209 
L 2766 2209 
L 2766 2266 
Q 2766 2663 2505 2880 
Q 2244 3097 1772 3097 
Q 1472 3097 1187 3025 
Q 903 2953 641 2809 
L 641 3341 
Q 956 3463 1253 3523 
Q 1550 3584 1831 3584 
Q 2591 3584 2966 3190 
Q 3341 2797 3341 1997 
z
" transform="scale(0.015625)"/>
      <path id="DejaVuSans-68" d="M 3513 2113 
L 3513 0 
L 2938 0 
L 2938 2094 
Q 2938 2591 2744 2837 
Q 2550 3084 2163 3084 
Q 1697 3084 1428 2787 
Q 1159 2491 1159 1978 
L 1159 0 
L 581 0 
L 581 4863 
L 1159 4863 
L 1159 2956 
Q 1366 3272 1645 3428 
Q 1925 3584 2291 3584 
Q 2894 3584 3203 3211 
Q 3513 2838 3513 2113 
z
" transform="scale(0.015625)"/>
     </defs>
     <use xlink:href="#DejaVuSans-74" transform="translate(0 0.015625)"/>
     <use xlink:href="#DejaVuSans-61" transform="translate(39.208984 0.015625)"/>
     <use xlink:href="#DejaVuSans-6e" transform="translate(100.488281 0.015625)"/>
     <use xlink:href="#DejaVuSans-68" transform="translate(163.867188 0.015625)"/>
     <use xlink:href="#DejaVuSans-28" transform="translate(227.246094 0.015625)"/>
     <use xlink:href="#DejaVuSans-Oblique-78" transform="translate(266.259766 0.015625)"/>
     <use xlink:href="#DejaVuSans-29" transform="translate(325.439453 0.015625)"/>
    </g>
   </g>
   <g id="text_9">
    <!-- $\mathrm{sgn}(x)\,|x|e^{-|x|}$ -->
    <g style="fill: #cba810" transform="translate(213.274087 193.372355) scale(0.22 -0.22)">
     <defs>
      <path id="DejaVuSans-Oblique-65" d="M 3078 2063 
Q 3088 2113 3092 2166 
Q 3097 2219 3097 2272 
Q 3097 2653 2873 2875 
Q 2650 3097 2266 3097 
Q 1838 3097 1509 2826 
Q 1181 2556 1013 2059 
L 3078 2063 
z
M 3578 1613 
L 903 1613 
Q 884 1494 878 1425 
Q 872 1356 872 1306 
Q 872 872 1139 634 
Q 1406 397 1894 397 
Q 2269 397 2603 481 
Q 2938 566 3225 728 
L 3116 159 
Q 2806 34 2476 -28 
Q 2147 -91 1806 -91 
Q 1078 -91 686 257 
Q 294 606 294 1247 
Q 294 1794 489 2264 
Q 684 2734 1063 3103 
Q 1306 3334 1642 3459 
Q 1978 3584 2356 3584 
Q 2950 3584 3301 3228 
Q 3653 2872 3653 2272 
Q 3653 2128 3634 1964 
Q 3616 1800 3578 1613 
z
" transform="scale(0.015625)"/>
      <path id="DejaVuSans-2212" d="M 678 2272 
L 4684 2272 
L 4684 1741 
L 678 1741 
L 678 2272 
z
" transform="scale(0.015625)"/>
     </defs>
     <use xlink:href="#DejaVuSans-73" transform="translate(0 0.223438)"/>
     <use xlink:href="#DejaVuSans-67" transform="translate(52.099609 0.223438)"/>
     <use xlink:href="#DejaVuSans-6e" transform="translate(115.576172 0.223438)"/>
     <use xlink:href="#DejaVuSans-28" transform="translate(178.955078 0.223438)"/>
     <use xlink:href="#DejaVuSans-Oblique-78" transform="translate(217.96875 0.223438)"/>
     <use xlink:href="#DejaVuSans-29" transform="translate(277.148438 0.223438)"/>
     <use xlink:href="#DejaVuSans-7c" transform="translate(332.397786 0.223438)"/>
     <use xlink:href="#DejaVuSans-Oblique-78" transform="translate(366.089192 0.223438)"/>
     <use xlink:href="#DejaVuSans-7c" transform="translate(425.268879 0.223438)"/>
     <use xlink:href="#DejaVuSans-Oblique-65" transform="translate(458.960286 0.223438)"/>
     <use xlink:href="#DejaVuSans-2212" transform="translate(525.133619 38.504688) scale(0.7)"/>
     <use xlink:href="#DejaVuSans-7c" transform="translate(583.785963 38.504688) scale(0.7)"/>
     <use xlink:href="#DejaVuSans-Oblique-78" transform="translate(607.369947 38.504688) scale(0.7)"/>
     <use xlink:href="#DejaVuSans-7c" transform="translate(648.795728 38.504688) scale(0.7)"/>
    </g>
   </g>
  </g>
  <g id="axes_2">
   <g id="patch_7">
    <path d="M 460.154897 335.90226 
L 800.237055 335.90226 
L 800.237055 8.336655 
L 460.154897 8.336655 
L 460.154897 335.90226 
z
" style="fill: none"/>
   </g>
   <g id="matplotlib.axis_3">
    <g id="xtick_10">
     <g id="line2d_42">
      <path d="M 460.154897 335.90226 
L 460.154897 8.336655 
" clip-path="url(#p7f03b8a31b)" style="fill: none; stroke: #b0b0b0; stroke-opacity: 0.3; stroke-width: 0.7; stroke-linecap: square"/>
     </g>
     <g id="line2d_43">
      <g>
       <use xlink:href="#mf273b4f674" x="460.154897" y="335.90226" style="stroke: #000000; stroke-width: 0.8"/>
      </g>
     </g>
     <g id="text_10">
      <!-- 0 -->
      <g transform="translate(452.519897 358.63851) scale(0.24 -0.24)">
       <defs>
        <path id="DejaVuSans-30" d="M 2034 4250 
Q 1547 4250 1301 3770 
Q 1056 3291 1056 2328 
Q 1056 1369 1301 889 
Q 1547 409 2034 409 
Q 2525 409 2770 889 
Q 3016 1369 3016 2328 
Q 3016 3291 2770 3770 
Q 2525 4250 2034 4250 
z
M 2034 4750 
Q 2819 4750 3233 4129 
Q 3647 3509 3647 2328 
Q 3647 1150 3233 529 
Q 2819 -91 2034 -91 
Q 1250 -91 836 529 
Q 422 1150 422 2328 
Q 422 3509 836 4129 
Q 1250 4750 2034 4750 
z
" transform="scale(0.015625)"/>
       </defs>
       <use xlink:href="#DejaVuSans-30"/>
      </g>
     </g>
    </g>
    <g id="xtick_11">
     <g id="line2d_44">
      <path d="M 800.237055 335.90226 
L 800.237055 8.336655 
" clip-path="url(#p7f03b8a31b)" style="fill: none; stroke: #b0b0b0; stroke-opacity: 0.3; stroke-width: 0.7; stroke-linecap: square"/>
     </g>
     <g id="line2d_45">
      <g>
       <use xlink:href="#mf273b4f674" x="800.237055" y="335.90226" style="stroke: #000000; stroke-width: 0.8"/>
      </g>
     </g>
     <g id="text_11">
      <!-- 8 -->
      <g transform="translate(792.602055 358.63851) scale(0.24 -0.24)">
       <defs>
        <path id="DejaVuSans-38" d="M 2034 2216 
Q 1584 2216 1326 1975 
Q 1069 1734 1069 1313 
Q 1069 891 1326 650 
Q 1584 409 2034 409 
Q 2484 409 2743 651 
Q 3003 894 3003 1313 
Q 3003 1734 2745 1975 
Q 2488 2216 2034 2216 
z
M 1403 2484 
Q 997 2584 770 2862 
Q 544 3141 544 3541 
Q 544 4100 942 4425 
Q 1341 4750 2034 4750 
Q 2731 4750 3128 4425 
Q 3525 4100 3525 3541 
Q 3525 3141 3298 2862 
Q 3072 2584 2669 2484 
Q 3125 2378 3379 2068 
Q 3634 1759 3634 1313 
Q 3634 634 3220 271 
Q 2806 -91 2034 -91 
Q 1263 -91 848 271 
Q 434 634 434 1313 
Q 434 1759 690 2068 
Q 947 2378 1403 2484 
z
M 1172 3481 
Q 1172 3119 1398 2916 
Q 1625 2713 2034 2713 
Q 2441 2713 2670 2916 
Q 2900 3119 2900 3481 
Q 2900 3844 2670 4047 
Q 2441 4250 2034 4250 
Q 1625 4250 1398 4047 
Q 1172 3844 1172 3481 
z
" transform="scale(0.015625)"/>
       </defs>
       <use xlink:href="#DejaVuSans-38"/>
      </g>
     </g>
    </g>
    <g id="xtick_12">
     <g id="line2d_46">
      <path d="M 545.175437 335.90226 
L 545.175437 8.336655 
" clip-path="url(#p7f03b8a31b)" style="fill: none; stroke: #b0b0b0; stroke-opacity: 0.3; stroke-width: 0.7; stroke-linecap: square"/>
     </g>
     <g id="line2d_47">
      <g>
       <use xlink:href="#m1fb5d0021d" x="545.175437" y="335.90226" style="stroke: #000000; stroke-width: 0.6"/>
      </g>
     </g>
    </g>
    <g id="xtick_13">
     <g id="line2d_48">
      <path d="M 630.195976 335.90226 
L 630.195976 8.336655 
" clip-path="url(#p7f03b8a31b)" style="fill: none; stroke: #b0b0b0; stroke-opacity: 0.3; stroke-width: 0.7; stroke-linecap: square"/>
     </g>
     <g id="line2d_49">
      <g>
       <use xlink:href="#m1fb5d0021d" x="630.195976" y="335.90226" style="stroke: #000000; stroke-width: 0.6"/>
      </g>
     </g>
    </g>
    <g id="xtick_14">
     <g id="line2d_50">
      <path d="M 715.216515 335.90226 
L 715.216515 8.336655 
" clip-path="url(#p7f03b8a31b)" style="fill: none; stroke: #b0b0b0; stroke-opacity: 0.3; stroke-width: 0.7; stroke-linecap: square"/>
     </g>
     <g id="line2d_51">
      <g>
       <use xlink:href="#m1fb5d0021d" x="715.216515" y="335.90226" style="stroke: #000000; stroke-width: 0.6"/>
      </g>
     </g>
    </g>
    <g id="text_12">
     <!-- $t$ -->
     <g transform="translate(623.795976 371.94476) scale(0.32 -0.32)">
      <defs>
       <path id="DejaVuSans-Oblique-74" d="M 2706 3500 
L 2619 3053 
L 1472 3053 
L 1100 1153 
Q 1081 1047 1072 975 
Q 1063 903 1063 863 
Q 1063 663 1183 572 
Q 1303 481 1569 481 
L 2150 481 
L 2053 0 
L 1503 0 
Q 991 0 739 200 
Q 488 400 488 806 
Q 488 878 497 964 
Q 506 1050 525 1153 
L 897 3053 
L 409 3053 
L 500 3500 
L 978 3500 
L 1172 4494 
L 1747 4494 
L 1556 3500 
L 2706 3500 
z
" transform="scale(0.015625)"/>
      </defs>
      <use xlink:href="#DejaVuSans-Oblique-74" transform="translate(0 0.78125)"/>
     </g>
    </g>
   </g>
   <g id="matplotlib.axis_4">
    <g id="ytick_10">
     <g id="line2d_52">
      <path d="M 460.154897 332.116094 
L 800.237055 332.116094 
" clip-path="url(#p7f03b8a31b)" style="fill: none; stroke: #b0b0b0; stroke-opacity: 0.3; stroke-width: 0.7; stroke-linecap: square"/>
     </g>
     <g id="line2d_53">
      <g>
       <use xlink:href="#m2cd7e12b97" x="460.154897" y="332.116094" style="stroke: #000000; stroke-width: 0.8"/>
      </g>
     </g>
     <g id="text_13">
      <!-- -3 -->
      <g transform="translate(431.726147 341.234219) scale(0.24 -0.24)">
       <defs>
        <path id="DejaVuSans-33" d="M 2597 2516 
Q 3050 2419 3304 2112 
Q 3559 1806 3559 1356 
Q 3559 666 3084 287 
Q 2609 -91 1734 -91 
Q 1441 -91 1130 -33 
Q 819 25 488 141 
L 488 750 
Q 750 597 1062 519 
Q 1375 441 1716 441 
Q 2309 441 2620 675 
Q 2931 909 2931 1356 
Q 2931 1769 2642 2001 
Q 2353 2234 1838 2234 
L 1294 2234 
L 1294 2753 
L 1863 2753 
Q 2328 2753 2575 2939 
Q 2822 3125 2822 3475 
Q 2822 3834 2567 4026 
Q 2313 4219 1838 4219 
Q 1578 4219 1281 4162 
Q 984 4106 628 3988 
L 628 4550 
Q 988 4650 1302 4700 
Q 1616 4750 1894 4750 
Q 2613 4750 3031 4423 
Q 3450 4097 3450 3541 
Q 3450 3153 3228 2886 
Q 3006 2619 2597 2516 
z
" transform="scale(0.015625)"/>
       </defs>
       <use xlink:href="#DejaVuSans-2d"/>
       <use xlink:href="#DejaVuSans-33" transform="translate(36.083984 0)"/>
      </g>
     </g>
    </g>
    <g id="ytick_11">
     <g id="line2d_54">
      <path d="M 460.154897 172.119457 
L 800.237055 172.119457 
" clip-path="url(#p7f03b8a31b)" style="fill: none; stroke: #b0b0b0; stroke-opacity: 0.3; stroke-width: 0.7; stroke-linecap: square"/>
     </g>
     <g id="line2d_55">
      <g>
       <use xlink:href="#m2cd7e12b97" x="460.154897" y="172.119457" style="stroke: #000000; stroke-width: 0.8"/>
      </g>
     </g>
    </g>
    <g id="ytick_12">
     <g id="line2d_56">
      <path d="M 460.154897 12.12282 
L 800.237055 12.12282 
" clip-path="url(#p7f03b8a31b)" style="fill: none; stroke: #b0b0b0; stroke-opacity: 0.3; stroke-width: 0.7; stroke-linecap: square"/>
     </g>
     <g id="line2d_57">
      <g>
       <use xlink:href="#m2cd7e12b97" x="460.154897" y="12.12282" style="stroke: #000000; stroke-width: 0.8"/>
      </g>
     </g>
     <g id="text_14">
      <!-- 3 -->
      <g transform="translate(440.384897 21.240945) scale(0.24 -0.24)">
       <use xlink:href="#DejaVuSans-33"/>
      </g>
     </g>
    </g>
    <g id="ytick_13">
     <g id="line2d_58">
      <path d="M 460.154897 292.116935 
L 800.237055 292.116935 
" clip-path="url(#p7f03b8a31b)" style="fill: none; stroke: #b0b0b0; stroke-opacity: 0.3; stroke-width: 0.7; stroke-linecap: square"/>
     </g>
     <g id="line2d_59">
      <g>
       <use xlink:href="#m80c007e50e" x="460.154897" y="292.116935" style="stroke: #000000; stroke-width: 0.6"/>
      </g>
     </g>
    </g>
    <g id="ytick_14">
     <g id="line2d_60">
      <path d="M 460.154897 252.117776 
L 800.237055 252.117776 
" clip-path="url(#p7f03b8a31b)" style="fill: none; stroke: #b0b0b0; stroke-opacity: 0.3; stroke-width: 0.7; stroke-linecap: square"/>
     </g>
     <g id="line2d_61">
      <g>
       <use xlink:href="#m80c007e50e" x="460.154897" y="252.117776" style="stroke: #000000; stroke-width: 0.6"/>
      </g>
     </g>
    </g>
    <g id="ytick_15">
     <g id="line2d_62">
      <path d="M 460.154897 212.118617 
L 800.237055 212.118617 
" clip-path="url(#p7f03b8a31b)" style="fill: none; stroke: #b0b0b0; stroke-opacity: 0.3; stroke-width: 0.7; stroke-linecap: square"/>
     </g>
     <g id="line2d_63">
      <g>
       <use xlink:href="#m80c007e50e" x="460.154897" y="212.118617" style="stroke: #000000; stroke-width: 0.6"/>
      </g>
     </g>
    </g>
    <g id="ytick_16">
     <g id="line2d_64">
      <path d="M 460.154897 132.120298 
L 800.237055 132.120298 
" clip-path="url(#p7f03b8a31b)" style="fill: none; stroke: #b0b0b0; stroke-opacity: 0.3; stroke-width: 0.7; stroke-linecap: square"/>
     </g>
     <g id="line2d_65">
      <g>
       <use xlink:href="#m80c007e50e" x="460.154897" y="132.120298" style="stroke: #000000; stroke-width: 0.6"/>
      </g>
     </g>
    </g>
    <g id="ytick_17">
     <g id="line2d_66">
      <path d="M 460.154897 92.121139 
L 800.237055 92.121139 
" clip-path="url(#p7f03b8a31b)" style="fill: none; stroke: #b0b0b0; stroke-opacity: 0.3; stroke-width: 0.7; stroke-linecap: square"/>
     </g>
     <g id="line2d_67">
      <g>
       <use xlink:href="#m80c007e50e" x="460.154897" y="92.121139" style="stroke: #000000; stroke-width: 0.6"/>
      </g>
     </g>
    </g>
    <g id="ytick_18">
     <g id="line2d_68">
      <path d="M 460.154897 52.12198 
L 800.237055 52.12198 
" clip-path="url(#p7f03b8a31b)" style="fill: none; stroke: #b0b0b0; stroke-opacity: 0.3; stroke-width: 0.7; stroke-linecap: square"/>
     </g>
     <g id="line2d_69">
      <g>
       <use xlink:href="#m80c007e50e" x="460.154897" y="52.12198" style="stroke: #000000; stroke-width: 0.6"/>
      </g>
     </g>
    </g>
    <g id="text_15">
     <!-- $\theta(t)$ -->
     <g transform="translate(445.071147 200.759457) rotate(-90) scale(0.32 -0.32)">
      <defs>
       <path id="DejaVuSans-Oblique-3b8" d="M 2913 2219 
L 925 2219 
Q 791 1284 928 888 
Q 1100 400 1566 400 
Q 2034 400 2391 891 
Q 2703 1322 2913 2219 
z
M 3009 2750 
Q 3094 3638 2984 3950 
Q 2813 4444 2353 4444 
Q 1875 4444 1525 3956 
Q 1250 3563 1034 2750 
L 3009 2750 
z
M 2444 4913 
Q 3194 4913 3494 4250 
Q 3794 3591 3566 2422 
Q 3341 1256 2781 594 
Q 2225 -72 1475 -72 
Q 722 -72 425 594 
Q 128 1256 353 2422 
Q 581 3591 1134 4250 
Q 1691 4913 2444 4913 
z
" transform="scale(0.015625)"/>
      </defs>
      <use xlink:href="#DejaVuSans-Oblique-3b8" transform="translate(0 0.234375)"/>
      <use xlink:href="#DejaVuSans-28" transform="translate(61.181641 0.234375)"/>
      <use xlink:href="#DejaVuSans-Oblique-74" transform="translate(100.195312 0.234375)"/>
      <use xlink:href="#DejaVuSans-29" transform="translate(139.404297 0.234375)"/>
     </g>
    </g>
   </g>
   <g id="line2d_70">
    <path d="M 460.154897 172.119457 
L 462.182762 161.930551 
L 466.433789 140.782943 
L 470.684816 120.231588 
L 474.935843 100.6056 
L 479.18687 82.221614 
L 483.437897 65.414607 
L 487.688924 50.567506 
L 491.939951 38.15054 
L 496.190978 28.78423 
L 500.442005 23.360397 
L 504.693032 23.226 
L 508.944059 28.439704 
L 513.195086 37.646924 
L 517.446113 49.938665 
L 521.69714 64.685075 
L 525.948167 81.410751 
L 530.199194 99.729779 
L 534.450221 119.305581 
L 538.701248 139.821363 
L 542.952275 160.949292 
L 547.203302 182.308363 
L 551.454329 203.455972 
L 555.705356 224.007327 
L 559.956383 243.633314 
L 564.20741 262.017301 
L 568.458437 278.824308 
L 572.709464 293.671409 
L 576.96049 306.088375 
L 581.211517 315.454684 
L 585.462544 320.878517 
L 589.713571 321.012914 
L 593.964598 315.799211 
L 598.215625 306.591991 
L 602.466652 294.300249 
L 606.717679 279.553839 
L 610.968706 262.828164 
L 615.219733 244.509136 
L 619.47076 224.933334 
L 623.721787 204.417552 
L 627.972814 183.289622 
L 632.223841 161.930551 
L 636.474868 140.782943 
L 640.725895 120.231588 
L 644.976922 100.6056 
L 649.227949 82.221614 
L 653.478976 65.414607 
L 657.730003 50.567506 
L 661.98103 38.15054 
L 666.232057 28.78423 
L 670.483084 23.360397 
L 674.734111 23.226 
L 678.985138 28.439704 
L 683.236165 37.646924 
L 687.487192 49.938665 
L 691.738219 64.685075 
L 695.989246 81.410751 
L 700.240273 99.729779 
L 704.491299 119.305581 
L 708.742326 139.821363 
L 712.993353 160.949292 
L 717.24438 182.308363 
L 721.495407 203.455972 
L 725.746434 224.007327 
L 729.997461 243.633314 
L 734.248488 262.017301 
L 738.499515 278.824308 
L 742.750542 293.671409 
L 747.001569 306.088375 
L 751.252596 315.454684 
L 755.503623 320.878517 
L 759.75465 321.012914 
L 764.005677 315.799211 
L 768.256704 306.591991 
L 772.507731 294.300249 
L 776.758758 279.553839 
L 781.009785 262.828164 
L 785.260812 244.509136 
L 789.511839 224.933334 
L 793.762866 204.417552 
L 798.013893 183.289622 
" clip-path="url(#p7f03b8a31b)" style="fill: none; stroke: #901a1e; stroke-width: 1.7; stroke-linecap: square"/>
   </g>
   <g id="line2d_71">
    <path d="M 460.154897 172.119457 
L 462.699506 162.744028 
L 466.950533 147.118063 
L 471.20156 131.602389 
L 475.452587 116.308577 
L 479.703614 101.421157 
L 483.954641 87.249455 
L 488.205668 74.293673 
L 492.456695 63.302705 
L 496.707722 55.252634 
L 500.958749 51.142853 
L 505.209776 51.602844 
L 509.460803 56.557513 
L 513.71183 65.27077 
L 517.962857 76.720822 
L 522.213884 89.967371 
L 526.464911 104.312829 
L 530.715938 119.300034 
L 534.966965 134.649312 
L 539.217992 150.193945 
L 543.469019 165.832283 
L 547.720046 181.494887 
L 551.971073 197.120852 
L 556.2221 212.636526 
L 560.473127 227.930337 
L 564.724154 242.817758 
L 568.975181 256.98946 
L 573.226208 269.945241 
L 577.477234 280.93621 
L 581.728261 288.986281 
L 585.979288 293.096061 
L 590.230315 292.636071 
L 594.481342 287.681402 
L 598.732369 278.968145 
L 602.983396 267.518092 
L 607.234423 254.271544 
L 611.48545 239.926085 
L 615.736477 224.93888 
L 619.987504 209.589603 
L 624.238531 194.04497 
L 628.489558 178.406632 
L 632.740585 162.744028 
L 636.991612 147.118063 
L 641.242639 131.602389 
L 645.493666 116.308577 
L 649.744693 101.421157 
L 653.99572 87.249455 
L 658.246747 74.293673 
L 662.497774 63.302705 
L 666.748801 55.252634 
L 670.999828 51.142853 
L 675.250855 51.602844 
L 679.501882 56.557513 
L 683.752909 65.27077 
L 688.003936 76.720822 
L 692.254963 89.967371 
L 696.50599 104.312829 
L 700.757017 119.300034 
L 705.008043 134.649312 
L 709.25907 150.193945 
L 713.510097 165.832283 
L 717.761124 181.494887 
L 722.012151 197.120852 
L 726.263178 212.636526 
L 730.514205 227.930337 
L 734.765232 242.817758 
L 739.016259 256.98946 
L 743.267286 269.945241 
L 747.518313 280.93621 
L 751.76934 288.986281 
L 756.020367 293.096061 
L 760.271394 292.636071 
L 764.522421 287.681402 
L 768.773448 278.968145 
L 773.024475 267.518092 
L 777.275502 254.271544 
L 781.526529 239.926085 
L 785.777556 224.93888 
L 790.028583 209.589603 
L 794.27961 194.04497 
L 798.530637 178.406632 
" clip-path="url(#p7f03b8a31b)" style="fill: none; stroke: #547aa5; stroke-width: 1.7; stroke-linecap: square"/>
   </g>
   <g id="line2d_72">
    <path d="M 460.154897 172.119457 
L 463.485609 167.618165 
L 467.736636 161.909379 
L 471.987663 156.290563 
L 476.23869 150.834625 
L 480.489717 145.641987 
L 484.740744 140.845501 
L 488.991771 136.61391 
L 493.242798 133.154143 
L 497.493825 130.714034 
L 501.744852 129.585205 
L 505.995879 130.045888 
L 510.246906 131.957048 
L 514.497933 135.008504 
L 518.74896 138.933808 
L 522.999987 143.508752 
L 527.251014 148.548273 
L 531.502041 153.904427 
L 535.753067 159.46319 
L 540.004094 165.140511 
L 544.255121 170.875697 
L 548.506148 176.620749 
L 552.757175 182.329536 
L 557.008202 187.948351 
L 561.259229 193.40429 
L 565.510256 198.596927 
L 569.761283 203.393413 
L 574.01231 207.625004 
L 578.263337 211.084772 
L 582.514364 213.52488 
L 586.765391 214.65371 
L 591.016418 214.193026 
L 595.267445 212.281866 
L 599.518472 209.230411 
L 603.769499 205.305106 
L 608.020526 200.730163 
L 612.271553 195.690642 
L 616.52258 190.334488 
L 620.773607 184.775725 
L 625.024634 179.098404 
L 629.275661 173.363218 
L 633.526688 167.618165 
L 637.777715 161.909379 
L 642.028742 156.290563 
L 646.279769 150.834625 
L 650.530796 145.641987 
L 654.781823 140.845501 
L 659.03285 136.61391 
L 663.283876 133.154143 
L 667.534903 130.714034 
L 671.78593 129.585205 
L 676.036957 130.045888 
L 680.287984 131.957048 
L 684.539011 135.008504 
L 688.790038 138.933808 
L 693.041065 143.508752 
L 697.292092 148.548273 
L 701.543119 153.904427 
L 705.794146 159.46319 
L 710.045173 165.140511 
L 714.2962 170.875697 
L 718.547227 176.620749 
L 722.798254 182.329536 
L 727.049281 187.948351 
L 731.300308 193.40429 
L 735.551335 198.596927 
L 739.802362 203.393413 
L 744.053389 207.625004 
L 748.304416 211.084772 
L 752.555443 213.52488 
L 756.80647 214.65371 
L 761.057497 214.193026 
L 765.308524 212.281866 
L 769.559551 209.230411 
L 773.810578 205.305106 
L 778.061605 200.730163 
L 782.312632 195.690642 
L 786.563659 190.334488 
L 790.814685 184.775725 
L 795.065712 179.098404 
L 799.316739 173.363218 
" clip-path="url(#p7f03b8a31b)" style="fill: none; stroke: #cba810; stroke-width: 1.7; stroke-linecap: square"/>
   </g>
   <g id="patch_8">
    <path d="M 460.154897 335.90226 
L 460.154897 8.336655 
" style="fill: none; stroke: #000000; stroke-width: 0.9; stroke-linejoin: miter; stroke-linecap: square"/>
   </g>
   <g id="patch_9">
    <path d="M 800.237055 335.90226 
L 800.237055 8.336655 
" style="fill: none; stroke: #000000; stroke-width: 0.9; stroke-linejoin: miter; stroke-linecap: square"/>
   </g>
   <g id="patch_10">
    <path d="M 460.154897 335.90226 
L 800.237055 335.90226 
" style="fill: none; stroke: #000000; stroke-width: 0.9; stroke-linejoin: miter; stroke-linecap: square"/>
   </g>
   <g id="patch_11">
    <path d="M 460.154897 8.336655 
L 800.237055 8.336655 
" style="fill: none; stroke: #000000; stroke-width: 0.9; stroke-linejoin: miter; stroke-linecap: square"/>
   </g>
  </g>
  <g id="axes_3">
   <g id="patch_12">
    <path d="M 876.602055 335.90226 
L 1216.684212 335.90226 
L 1216.684212 8.336655 
L 876.602055 8.336655 
L 876.602055 335.90226 
z
" style="fill: none"/>
   </g>
   <g id="matplotlib.axis_5">
    <g id="xtick_15">
     <g id="line2d_73">
      <path d="M 916.98218 335.90226 
L 916.98218 8.336655 
" clip-path="url(#pdf245f9d2a)" style="fill: none; stroke: #b0b0b0; stroke-opacity: 0.3; stroke-width: 0.7; stroke-linecap: square"/>
     </g>
     <g id="line2d_74">
      <g>
       <use xlink:href="#mf273b4f674" x="916.98218" y="335.90226" style="stroke: #000000; stroke-width: 0.8"/>
      </g>
     </g>
     <g id="text_16">
      <!-- 1 -->
      <g transform="translate(909.34718 358.63851) scale(0.24 -0.24)">
       <use xlink:href="#DejaVuSans-31"/>
      </g>
     </g>
    </g>
    <g id="xtick_16">
     <g id="line2d_75">
      <path d="M 1213.350073 335.90226 
L 1213.350073 8.336655 
" clip-path="url(#pdf245f9d2a)" style="fill: none; stroke: #b0b0b0; stroke-opacity: 0.3; stroke-width: 0.7; stroke-linecap: square"/>
     </g>
     <g id="line2d_76">
      <g>
       <use xlink:href="#mf273b4f674" x="1213.350073" y="335.90226" style="stroke: #000000; stroke-width: 0.8"/>
      </g>
     </g>
     <g id="text_17">
      <!-- 5 -->
      <g transform="translate(1205.715073 358.63851) scale(0.24 -0.24)">
       <defs>
        <path id="DejaVuSans-35" d="M 691 4666 
L 3169 4666 
L 3169 4134 
L 1269 4134 
L 1269 2991 
Q 1406 3038 1543 3061 
Q 1681 3084 1819 3084 
Q 2600 3084 3056 2656 
Q 3513 2228 3513 1497 
Q 3513 744 3044 326 
Q 2575 -91 1722 -91 
Q 1428 -91 1123 -41 
Q 819 9 494 109 
L 494 744 
Q 775 591 1075 516 
Q 1375 441 1709 441 
Q 2250 441 2565 725 
Q 2881 1009 2881 1497 
Q 2881 1984 2565 2268 
Q 2250 2553 1709 2553 
Q 1456 2553 1204 2497 
Q 953 2441 691 2322 
L 691 4666 
z
" transform="scale(0.015625)"/>
       </defs>
       <use xlink:href="#DejaVuSans-35"/>
      </g>
     </g>
    </g>
    <g id="xtick_17">
     <g id="line2d_77">
      <path d="M 991.074153 335.90226 
L 991.074153 8.336655 
" clip-path="url(#pdf245f9d2a)" style="fill: none; stroke: #b0b0b0; stroke-opacity: 0.3; stroke-width: 0.7; stroke-linecap: square"/>
     </g>
     <g id="line2d_78">
      <g>
       <use xlink:href="#m1fb5d0021d" x="991.074153" y="335.90226" style="stroke: #000000; stroke-width: 0.6"/>
      </g>
     </g>
    </g>
    <g id="xtick_18">
     <g id="line2d_79">
      <path d="M 1065.166127 335.90226 
L 1065.166127 8.336655 
" clip-path="url(#pdf245f9d2a)" style="fill: none; stroke: #b0b0b0; stroke-opacity: 0.3; stroke-width: 0.7; stroke-linecap: square"/>
     </g>
     <g id="line2d_80">
      <g>
       <use xlink:href="#m1fb5d0021d" x="1065.166127" y="335.90226" style="stroke: #000000; stroke-width: 0.6"/>
      </g>
     </g>
    </g>
    <g id="xtick_19">
     <g id="line2d_81">
      <path d="M 1139.2581 335.90226 
L 1139.2581 8.336655 
" clip-path="url(#pdf245f9d2a)" style="fill: none; stroke: #b0b0b0; stroke-opacity: 0.3; stroke-width: 0.7; stroke-linecap: square"/>
     </g>
     <g id="line2d_82">
      <g>
       <use xlink:href="#m1fb5d0021d" x="1139.2581" y="335.90226" style="stroke: #000000; stroke-width: 0.6"/>
      </g>
     </g>
    </g>
    <g id="text_18">
     <!-- $k\tau$ -->
     <g transform="translate(1027.603133 371.94476) scale(0.32 -0.32)">
      <defs>
       <path id="DejaVuSans-Oblique-6b" d="M 1172 4863 
L 1747 4863 
L 1197 2028 
L 3169 3500 
L 3916 3500 
L 1716 1825 
L 3322 0 
L 2625 0 
L 1131 1709 
L 800 0 
L 225 0 
L 1172 4863 
z
" transform="scale(0.015625)"/>
       <path id="DejaVuSans-Oblique-3c4" d="M 2103 638 
Q 2188 488 2525 488 
L 2800 488 
L 2706 0 
L 2363 0 
Q 1800 0 1600 300 
Q 1403 606 1534 1269 
L 1856 2925 
L 541 2925 
L 653 3500 
L 3881 3500 
L 3769 2925 
L 2444 2925 
L 2113 1234 
Q 2025 781 2103 638 
z
" transform="scale(0.015625)"/>
      </defs>
      <use xlink:href="#DejaVuSans-Oblique-6b" transform="translate(0 0.015625)"/>
      <use xlink:href="#DejaVuSans-Oblique-3c4" transform="translate(57.910156 0.015625)"/>
     </g>
    </g>
   </g>
   <g id="matplotlib.axis_6">
    <g id="ytick_19">
     <g id="line2d_83">
      <path d="M 876.602055 321.012914 
L 1216.684212 321.012914 
" clip-path="url(#pdf245f9d2a)" style="fill: none; stroke: #b0b0b0; stroke-opacity: 0.3; stroke-width: 0.7; stroke-linecap: square"/>
     </g>
     <g id="line2d_84">
      <g>
       <use xlink:href="#m2cd7e12b97" x="876.602055" y="321.012914" style="stroke: #000000; stroke-width: 0.8"/>
      </g>
     </g>
     <g id="text_19">
      <!-- 0 -->
      <g transform="translate(856.832055 330.131039) scale(0.24 -0.24)">
       <use xlink:href="#DejaVuSans-30"/>
      </g>
     </g>
    </g>
    <g id="ytick_20">
     <g id="line2d_85">
      <path d="M 876.602055 28.68644 
L 1216.684212 28.68644 
" clip-path="url(#pdf245f9d2a)" style="fill: none; stroke: #b0b0b0; stroke-opacity: 0.3; stroke-width: 0.7; stroke-linecap: square"/>
     </g>
     <g id="line2d_86">
      <g>
       <use xlink:href="#m2cd7e12b97" x="876.602055" y="28.68644" style="stroke: #000000; stroke-width: 0.8"/>
      </g>
     </g>
     <g id="text_20">
      <!-- 8 -->
      <g transform="translate(856.832055 37.804565) scale(0.24 -0.24)">
       <use xlink:href="#DejaVuSans-38"/>
      </g>
     </g>
    </g>
    <g id="ytick_21">
     <g id="line2d_87">
      <path d="M 876.602055 247.931296 
L 1216.684212 247.931296 
" clip-path="url(#pdf245f9d2a)" style="fill: none; stroke: #b0b0b0; stroke-opacity: 0.3; stroke-width: 0.7; stroke-linecap: square"/>
     </g>
     <g id="line2d_88">
      <g>
       <use xlink:href="#m80c007e50e" x="876.602055" y="247.931296" style="stroke: #000000; stroke-width: 0.6"/>
      </g>
     </g>
    </g>
    <g id="ytick_22">
     <g id="line2d_89">
      <path d="M 876.602055 174.849677 
L 1216.684212 174.849677 
" clip-path="url(#pdf245f9d2a)" style="fill: none; stroke: #b0b0b0; stroke-opacity: 0.3; stroke-width: 0.7; stroke-linecap: square"/>
     </g>
     <g id="line2d_90">
      <g>
       <use xlink:href="#m80c007e50e" x="876.602055" y="174.849677" style="stroke: #000000; stroke-width: 0.6"/>
      </g>
     </g>
    </g>
    <g id="ytick_23">
     <g id="line2d_91">
      <path d="M 876.602055 101.768058 
L 1216.684212 101.768058 
" clip-path="url(#pdf245f9d2a)" style="fill: none; stroke: #b0b0b0; stroke-opacity: 0.3; stroke-width: 0.7; stroke-linecap: square"/>
     </g>
     <g id="line2d_92">
      <g>
       <use xlink:href="#m80c007e50e" x="876.602055" y="101.768058" style="stroke: #000000; stroke-width: 0.6"/>
      </g>
     </g>
    </g>
    <g id="text_21">
     <!-- $\max|\theta|$ -->
     <g transform="translate(865.152055 227.639457) rotate(-90) scale(0.32 -0.32)">
      <defs>
       <path id="DejaVuSans-6d" d="M 3328 2828 
Q 3544 3216 3844 3400 
Q 4144 3584 4550 3584 
Q 5097 3584 5394 3201 
Q 5691 2819 5691 2113 
L 5691 0 
L 5113 0 
L 5113 2094 
Q 5113 2597 4934 2840 
Q 4756 3084 4391 3084 
Q 3944 3084 3684 2787 
Q 3425 2491 3425 1978 
L 3425 0 
L 2847 0 
L 2847 2094 
Q 2847 2600 2669 2842 
Q 2491 3084 2119 3084 
Q 1678 3084 1418 2786 
Q 1159 2488 1159 1978 
L 1159 0 
L 581 0 
L 581 3500 
L 1159 3500 
L 1159 2956 
Q 1356 3278 1631 3431 
Q 1906 3584 2284 3584 
Q 2666 3584 2933 3390 
Q 3200 3197 3328 2828 
z
" transform="scale(0.015625)"/>
       <path id="DejaVuSans-78" d="M 3513 3500 
L 2247 1797 
L 3578 0 
L 2900 0 
L 1881 1375 
L 863 0 
L 184 0 
L 1544 1831 
L 300 3500 
L 978 3500 
L 1906 2253 
L 2834 3500 
L 3513 3500 
z
" transform="scale(0.015625)"/>
      </defs>
      <use xlink:href="#DejaVuSans-6d" transform="translate(0 0.234375)"/>
      <use xlink:href="#DejaVuSans-61" transform="translate(97.412109 0.234375)"/>
      <use xlink:href="#DejaVuSans-78" transform="translate(158.691406 0.234375)"/>
      <use xlink:href="#DejaVuSans-7c" transform="translate(217.871094 0.234375)"/>
      <use xlink:href="#DejaVuSans-Oblique-3b8" transform="translate(251.5625 0.234375)"/>
      <use xlink:href="#DejaVuSans-7c" transform="translate(312.744141 0.234375)"/>
     </g>
    </g>
   </g>
   <g id="line2d_93">
    <path d="M 879.936193 321.012914 
L 887.345391 321.012914 
L 894.754588 321.012914 
L 902.163785 321.012914 
L 909.572983 321.012914 
L 916.98218 321.012914 
L 924.391377 321.012914 
L 931.800575 321.012914 
L 939.209772 321.012914 
L 946.618969 321.012914 
L 954.028167 321.012914 
L 961.437364 319.403803 
L 968.846561 313.689223 
L 976.255759 307.73899 
L 983.664956 301.468478 
L 991.074153 295.029439 
L 998.483351 288.305053 
L 1005.892548 281.375089 
L 1013.301745 274.100983 
L 1020.710943 266.732309 
L 1028.12014 259.270055 
L 1035.529337 251.37048 
L 1042.938535 243.563353 
L 1050.347732 235.383839 
L 1057.756929 227.014386 
L 1065.166127 218.997881 
L 1072.575324 210.008951 
L 1079.984521 201.176709 
L 1087.393719 192.649582 
L 1094.802916 183.575184 
L 1102.212113 174.031345 
L 1109.621311 164.720345 
L 1117.030508 155.672622 
L 1124.439705 146.480379 
L 1131.848903 136.21972 
L 1139.2581 126.110157 
L 1146.667297 116.208694 
L 1154.076495 106.532249 
L 1161.485692 97.064635 
L 1168.894889 86.684926 
L 1176.304087 75.719248 
L 1183.713284 64.869259 
L 1191.122481 54.178879 
L 1198.531679 43.682495 
L 1205.940876 33.369948 
L 1213.350073 23.226 
" clip-path="url(#pdf245f9d2a)" style="fill: none; stroke: #901a1e; stroke-width: 1.6; stroke-linecap: square"/>
    <defs>
     <path id="mf6e23075b5" d="M 0 1.5 
C 0.397805 1.5 0.77937 1.341951 1.06066 1.06066 
C 1.341951 0.77937 1.5 0.397805 1.5 0 
C 1.5 -0.397805 1.341951 -0.77937 1.06066 -1.06066 
C 0.77937 -1.341951 0.397805 -1.5 0 -1.5 
C -0.397805 -1.5 -0.77937 -1.341951 -1.06066 -1.06066 
C -1.341951 -0.77937 -1.5 -0.397805 -1.5 0 
C -1.5 0.397805 -1.341951 0.77937 -1.06066 1.06066 
C -0.77937 1.341951 -0.397805 1.5 0 1.5 
z
" style="stroke: #901a1e"/>
    </defs>
    <g clip-path="url(#pdf245f9d2a)">
     <use xlink:href="#mf6e23075b5" x="879.936193" y="321.012914" style="fill: #901a1e; stroke: #901a1e"/>
     <use xlink:href="#mf6e23075b5" x="887.345391" y="321.012914" style="fill: #901a1e; stroke: #901a1e"/>
     <use xlink:href="#mf6e23075b5" x="894.754588" y="321.012914" style="fill: #901a1e; stroke: #901a1e"/>
     <use xlink:href="#mf6e23075b5" x="902.163785" y="321.012914" style="fill: #901a1e; stroke: #901a1e"/>
     <use xlink:href="#mf6e23075b5" x="909.572983" y="321.012914" style="fill: #901a1e; stroke: #901a1e"/>
     <use xlink:href="#mf6e23075b5" x="916.98218" y="321.012914" style="fill: #901a1e; stroke: #901a1e"/>
     <use xlink:href="#mf6e23075b5" x="924.391377" y="321.012914" style="fill: #901a1e; stroke: #901a1e"/>
     <use xlink:href="#mf6e23075b5" x="931.800575" y="321.012914" style="fill: #901a1e; stroke: #901a1e"/>
     <use xlink:href="#mf6e23075b5" x="939.209772" y="321.012914" style="fill: #901a1e; stroke: #901a1e"/>
     <use xlink:href="#mf6e23075b5" x="946.618969" y="321.012914" style="fill: #901a1e; stroke: #901a1e"/>
     <use xlink:href="#mf6e23075b5" x="954.028167" y="321.012914" style="fill: #901a1e; stroke: #901a1e"/>
     <use xlink:href="#mf6e23075b5" x="961.437364" y="319.403803" style="fill: #901a1e; stroke: #901a1e"/>
     <use xlink:href="#mf6e23075b5" x="968.846561" y="313.689223" style="fill: #901a1e; stroke: #901a1e"/>
     <use xlink:href="#mf6e23075b5" x="976.255759" y="307.73899" style="fill: #901a1e; stroke: #901a1e"/>
     <use xlink:href="#mf6e23075b5" x="983.664956" y="301.468478" style="fill: #901a1e; stroke: #901a1e"/>
     <use xlink:href="#mf6e23075b5" x="991.074153" y="295.029439" style="fill: #901a1e; stroke: #901a1e"/>
     <use xlink:href="#mf6e23075b5" x="998.483351" y="288.305053" style="fill: #901a1e; stroke: #901a1e"/>
     <use xlink:href="#mf6e23075b5" x="1005.892548" y="281.375089" style="fill: #901a1e; stroke: #901a1e"/>
     <use xlink:href="#mf6e23075b5" x="1013.301745" y="274.100983" style="fill: #901a1e; stroke: #901a1e"/>
     <use xlink:href="#mf6e23075b5" x="1020.710943" y="266.732309" style="fill: #901a1e; stroke: #901a1e"/>
     <use xlink:href="#mf6e23075b5" x="1028.12014" y="259.270055" style="fill: #901a1e; stroke: #901a1e"/>
     <use xlink:href="#mf6e23075b5" x="1035.529337" y="251.37048" style="fill: #901a1e; stroke: #901a1e"/>
     <use xlink:href="#mf6e23075b5" x="1042.938535" y="243.563353" style="fill: #901a1e; stroke: #901a1e"/>
     <use xlink:href="#mf6e23075b5" x="1050.347732" y="235.383839" style="fill: #901a1e; stroke: #901a1e"/>
     <use xlink:href="#mf6e23075b5" x="1057.756929" y="227.014386" style="fill: #901a1e; stroke: #901a1e"/>
     <use xlink:href="#mf6e23075b5" x="1065.166127" y="218.997881" style="fill: #901a1e; stroke: #901a1e"/>
     <use xlink:href="#mf6e23075b5" x="1072.575324" y="210.008951" style="fill: #901a1e; stroke: #901a1e"/>
     <use xlink:href="#mf6e23075b5" x="1079.984521" y="201.176709" style="fill: #901a1e; stroke: #901a1e"/>
     <use xlink:href="#mf6e23075b5" x="1087.393719" y="192.649582" style="fill: #901a1e; stroke: #901a1e"/>
     <use xlink:href="#mf6e23075b5" x="1094.802916" y="183.575184" style="fill: #901a1e; stroke: #901a1e"/>
     <use xlink:href="#mf6e23075b5" x="1102.212113" y="174.031345" style="fill: #901a1e; stroke: #901a1e"/>
     <use xlink:href="#mf6e23075b5" x="1109.621311" y="164.720345" style="fill: #901a1e; stroke: #901a1e"/>
     <use xlink:href="#mf6e23075b5" x="1117.030508" y="155.672622" style="fill: #901a1e; stroke: #901a1e"/>
     <use xlink:href="#mf6e23075b5" x="1124.439705" y="146.480379" style="fill: #901a1e; stroke: #901a1e"/>
     <use xlink:href="#mf6e23075b5" x="1131.848903" y="136.21972" style="fill: #901a1e; stroke: #901a1e"/>
     <use xlink:href="#mf6e23075b5" x="1139.2581" y="126.110157" style="fill: #901a1e; stroke: #901a1e"/>
     <use xlink:href="#mf6e23075b5" x="1146.667297" y="116.208694" style="fill: #901a1e; stroke: #901a1e"/>
     <use xlink:href="#mf6e23075b5" x="1154.076495" y="106.532249" style="fill: #901a1e; stroke: #901a1e"/>
     <use xlink:href="#mf6e23075b5" x="1161.485692" y="97.064635" style="fill: #901a1e; stroke: #901a1e"/>
     <use xlink:href="#mf6e23075b5" x="1168.894889" y="86.684926" style="fill: #901a1e; stroke: #901a1e"/>
     <use xlink:href="#mf6e23075b5" x="1176.304087" y="75.719248" style="fill: #901a1e; stroke: #901a1e"/>
     <use xlink:href="#mf6e23075b5" x="1183.713284" y="64.869259" style="fill: #901a1e; stroke: #901a1e"/>
     <use xlink:href="#mf6e23075b5" x="1191.122481" y="54.178879" style="fill: #901a1e; stroke: #901a1e"/>
     <use xlink:href="#mf6e23075b5" x="1198.531679" y="43.682495" style="fill: #901a1e; stroke: #901a1e"/>
     <use xlink:href="#mf6e23075b5" x="1205.940876" y="33.369948" style="fill: #901a1e; stroke: #901a1e"/>
     <use xlink:href="#mf6e23075b5" x="1213.350073" y="23.226" style="fill: #901a1e; stroke: #901a1e"/>
    </g>
   </g>
   <g id="line2d_94">
    <path d="M 879.936193 321.012914 
L 887.345391 321.012914 
L 894.754588 321.012914 
L 902.163785 321.012914 
L 909.572983 321.012914 
L 916.98218 321.012914 
L 924.391377 321.012914 
L 931.800575 321.012914 
L 939.209772 321.012914 
L 946.618969 321.012914 
L 954.028167 321.012914 
L 961.437364 311.02167 
L 968.846561 299.746309 
L 976.255759 292.248318 
L 983.664956 286.109206 
L 991.074153 280.747683 
L 998.483351 275.593748 
L 1005.892548 271.017998 
L 1013.301745 266.379216 
L 1020.710943 262.034404 
L 1028.12014 258.020725 
L 1035.529337 253.753379 
L 1042.938535 249.633768 
L 1050.347732 245.717617 
L 1057.756929 241.990527 
L 1065.166127 238.125241 
L 1072.575324 234.114046 
L 1079.984521 230.224679 
L 1087.393719 226.452827 
L 1094.802916 222.794763 
L 1102.212113 219.247199 
L 1109.621311 215.753569 
L 1117.030508 211.806321 
L 1124.439705 207.928171 
L 1131.848903 204.118902 
L 1139.2581 200.378329 
L 1146.667297 196.706233 
L 1154.076495 193.102396 
L 1161.485692 189.566524 
L 1168.894889 186.098144 
L 1176.304087 182.696596 
L 1183.713284 179.200006 
L 1191.122481 175.297083 
L 1198.531679 171.432088 
L 1205.940876 167.605681 
L 1213.350073 163.818372 
" clip-path="url(#pdf245f9d2a)" style="fill: none; stroke: #547aa5; stroke-width: 1.6; stroke-linecap: square"/>
    <defs>
     <path id="m417e09a810" d="M 0 1.5 
C 0.397805 1.5 0.77937 1.341951 1.06066 1.06066 
C 1.341951 0.77937 1.5 0.397805 1.5 0 
C 1.5 -0.397805 1.341951 -0.77937 1.06066 -1.06066 
C 0.77937 -1.341951 0.397805 -1.5 0 -1.5 
C -0.397805 -1.5 -0.77937 -1.341951 -1.06066 -1.06066 
C -1.341951 -0.77937 -1.5 -0.397805 -1.5 0 
C -1.5 0.397805 -1.341951 0.77937 -1.06066 1.06066 
C -0.77937 1.341951 -0.397805 1.5 0 1.5 
z
" style="stroke: #547aa5"/>
    </defs>
    <g clip-path="url(#pdf245f9d2a)">
     <use xlink:href="#m417e09a810" x="879.936193" y="321.012914" style="fill: #547aa5; stroke: #547aa5"/>
     <use xlink:href="#m417e09a810" x="887.345391" y="321.012914" style="fill: #547aa5; stroke: #547aa5"/>
     <use xlink:href="#m417e09a810" x="894.754588" y="321.012914" style="fill: #547aa5; stroke: #547aa5"/>
     <use xlink:href="#m417e09a810" x="902.163785" y="321.012914" style="fill: #547aa5; stroke: #547aa5"/>
     <use xlink:href="#m417e09a810" x="909.572983" y="321.012914" style="fill: #547aa5; stroke: #547aa5"/>
     <use xlink:href="#m417e09a810" x="916.98218" y="321.012914" style="fill: #547aa5; stroke: #547aa5"/>
     <use xlink:href="#m417e09a810" x="924.391377" y="321.012914" style="fill: #547aa5; stroke: #547aa5"/>
     <use xlink:href="#m417e09a810" x="931.800575" y="321.012914" style="fill: #547aa5; stroke: #547aa5"/>
     <use xlink:href="#m417e09a810" x="939.209772" y="321.012914" style="fill: #547aa5; stroke: #547aa5"/>
     <use xlink:href="#m417e09a810" x="946.618969" y="321.012914" style="fill: #547aa5; stroke: #547aa5"/>
     <use xlink:href="#m417e09a810" x="954.028167" y="321.012914" style="fill: #547aa5; stroke: #547aa5"/>
     <use xlink:href="#m417e09a810" x="961.437364" y="311.02167" style="fill: #547aa5; stroke: #547aa5"/>
     <use xlink:href="#m417e09a810" x="968.846561" y="299.746309" style="fill: #547aa5; stroke: #547aa5"/>
     <use xlink:href="#m417e09a810" x="976.255759" y="292.248318" style="fill: #547aa5; stroke: #547aa5"/>
     <use xlink:href="#m417e09a810" x="983.664956" y="286.109206" style="fill: #547aa5; stroke: #547aa5"/>
     <use xlink:href="#m417e09a810" x="991.074153" y="280.747683" style="fill: #547aa5; stroke: #547aa5"/>
     <use xlink:href="#m417e09a810" x="998.483351" y="275.593748" style="fill: #547aa5; stroke: #547aa5"/>
     <use xlink:href="#m417e09a810" x="1005.892548" y="271.017998" style="fill: #547aa5; stroke: #547aa5"/>
     <use xlink:href="#m417e09a810" x="1013.301745" y="266.379216" style="fill: #547aa5; stroke: #547aa5"/>
     <use xlink:href="#m417e09a810" x="1020.710943" y="262.034404" style="fill: #547aa5; stroke: #547aa5"/>
     <use xlink:href="#m417e09a810" x="1028.12014" y="258.020725" style="fill: #547aa5; stroke: #547aa5"/>
     <use xlink:href="#m417e09a810" x="1035.529337" y="253.753379" style="fill: #547aa5; stroke: #547aa5"/>
     <use xlink:href="#m417e09a810" x="1042.938535" y="249.633768" style="fill: #547aa5; stroke: #547aa5"/>
     <use xlink:href="#m417e09a810" x="1050.347732" y="245.717617" style="fill: #547aa5; stroke: #547aa5"/>
     <use xlink:href="#m417e09a810" x="1057.756929" y="241.990527" style="fill: #547aa5; stroke: #547aa5"/>
     <use xlink:href="#m417e09a810" x="1065.166127" y="238.125241" style="fill: #547aa5; stroke: #547aa5"/>
     <use xlink:href="#m417e09a810" x="1072.575324" y="234.114046" style="fill: #547aa5; stroke: #547aa5"/>
     <use xlink:href="#m417e09a810" x="1079.984521" y="230.224679" style="fill: #547aa5; stroke: #547aa5"/>
     <use xlink:href="#m417e09a810" x="1087.393719" y="226.452827" style="fill: #547aa5; stroke: #547aa5"/>
     <use xlink:href="#m417e09a810" x="1094.802916" y="222.794763" style="fill: #547aa5; stroke: #547aa5"/>
     <use xlink:href="#m417e09a810" x="1102.212113" y="219.247199" style="fill: #547aa5; stroke: #547aa5"/>
     <use xlink:href="#m417e09a810" x="1109.621311" y="215.753569" style="fill: #547aa5; stroke: #547aa5"/>
     <use xlink:href="#m417e09a810" x="1117.030508" y="211.806321" style="fill: #547aa5; stroke: #547aa5"/>
     <use xlink:href="#m417e09a810" x="1124.439705" y="207.928171" style="fill: #547aa5; stroke: #547aa5"/>
     <use xlink:href="#m417e09a810" x="1131.848903" y="204.118902" style="fill: #547aa5; stroke: #547aa5"/>
     <use xlink:href="#m417e09a810" x="1139.2581" y="200.378329" style="fill: #547aa5; stroke: #547aa5"/>
     <use xlink:href="#m417e09a810" x="1146.667297" y="196.706233" style="fill: #547aa5; stroke: #547aa5"/>
     <use xlink:href="#m417e09a810" x="1154.076495" y="193.102396" style="fill: #547aa5; stroke: #547aa5"/>
     <use xlink:href="#m417e09a810" x="1161.485692" y="189.566524" style="fill: #547aa5; stroke: #547aa5"/>
     <use xlink:href="#m417e09a810" x="1168.894889" y="186.098144" style="fill: #547aa5; stroke: #547aa5"/>
     <use xlink:href="#m417e09a810" x="1176.304087" y="182.696596" style="fill: #547aa5; stroke: #547aa5"/>
     <use xlink:href="#m417e09a810" x="1183.713284" y="179.200006" style="fill: #547aa5; stroke: #547aa5"/>
     <use xlink:href="#m417e09a810" x="1191.122481" y="175.297083" style="fill: #547aa5; stroke: #547aa5"/>
     <use xlink:href="#m417e09a810" x="1198.531679" y="171.432088" style="fill: #547aa5; stroke: #547aa5"/>
     <use xlink:href="#m417e09a810" x="1205.940876" y="167.605681" style="fill: #547aa5; stroke: #547aa5"/>
     <use xlink:href="#m417e09a810" x="1213.350073" y="163.818372" style="fill: #547aa5; stroke: #547aa5"/>
    </g>
   </g>
   <g id="line2d_95">
    <path d="M 879.936193 321.012914 
L 887.345391 321.012914 
L 894.754588 321.012914 
L 902.163785 321.012914 
L 909.572983 321.012914 
L 916.98218 321.012914 
L 924.391377 321.012914 
L 931.800575 321.012914 
L 939.209772 321.012914 
L 946.618969 321.012914 
L 954.028167 321.012914 
L 961.437364 320.219906 
L 968.846561 317.593572 
L 976.255759 315.100465 
L 983.664956 312.727359 
L 991.074153 310.461609 
L 998.483351 308.308698 
L 1005.892548 306.219331 
L 1013.301745 304.186493 
L 1020.710943 302.240877 
L 1028.12014 300.446322 
L 1035.529337 298.558331 
L 1042.938535 296.883374 
L 1050.347732 295.101351 
L 1057.756929 293.54179 
L 1065.166127 291.870376 
L 1072.575324 290.288561 
L 1079.984521 288.875601 
L 1087.393719 287.33241 
L 1094.802916 285.821849 
L 1102.212113 284.439328 
L 1109.621311 283.175125 
L 1117.030508 281.780692 
L 1124.439705 280.364918 
L 1131.848903 279.038158 
L 1139.2581 277.796757 
L 1146.667297 276.633261 
L 1154.076495 275.53985 
L 1161.485692 274.254418 
L 1168.894889 272.98108 
L 1176.304087 271.761896 
L 1183.713284 270.593906 
L 1191.122481 269.473711 
L 1198.531679 268.396853 
L 1205.940876 267.35829 
L 1213.350073 266.353235 
" clip-path="url(#pdf245f9d2a)" style="fill: none; stroke: #cba810; stroke-width: 1.6; stroke-linecap: square"/>
    <defs>
     <path id="m83953f5c54" d="M 0 1.5 
C 0.397805 1.5 0.77937 1.341951 1.06066 1.06066 
C 1.341951 0.77937 1.5 0.397805 1.5 0 
C 1.5 -0.397805 1.341951 -0.77937 1.06066 -1.06066 
C 0.77937 -1.341951 0.397805 -1.5 0 -1.5 
C -0.397805 -1.5 -0.77937 -1.341951 -1.06066 -1.06066 
C -1.341951 -0.77937 -1.5 -0.397805 -1.5 0 
C -1.5 0.397805 -1.341951 0.77937 -1.06066 1.06066 
C -0.77937 1.341951 -0.397805 1.5 0 1.5 
z
" style="stroke: #cba810"/>
    </defs>
    <g clip-path="url(#pdf245f9d2a)">
     <use xlink:href="#m83953f5c54" x="879.936193" y="321.012914" style="fill: #cba810; stroke: #cba810"/>
     <use xlink:href="#m83953f5c54" x="887.345391" y="321.012914" style="fill: #cba810; stroke: #cba810"/>
     <use xlink:href="#m83953f5c54" x="894.754588" y="321.012914" style="fill: #cba810; stroke: #cba810"/>
     <use xlink:href="#m83953f5c54" x="902.163785" y="321.012914" style="fill: #cba810; stroke: #cba810"/>
     <use xlink:href="#m83953f5c54" x="909.572983" y="321.012914" style="fill: #cba810; stroke: #cba810"/>
     <use xlink:href="#m83953f5c54" x="916.98218" y="321.012914" style="fill: #cba810; stroke: #cba810"/>
     <use xlink:href="#m83953f5c54" x="924.391377" y="321.012914" style="fill: #cba810; stroke: #cba810"/>
     <use xlink:href="#m83953f5c54" x="931.800575" y="321.012914" style="fill: #cba810; stroke: #cba810"/>
     <use xlink:href="#m83953f5c54" x="939.209772" y="321.012914" style="fill: #cba810; stroke: #cba810"/>
     <use xlink:href="#m83953f5c54" x="946.618969" y="321.012914" style="fill: #cba810; stroke: #cba810"/>
     <use xlink:href="#m83953f5c54" x="954.028167" y="321.012914" style="fill: #cba810; stroke: #cba810"/>
     <use xlink:href="#m83953f5c54" x="961.437364" y="320.219906" style="fill: #cba810; stroke: #cba810"/>
     <use xlink:href="#m83953f5c54" x="968.846561" y="317.593572" style="fill: #cba810; stroke: #cba810"/>
     <use xlink:href="#m83953f5c54" x="976.255759" y="315.100465" style="fill: #cba810; stroke: #cba810"/>
     <use xlink:href="#m83953f5c54" x="983.664956" y="312.727359" style="fill: #cba810; stroke: #cba810"/>
     <use xlink:href="#m83953f5c54" x="991.074153" y="310.461609" style="fill: #cba810; stroke: #cba810"/>
     <use xlink:href="#m83953f5c54" x="998.483351" y="308.308698" style="fill: #cba810; stroke: #cba810"/>
     <use xlink:href="#m83953f5c54" x="1005.892548" y="306.219331" style="fill: #cba810; stroke: #cba810"/>
     <use xlink:href="#m83953f5c54" x="1013.301745" y="304.186493" style="fill: #cba810; stroke: #cba810"/>
     <use xlink:href="#m83953f5c54" x="1020.710943" y="302.240877" style="fill: #cba810; stroke: #cba810"/>
     <use xlink:href="#m83953f5c54" x="1028.12014" y="300.446322" style="fill: #cba810; stroke: #cba810"/>
     <use xlink:href="#m83953f5c54" x="1035.529337" y="298.558331" style="fill: #cba810; stroke: #cba810"/>
     <use xlink:href="#m83953f5c54" x="1042.938535" y="296.883374" style="fill: #cba810; stroke: #cba810"/>
     <use xlink:href="#m83953f5c54" x="1050.347732" y="295.101351" style="fill: #cba810; stroke: #cba810"/>
     <use xlink:href="#m83953f5c54" x="1057.756929" y="293.54179" style="fill: #cba810; stroke: #cba810"/>
     <use xlink:href="#m83953f5c54" x="1065.166127" y="291.870376" style="fill: #cba810; stroke: #cba810"/>
     <use xlink:href="#m83953f5c54" x="1072.575324" y="290.288561" style="fill: #cba810; stroke: #cba810"/>
     <use xlink:href="#m83953f5c54" x="1079.984521" y="288.875601" style="fill: #cba810; stroke: #cba810"/>
     <use xlink:href="#m83953f5c54" x="1087.393719" y="287.33241" style="fill: #cba810; stroke: #cba810"/>
     <use xlink:href="#m83953f5c54" x="1094.802916" y="285.821849" style="fill: #cba810; stroke: #cba810"/>
     <use xlink:href="#m83953f5c54" x="1102.212113" y="284.439328" style="fill: #cba810; stroke: #cba810"/>
     <use xlink:href="#m83953f5c54" x="1109.621311" y="283.175125" style="fill: #cba810; stroke: #cba810"/>
     <use xlink:href="#m83953f5c54" x="1117.030508" y="281.780692" style="fill: #cba810; stroke: #cba810"/>
     <use xlink:href="#m83953f5c54" x="1124.439705" y="280.364918" style="fill: #cba810; stroke: #cba810"/>
     <use xlink:href="#m83953f5c54" x="1131.848903" y="279.038158" style="fill: #cba810; stroke: #cba810"/>
     <use xlink:href="#m83953f5c54" x="1139.2581" y="277.796757" style="fill: #cba810; stroke: #cba810"/>
     <use xlink:href="#m83953f5c54" x="1146.667297" y="276.633261" style="fill: #cba810; stroke: #cba810"/>
     <use xlink:href="#m83953f5c54" x="1154.076495" y="275.53985" style="fill: #cba810; stroke: #cba810"/>
     <use xlink:href="#m83953f5c54" x="1161.485692" y="274.254418" style="fill: #cba810; stroke: #cba810"/>
     <use xlink:href="#m83953f5c54" x="1168.894889" y="272.98108" style="fill: #cba810; stroke: #cba810"/>
     <use xlink:href="#m83953f5c54" x="1176.304087" y="271.761896" style="fill: #cba810; stroke: #cba810"/>
     <use xlink:href="#m83953f5c54" x="1183.713284" y="270.593906" style="fill: #cba810; stroke: #cba810"/>
     <use xlink:href="#m83953f5c54" x="1191.122481" y="269.473711" style="fill: #cba810; stroke: #cba810"/>
     <use xlink:href="#m83953f5c54" x="1198.531679" y="268.396853" style="fill: #cba810; stroke: #cba810"/>
     <use xlink:href="#m83953f5c54" x="1205.940876" y="267.35829" style="fill: #cba810; stroke: #cba810"/>
     <use xlink:href="#m83953f5c54" x="1213.350073" y="266.353235" style="fill: #cba810; stroke: #cba810"/>
    </g>
   </g>
   <g id="line2d_96">
    <path d="M 959.273606 335.90226 
L 959.273606 8.336655 
" clip-path="url(#pdf245f9d2a)" style="fill: none; stroke-dasharray: 8,6; stroke-dashoffset: 0; stroke: #666666; stroke-opacity: 0.75"/>
   </g>
   <g id="patch_13">
    <path d="M 876.602055 335.90226 
L 876.602055 8.336655 
" style="fill: none; stroke: #000000; stroke-width: 0.9; stroke-linejoin: miter; stroke-linecap: square"/>
   </g>
   <g id="patch_14">
    <path d="M 1216.684212 335.90226 
L 1216.684212 8.336655 
" style="fill: none; stroke: #000000; stroke-width: 0.9; stroke-linejoin: miter; stroke-linecap: square"/>
   </g>
   <g id="patch_15">
    <path d="M 876.602055 335.90226 
L 1216.684212 335.90226 
" style="fill: none; stroke: #000000; stroke-width: 0.9; stroke-linejoin: miter; stroke-linecap: square"/>
   </g>
   <g id="patch_16">
    <path d="M 876.602055 8.336655 
L 1216.684212 8.336655 
" style="fill: none; stroke: #000000; stroke-width: 0.9; stroke-linejoin: miter; stroke-linecap: square"/>
   </g>
   <g id="text_22">
    <!-- $k\tau=\pi/2$ -->
    <g style="fill: #666666" transform="translate(965.200964 53.163277) scale(0.2 -0.2)">
     <defs>
      <path id="DejaVuSans-3d" d="M 678 2906 
L 4684 2906 
L 4684 2381 
L 678 2381 
L 678 2906 
z
M 678 1631 
L 4684 1631 
L 4684 1100 
L 678 1100 
L 678 1631 
z
" transform="scale(0.015625)"/>
      <path id="DejaVuSans-Oblique-3c0" d="M 584 3500 
L 3938 3500 
L 3825 2925 
L 3384 2925 
L 2966 775 
Q 2922 550 2981 450 
Q 3038 353 3209 353 
Q 3256 353 3325 363 
Q 3397 369 3419 372 
L 3338 -44 
Q 3222 -84 3103 -103 
Q 2981 -122 2866 -122 
Q 2491 -122 2388 81 
Q 2284 288 2391 838 
L 2797 2925 
L 1506 2925 
L 938 0 
L 350 0 
L 919 2925 
L 472 2925 
L 584 3500 
z
" transform="scale(0.015625)"/>
      <path id="DejaVuSans-2f" d="M 1625 4666 
L 2156 4666 
L 531 -594 
L 0 -594 
L 1625 4666 
z
" transform="scale(0.015625)"/>
     </defs>
     <use xlink:href="#DejaVuSans-Oblique-6b" transform="translate(0 0.015625)"/>
     <use xlink:href="#DejaVuSans-Oblique-3c4" transform="translate(57.910156 0.015625)"/>
     <use xlink:href="#DejaVuSans-3d" transform="translate(137.597656 0.015625)"/>
     <use xlink:href="#DejaVuSans-Oblique-3c0" transform="translate(240.869141 0.015625)"/>
     <use xlink:href="#DejaVuSans-2f" transform="translate(301.074219 0.015625)"/>
     <use xlink:href="#DejaVuSans-32" transform="translate(331.140625 0.015625)"/>
    </g>
   </g>
  </g>
 </g>
 <defs>
  <clipPath id="p7ed420479c">
   <rect x="40.39899" y="8.336655" width="340.082157" height="327.565605"/>
  </clipPath>
  <clipPath id="p7f03b8a31b">
   <rect x="460.154897" y="8.336655" width="340.082157" height="327.565605"/>
  </clipPath>
  <clipPath id="pdf245f9d2a">
   <rect x="876.602055" y="8.336655" width="340.082157" height="327.565605"/>
  </clipPath>
 </defs>
</svg>
